<svg height="512pt" viewBox="0 -30 512.00216 512" width="512pt" xmlns="http://www.w3.org/2000/svg"><path d="m474.042969 240.25c-5.386719 6.699219-8.609375 15.203125-8.609375 24.476562 0 9.273438 3.222656 17.777344 8.609375 24.476563 6.089843 7.570313 14.941406 12.824219 25.027343 14.226563 3.113282.433593 5.4375 3.074218 5.4375 6.21875v110.832031c0 13.671875-11.082031 24.753906-24.753906 24.753906h-447.265625c-13.671875 0-24.753906-11.082031-24.753906-24.753906v-21.515625c0-3.179688 2.378906-5.871094 5.542969-6.230469 24.1875-2.75 42.976562-23.285156 42.976562-48.207031 0-24.917969-18.789062-45.449219-42.976562-48.199219-3.164063-.359375-5.542969-3.046875-5.542969-6.230469v-105.539062h496.773437v35.25c0 3.140625-2.324218 5.785156-5.4375 6.21875-10.085937 1.402344-18.9375 6.65625-25.027343 14.222656zm0 0" fill="#fbc700"/><path d="m474.046875 240.246094c-5.386719 6.703125-8.613281 15.207031-8.613281 24.476562 0 9.28125 3.226562 17.78125 8.613281 24.484375 6.082031 7.5625 14.933594 12.816407 25.023437 14.226563 3.117188.429687 5.433594 3.066406 5.433594 6.214844v110.832031c0 13.675781-11.078125 24.753906-24.753906 24.753906h-447.257812c-13.316407 0-24.175782-10.507813-24.726563-23.695313h445.25c13.667969 0 24.757813-11.078124 24.757813-24.753906v-71.660156c0-3.148438-2.328126-5.785156-5.445313-6.222656-27.09375-3.769532-39.410156-32.710938-39.941406-57.164063-.308594-14.605469 5.234375-32.390625 15.484375-44.738281 6.40625-7.710938 14.65625-13.304688 24.457031-14.664062 3.117187-.4375 5.445313-3.074219 5.445313-6.222657v-11.550781h26.730468v35.246094c0 3.148437-2.316406 5.785156-5.433594 6.214844-10.089843 1.40625-18.941406 6.660156-25.023437 14.222656zm0 0" fill="#e9b900"/><path d="m7.734375 184.558594 385.164063-174.875c8.664062-3.933594 18.808593-2.5625 26.105468 3.539062 25.476563 21.3125 80.902344 78.054688 85.503906 171.335938zm0 0" fill="#ffe02f"/><path d="m504.507812 184.558594c-4.605468-93.277344-60.027343-150.023438-85.503906-171.332032-7.292968-6.109374-17.449218-7.472656-26.109375-3.539062l-10.605469 4.820312c3.28125.898438 6.386719 2.453126 9.101563 4.644532 21.355469 17.242187 63.742187 58.519531 79.613281 124.445312 1.75 7.273438-3.71875 14.28125-11.199218 14.28125h-393.296876l-58.769531 26.683594h496.765625v-.003906zm0 0" fill="#ffd500"/><g fill="#e9b900"><path d="m360.089844 238.925781c0 17.039063-13.808594 30.847657-30.847656 30.847657-17.035157 0-30.847657-13.808594-30.847657-30.847657 0-17.035156 13.8125-30.847656 30.847657-30.847656 17.039062 0 30.847656 13.8125 30.847656 30.847656zm0 0"/><path d="m458.152344 378.855469c0 19.644531-15.925782 35.570312-35.570313 35.570312s-35.570312-15.925781-35.570312-35.570312 15.925781-35.570313 35.570312-35.570313 35.570313 15.925782 35.570313 35.570313zm0 0"/><path d="m204.070312 290.171875c0 27.804687-22.539062 50.347656-50.347656 50.347656s-50.347656-22.542969-50.347656-50.347656c0-27.808594 22.539062-50.347656 50.347656-50.347656s50.347656 22.539062 50.347656 50.347656zm0 0"/><path d="m280.664062 379.886719c0 17.113281-13.875 30.988281-30.988281 30.988281s-30.988281-13.875-30.988281-30.988281 13.875-30.988281 30.988281-30.988281 30.988281 13.875 30.988281 30.988281zm0 0"/></g><path d="m404.421875 96.21875c0 17.113281-13.875 30.984375-30.988281 30.984375-17.113282 0-30.988282-13.871094-30.988282-30.984375 0-17.117188 13.875-30.988281 30.988282-30.988281 17.113281 0 30.988281 13.871093 30.988281 30.988281zm0 0" fill="#fbc700"/><path d="m275.621094 134.757812c0 12.769532-10.351563 23.121094-23.121094 23.121094-12.765625 0-23.117188-10.351562-23.117188-23.121094 0-12.769531 10.351563-23.121093 23.117188-23.121093 12.769531 0 23.121094 10.351562 23.121094 23.121093zm0 0" fill="#fbc700"/><path d="m500.105469 233.445312c6.78125-.945312 11.898437-6.808593 11.898437-13.636718v-35.25c0-.078125-.011718-.15625-.015625-.238282 0-.042968.003907-.085937 0-.128906-2.007812-40.691406-13.585937-78.902344-34.429687-113.597656l-.410156-.675781c-2.144532-3.539063-6.75-4.667969-10.289063-2.523438s-4.667969 6.75-2.523437 10.289063l.394531.652344c18.195312 30.289062 28.871093 63.46875 31.773437 98.730468h-454.140625l353.632813-160.558594c6.007812-2.730468 13.152344-1.761718 18.199218 2.464844 7.484376 6.257813 18.886719 16.753906 30.695313 31.199219 2.625 3.207031 7.34375 3.675781 10.542969 1.058594 3.207031-2.617188 3.679687-7.339844 1.058594-10.542969-12.550782-15.355469-24.699219-26.535156-32.679688-33.210938-9.441406-7.898437-22.792969-9.707031-34.011719-4.613281-4.789062 2.171875-9.578125 4.347657-14.363281 6.519531-16.015625 7.269532-32.027344 14.542969-48.039062 21.8125-23.300782 10.578126-46.601563 21.15625-69.902344 31.738282-26.453125 12.007812-52.90625 24.019531-79.355469 36.027344-25.460937 11.5625-50.925781 23.121093-76.386719 34.683593-20.332031 9.230469-40.660156 18.460938-60.992187 27.691407-6.949219 3.15625-13.894531 6.308593-20.84375 9.464843-4.953125 2.246094-11.078125 4.085938-15.65625 6.96875-5.730469 3.605469-4.023438 12.480469-4.023438 18.34375v36.363281 57.621094c0 7.003906 5.238281 12.882813 12.1875 13.675782 20.714844 2.355468 36.335938 19.875 36.335938 40.753906 0 20.882812-15.621094 38.410156-36.335938 40.765625-6.945312.789062-12.1875 6.667969-12.1875 13.675781v21.511719c0 17.78125 14.46875 32.25 32.25 32.25h80.523438c4.136719 0 7.492187-3.355469 7.492187-7.492188 0-4.140625-3.355468-7.492187-7.492187-7.492187h-80.523438c-9.519531 0-17.261719-7.746094-17.261719-17.265625v-20.4375c27.738282-3.703125 48.523438-27.378907 48.523438-55.515625 0-28.132813-20.785156-51.800782-48.523438-55.507813v-96.96875h481.792969v26.707031c-11.355469 1.835938-21.554687 7.773438-28.8125 16.796876-6.621093 8.234374-10.265625 18.59375-10.265625 29.171874 0 10.582032 3.644532 20.941407 10.265625 29.171876 7.257813 9.027343 17.457031 14.960937 28.8125 16.800781v109.777343c0 9.519532-7.746093 17.265626-17.265625 17.265626h-332.273437c-4.140625 0-7.496094 3.355468-7.496094 7.492187s3.355469 7.492187 7.496094 7.492187h332.273437c17.78125 0 32.25-14.464843 32.25-32.25v-110.828124c0-6.832032-5.117187-12.695313-11.898437-13.636719-7.96875-1.109375-15.148438-5.195313-20.222657-11.503907-4.550781-5.660156-6.957031-12.5-6.957031-19.78125 0-7.277343 2.40625-14.117187 6.957031-19.777343 5.074219-6.308594 12.253907-10.394531 20.222657-11.503907zm0 0"/><path d="m367.582031 238.925781c0-21.140625-17.199219-38.339843-38.339843-38.339843-21.140626 0-38.339844 17.199218-38.339844 38.339843s17.199218 38.339844 38.339844 38.339844c21.140624 0 38.339843-17.199219 38.339843-38.339844zm-61.691406 0c0-12.878906 10.476563-23.355469 23.351563-23.355469 12.878906 0 23.355468 10.476563 23.355468 23.355469 0 12.878907-10.476562 23.355469-23.355468 23.355469-12.875 0-23.351563-10.476562-23.351563-23.355469zm0 0"/><path d="m465.644531 378.855469c0-23.746094-19.316406-43.0625-43.0625-43.0625-23.746093 0-43.0625 19.316406-43.0625 43.0625 0 23.746093 19.316407 43.0625 43.0625 43.0625 23.746094 0 43.0625-19.316407 43.0625-43.0625zm-71.140625 0c0-15.484375 12.597656-28.078125 28.078125-28.078125 15.484375 0 28.078125 12.59375 28.078125 28.078125 0 15.480469-12.59375 28.078125-28.078125 28.078125-15.480469-.003906-28.078125-12.597656-28.078125-28.078125zm0 0"/><path d="m153.722656 232.328125c-31.894531 0-57.84375 25.949219-57.84375 57.84375s25.949219 57.839844 57.84375 57.839844c31.894532 0 57.839844-25.945313 57.839844-57.839844s-25.945312-57.84375-57.839844-57.84375zm0 100.699219c-23.632812 0-42.855468-19.226563-42.855468-42.855469 0-23.632813 19.222656-42.855469 42.855468-42.855469 23.628906 0 42.855469 19.222656 42.855469 42.855469 0 23.628906-19.226563 42.855469-42.855469 42.855469zm0 0"/><path d="m249.675781 418.367188c21.21875 0 38.480469-17.261719 38.480469-38.480469s-17.261719-38.480469-38.480469-38.480469-38.480469 17.265625-38.480469 38.480469c0 21.21875 17.261719 38.480469 38.480469 38.480469zm0-61.972657c12.957031 0 23.496094 10.539063 23.496094 23.492188 0 12.957031-10.539063 23.496093-23.496094 23.496093-12.953125 0-23.492187-10.539062-23.492187-23.496093 0-12.953125 10.539062-23.492188 23.492187-23.492188zm0 0"/><path d="m373.433594 57.738281c-21.21875 0-38.480469 17.261719-38.480469 38.480469s17.261719 38.480469 38.480469 38.480469c21.214844 0 38.476562-17.261719 38.476562-38.480469s-17.261718-38.480469-38.476562-38.480469zm0 61.972657c-12.957032 0-23.496094-10.539063-23.496094-23.492188 0-12.957031 10.539062-23.496094 23.496094-23.496094 12.953125 0 23.492187 10.539063 23.492187 23.496094 0 12.953125-10.539062 23.492188-23.492187 23.492188zm0 0"/><path d="m221.890625 134.757812c0 16.878907 13.730469 30.613282 30.609375 30.613282 16.882812 0 30.613281-13.734375 30.613281-30.613282 0-16.878906-13.730469-30.613281-30.613281-30.613281-16.878906 0-30.609375 13.734375-30.609375 30.613281zm46.238281 0c0 8.617188-7.011718 15.628907-15.628906 15.628907-8.613281 0-15.625-7.011719-15.625-15.628907 0-8.617187 7.011719-15.628906 15.625-15.628906 8.621094 0 15.628906 7.011719 15.628906 15.628906zm0 0"/><path d="m425.496094 291.203125c0 5.820313-4.71875 10.539063-10.539063 10.539063-5.820312 0-10.539062-4.71875-10.539062-10.539063s4.71875-10.539063 10.539062-10.539063c5.820313 0 10.539063 4.71875 10.539063 10.539063zm0 0"/><path d="m130.914062 391.328125c0 5.820313-4.71875 10.539063-10.539062 10.539063s-10.539062-4.71875-10.539062-10.539063 4.71875-10.539063 10.539062-10.539063 10.539062 4.71875 10.539062 10.539063zm0 0"/><path d="m243.683594 236.886719c0 5.820312-4.71875 10.542969-10.539063 10.542969-5.820312 0-10.539062-4.722657-10.539062-10.542969 0-5.820313 4.71875-10.539063 10.539062-10.539063 5.820313 0 10.539063 4.71875 10.539063 10.539063zm0 0"/><path d="m453.9375 137.746094c0 5.820312-4.71875 10.539062-10.539062 10.539062-5.820313 0-10.539063-4.71875-10.539063-10.539062 0-5.820313 4.71875-10.539063 10.539063-10.539063 5.820312 0 10.539062 4.71875 10.539062 10.539063zm0 0"/></svg>