<svg id="Capa_1" enable-background="new 0 0 512 512" height="512" viewBox="0 0 512 512" width="512" xmlns="http://www.w3.org/2000/svg"><g><path d="m145.483 55.834 16.159 24.466c29.896-18.844 65.294-29.757 103.244-29.757 81.552 0 151.336 50.352 179.983 121.659 12.952 6.822 25.257 15.304 36.614 25.429 2.148-5.576 3.338-11.627 3.338-17.96 0-19.042-10.65-35.593-26.316-44.032 2.633-6.083 4.1-12.787 4.1-19.837 0-27.606-22.379-49.985-49.985-49.985-10.516 0-20.269 3.255-28.32 8.802.36-2.419.551-4.894.551-7.414 0-27.606-22.379-49.985-49.985-49.985-18.214 0-34.148 9.745-42.885 24.303-6.66-19.776-25.342-34.023-47.364-34.023-21.45 0-39.738 13.514-46.83 32.49-9.121-9.736-22.084-15.829-36.478-15.829-27.606 0-49.985 22.379-49.985 49.985 0 3.018.283 5.969.795 8.84 10.002-9.957 21.133-19.074 33.364-27.152z" fill="#98246a"/><g><path d="m238.043 197.787.862-.751c33.26-29.003 75.952-44.975 120.21-44.975 30.613 0 60.076 7.47 86.318 21.535-28.293-72.046-98.462-123.054-180.546-123.054-38.309 0-74.02 11.114-104.093 30.287z" fill="#e03d9c"/></g><g><path d="m186.674 270.529s-.001-.001-.001-.001c8.944-23.905 23.022-46.325 42.247-65.55 3.03-3.03 6.144-5.923 9.326-8.698l-92.763-140.446c-52.367 34.588-84.657 88.163-93.797 145.614 52.486 8.006 99.392 32.956 134.988 69.081z" fill="#c53287"/></g><g><g><path d="m91.216 210.978c-2.454-55.72 16.83-111.33 55.193-153.742l-.926-1.402c-52.367 34.588-84.657 88.163-93.797 145.614 13.585 2.072 26.792 5.289 39.53 9.53z" fill="#98246a"/></g></g><path d="m197.991 282.83c4.961-6.79 10.486-13.297 16.618-19.429 46.636-46.636 114.316-59.384 172.47-38.267 29.075-14.922 61.581-24.095 96.021-26.048-72.248-65.939-184.307-63.98-254.18 5.892-19.225 19.225-33.304 41.645-42.247 65.55 3.911 3.969 7.688 8.07 11.318 12.302z" fill="#98246a"/><path d="m214.61 263.401c-6.378 6.379-12.1 13.162-17.211 20.25 37.27 43.432 57.601 98.141 57.601 155.978v15.195c.332-.257.672-.495 1-.761v-14.434c0-93.495 53.252-174.551 131.08-214.496-58.154-21.116-125.835-8.368-172.47 38.268z" fill="#c53287"/><g><g><path d="m256 504.5c133.073 0 240.949-107.876 240.949-240.949v-64.871c-133.073 0-240.949 107.877-240.949 240.949z" fill="#e759aa"/></g><g><path d="m297 464.949c0-119.094 86.409-217.993 199.949-237.459v-28.81c-133.073 0-240.949 107.877-240.949 240.949v64.871c13.978 0 27.673-1.205 41-3.49z" fill="#e03d9c"/></g><g><path d="m256 504.5c-133.073 0-240.949-107.876-240.949-240.949v-64.871c133.073 0 240.949 107.877 240.949 240.949z" fill="#e03d9c"/></g><g><path d="m58 246.871v-44.371c-13.937-2.508-28.289-3.82-42.949-3.82v64.871c0 133.073 107.876 240.949 240.949 240.949v-20.5c-112.581-20.257-198-118.716-198-237.129z" fill="#c53287"/></g></g><path d="m496.473 280.562c-4.131-.434-7.799 2.588-8.215 6.709-3.293 32.643-13.411 63.881-29.42 91.915 1.061-6.485 1.602-13.103 1.602-19.803 0-32.394-12.631-62.865-35.567-85.802-2.929-2.928-7.678-2.928-10.606 0-2.929 2.93-2.929 7.678 0 10.607 20.103 20.103 31.173 46.807 31.173 75.194s-11.071 55.092-31.173 75.193c-.545.545-.988 1.154-1.331 1.802-15.713 14.278-33.125 26.204-51.729 35.603 25.302-31.763 31.769-76.509 12.843-115.389-1.813-3.725-6.301-5.274-10.026-3.461-3.724 1.812-5.274 6.302-3.461 10.025 22.607 46.444 3.215 102.622-43.229 125.229-.451.219-.867.479-1.252.771-17.051 4.531-34.676 7.152-52.581 7.723v-57.252c0-62.356 24.283-120.98 68.375-165.073 42.319-42.319 98.03-66.391 157.574-68.259v46.727h15v-54.344c0-4.143-3.358-7.5-7.5-7.5-1.943 0-3.881.027-5.816.071.772-3.742 1.19-7.613 1.19-11.581 0-18.977-9.31-36.528-24.673-47.206 1.633-5.38 2.458-10.961 2.458-16.663 0-31.697-25.788-57.485-57.485-57.485-7.081 0-14.002 1.283-20.496 3.766-2.6-29.308-27.287-52.361-57.259-52.361-15.661 0-30.604 6.516-41.33 17.565-10.304-16.709-28.669-27.283-48.922-27.283-20.293 0-38.982 10.86-49.255 27.858-9.806-7.199-21.769-11.196-34.053-11.196-31.697 0-57.485 25.787-57.485 57.484 0 2.09.119 4.152.34 6.184-29.332 30.147-49.508 68.072-58.136 110.27-.167.819-.315 1.639-.472 2.458-10.053-1.244-20.238-1.879-30.505-1.879-4.142 0-7.5 3.357-7.5 7.5v64.871c0 66.363 25.843 128.754 72.769 175.68s109.317 72.77 175.68 72.77c61.961 0 121.309-22.941 167.111-64.598 45.489-41.372 73.925-97.706 80.07-158.626.417-4.121-2.587-7.799-6.708-8.214zm-301.018-11.733c8.605-21.32 21.514-41.293 38.768-58.547 33.356-33.356 77.705-51.727 124.877-51.727 38.426 0 74.971 12.199 105.233 34.749-27.321 3.561-53.594 11.58-77.957 23.709-60.072-20.399-129.261-6.724-177.071 41.084-4.164 4.164-8.06 8.515-11.725 13.008-.703-.763-1.411-1.523-2.125-2.276zm193.102-188.035c7.101-4.893 15.422-7.479 24.065-7.479 23.426 0 42.485 19.059 42.485 42.485 0 5.848-1.172 11.52-3.483 16.857-1.547 3.573-.102 7.735 3.326 9.582 13.8 7.435 22.373 21.776 22.373 37.43 0 1.523-.087 3.026-.244 4.508-8.353-6.555-17.174-12.361-26.382-17.388-14.235-33.936-37.506-63.175-66.783-84.701 1.617.085 3.253-.337 4.643-1.294zm-53.689-56.074c23.426 0 42.485 19.059 42.485 42.484 0 2.094-.158 4.217-.469 6.311-.205 1.375-.006 2.74.505 3.972-23.404-15.825-50.296-26.862-79.264-31.694.096-.138.202-.266.289-.411 7.765-12.938 21.393-20.662 36.454-20.662zm-173.559 6.942c11.865 0 22.876 4.778 31.004 13.455 1.774 1.894 4.401 2.734 6.945 2.228 2.545-.51 4.645-2.298 5.554-4.729 6.174-16.518 22.17-27.616 39.805-27.616 18.253 0 34.431 11.621 40.258 28.917.014.041.035.077.049.118-6.592-.654-13.276-.992-20.038-.992-36.75 0-71.226 9.906-100.916 27.172l-12.229-18.515c-2.283-3.456-6.936-4.408-10.392-2.124-7.616 5.03-14.858 10.474-21.709 16.289 3.864-19.474 21.076-34.203 41.669-34.203zm-17.877 34.675 38.516 58.314c2.283 3.455 6.935 4.407 10.392 2.124 3.457-2.282 4.408-6.935 2.125-10.392l-22.213-33.63c27.306-15.708 58.936-24.71 92.635-24.71 71.121 0 133.055 40.045 164.469 98.766-22.077-8.694-45.813-13.254-70.255-13.254-30.375 0-59.672 7.021-86.036 20.295-2.391-20.511.19-41.439 7.81-61.285 1.485-3.867-.446-8.205-4.313-9.69-3.865-1.479-8.205.447-9.69 4.313-9.263 24.125-11.841 49.683-7.85 74.512-6.616 4.067-13.006 8.554-19.139 13.448l-26.119-39.545c-2.283-3.457-6.936-4.407-10.392-2.124-3.457 2.282-4.408 6.935-2.125 10.392l27.189 41.166c-1.626 1.519-3.238 3.057-4.819 4.638-16.932 16.932-30.282 36.484-39.718 57.73-13.285-12.305-27.813-23.076-43.309-32.153-7.715-26.283-7.203-55.197 3.351-82.684 1.485-3.867-.446-8.205-4.313-9.69-3.864-1.48-8.205.447-9.69 4.313-9.772 25.45-12.109 52.494-7.134 78.595-19.677-9.478-40.617-16.376-62.308-20.414 9.863-50.416 38.26-97.177 82.936-129.035zm-120.881 139.963c74.05 2.377 142.771 39.836 184.986 101.229 2.347 3.413 7.016 4.277 10.43 1.931 3.413-2.347 4.277-7.016 1.931-10.429-3.9-5.671-8.017-11.146-12.327-16.426 3.808-4.828 7.916-9.475 12.342-13.9 40.062-40.062 96.576-53.887 147.993-41.479-16.751 10.219-32.409 22.495-46.637 36.724-32.207 32.207-54.48 71.699-65.286 114.76-4.197-16.622-10.126-32.808-17.808-48.45-1.826-3.719-6.318-5.25-10.038-3.427-3.718 1.826-5.252 6.32-3.426 10.038 15.785 32.144 23.788 66.716 23.788 102.758v57.254c-17.924-.562-35.496-3.151-52.465-7.629-.417-.33-.871-.625-1.369-.867-46.444-22.607-65.837-78.785-43.229-125.229 1.813-3.724.263-8.213-3.461-10.025s-8.213-.265-10.026 3.461c-18.953 38.936-12.44 83.753 12.952 115.525-18.626-9.409-36.053-21.368-51.828-35.721-.344-.655-.79-1.27-1.341-1.82-20.101-20.103-31.172-46.808-31.172-75.195 0-28.388 11.071-55.092 31.173-75.194 2.929-2.93 2.929-7.678 0-10.607-2.929-2.928-7.678-2.928-10.606 0-22.936 22.937-35.567 53.408-35.567 85.802 0 6.757.552 13.43 1.631 19.969-19.988-34.877-30.64-74.519-30.64-115.801z"/></g></svg>