<?xml version="1.0" encoding="UTF-8"?>
<svg xmlns="http://www.w3.org/2000/svg" xmlns:xlink="http://www.w3.org/1999/xlink" version="1.1" id="Capa_1" x="0px" y="0px" viewBox="0 0 440 512" style="enable-background:new 0 0 512 512;" xml:space="preserve" width="512" height="512">
<g>
	<g>
		<path style="fill:#F9EFDA;" d="M114.843,471.367l1.411,17.87c0.68,8.617,7.871,15.263,16.515,15.263h180.194&#10;&#9;&#9;&#9;c8.644,0,15.835-6.646,16.515-15.263l1.411-17.87v-6H114.843V471.367z"/>
		<path style="fill:#F4DDB1;" d="M307.89,465.366v6l-1.411,17.871c-0.68,8.617-7.872,15.263-16.515,15.263h23&#10;&#9;&#9;&#9;c8.643,0,15.835-6.646,16.515-15.263l1.411-17.871v-6H307.89z"/>



		<polygon style="fill:#9DC6FB;" points="365.349,318.84 364.608,313.983 366.12,309.113 379.133,144.945 57.2,144.945 57.2,156.6 &#10;&#9;&#9;&#9;65.701,264.284 84.449,314.229 73.549,363.683 79.434,438.233 222.867,454.8 355.789,439.447 &#9;&#9;"/>
		<path style="fill:#80B4FB;" d="M366.299,438.233L366.299,438.233l5.885-74.55l-7.576-49.7l15.424-49.7&#10;&#9;&#9;&#9;c-0.035,0.004-0.026-0.006,0.002-0.022l8.5-107.661v-11.655h-23V156.6l-22.44,284.241c-0.002,0.025-0.006,0.049-0.008,0.074&#10;&#9;&#9;&#9;L366.299,438.233z"/>
		<path style="fill:#F9EFDA;" d="M389.099,123.467c-3.021,0-345.445,0-348.466,0c-9.15,0-16.567,7.417-16.567,16.567&#10;&#9;&#9;&#9;S31.484,156.6,40.633,156.6c3.021,0,345.445,0,348.466,0c9.15,0,16.567-7.417,16.567-16.567S398.248,123.467,389.099,123.467z"/>
		<path style="fill:#F4DDB1;" d="M405.1,123.467c-0.454,0-8.928,0-23,0c9.149,0,16.567,7.417,16.567,16.567&#10;&#9;&#9;&#9;c0,9.15-7.417,16.567-16.567,16.567c14.072,0,22.546,0,23,0c9.149,0,16.567-7.417,16.567-16.567&#10;&#9;&#9;&#9;C421.667,130.884,414.249,123.467,405.1,123.467z"/>
		<path style="fill:#80B4FB;" d="M79.434,438.233l0.206,2.608c1.361,17.234,15.743,30.526,33.031,30.526h220.392&#10;&#9;&#9;&#9;c17.288,0,31.67-13.292,33.031-30.526l0.206-2.608H79.434z"/>
		<path style="fill:#74A4FC;" d="M343.299,438.233l-0.206,2.608c-1.361,17.234-15.743,30.526-33.031,30.526h23&#10;&#9;&#9;&#9;c17.288,0,31.67-13.292,33.031-30.526l0.206-2.608H343.299z"/>
		<path style="fill:#F9EFDA;" d="M65.701,264.283h78.809c5.312,0,10.307-2.546,13.412-6.855&#10;&#9;&#9;&#9;c15.172-21.054,38.623-34.561,64.944-34.561c26.321,0,49.771,13.507,64.944,34.561c3.106,4.31,8.1,6.855,13.412,6.855h78.809&#10;&#9;&#9;&#9;l-7.847,99.4h-70.962c-5.312,0-10.307,2.546-13.412,6.855c-15.172,21.054-38.623,34.561-64.944,34.561&#10;&#9;&#9;&#9;c-26.321,0-49.772-13.507-64.944-34.561c-3.106-4.31-8.1-6.855-13.412-6.855H73.549L65.701,264.283z"/>
		<path style="fill:#F9EFDA;" d="M65.701,264.283h78.809c5.312,0,10.307-2.546,13.412-6.855&#10;&#9;&#9;&#9;c15.172-21.054,38.623-34.561,64.944-34.561c26.321,0,49.771,13.507,64.944,34.561c3.106,4.31,8.1,6.855,13.412,6.855h78.809&#10;&#9;&#9;&#9;l-7.847,99.4h-70.962c-5.312,0-10.307,2.546-13.412,6.855c-15.172,21.054-38.623,34.561-64.944,34.561&#10;&#9;&#9;&#9;c-26.321,0-49.772-13.507-64.944-34.561c-3.106-4.31-8.1-6.855-13.412-6.855H73.549L65.701,264.283z"/>
		<path style="fill:#FFD064;" d="M248,305.7h-50.267c-4.418,0-8-3.582-8-8v-17.133c0-4.418,3.582-8,8-8H248c4.418,0,8,3.582,8,8&#10;&#9;&#9;&#9;V297.7C256,302.118,252.418,305.7,248,305.7z"/>
		<path style="fill:#FFC250;" d="M248,272.567h-23c4.418,0,8,3.582,8,8V297.7c0,4.418-3.582,8-8,8h23c4.418,0,8-3.582,8-8v-17.133&#10;&#9;&#9;&#9;C256,276.148,252.418,272.567,248,272.567z"/>
		<polygon style="fill:#F4DDB1;" points="349.185,363.683 372.185,363.683 380.032,264.283 357.032,264.283 &#9;&#9;"/>
	</g>
	<g>
		<path style="fill:none;stroke:#000000;stroke-width:15;stroke-linecap:round;stroke-linejoin:round;stroke-miterlimit:10;" d="&#10;&#9;&#9;&#9;M405.1,123.467c-3.021,0-361.445,0-364.467,0c-9.15,0-16.567,7.417-16.567,16.567S31.484,156.6,40.633,156.6&#10;&#9;&#9;&#9;c3.021,0,361.446,0,364.467,0c9.149,0,16.567-7.417,16.567-16.567S414.249,123.467,405.1,123.467z"/>
		
			<line style="fill:none;stroke:#000000;stroke-width:15;stroke-linecap:round;stroke-linejoin:round;stroke-miterlimit:10;" x1="60.424" y1="197.433" x2="57.2" y2="156.6"/>
		<path style="fill:none;stroke:#000000;stroke-width:15;stroke-linecap:round;stroke-linejoin:round;stroke-miterlimit:10;" d="&#10;&#9;&#9;&#9;M388.533,156.6l-22.44,284.241c-1.361,17.234-15.743,30.526-33.031,30.526H112.671c-17.288,0-31.67-13.292-33.03-30.526&#10;&#9;&#9;&#9;L63.159,232.083"/>
		<path style="fill:none;stroke:#000000;stroke-width:15;stroke-linecap:round;stroke-linejoin:round;stroke-miterlimit:10;" d="&#10;&#9;&#9;&#9;M188.931,504.5h124.033c8.644,0,15.835-6.646,16.515-15.263l1.411-17.87H114.843l1.411,17.87&#10;&#9;&#9;&#9;c0.68,8.617,7.871,15.263,16.515,15.263h21.162"/>
		<path style="fill:none;stroke:#000000;stroke-width:15;stroke-linecap:round;stroke-linejoin:round;stroke-miterlimit:10;" d="&#10;&#9;&#9;&#9;M73.549,363.683h70.962c5.312,0,10.307,2.546,13.412,6.855c15.172,21.054,38.623,34.561,64.944,34.561&#10;&#9;&#9;&#9;c26.321,0,49.771-13.507,64.944-34.561c3.106-4.31,8.1-6.855,13.412-6.855h70.962"/>
		<path style="fill:none;stroke:#000000;stroke-width:15;stroke-linecap:round;stroke-linejoin:round;stroke-miterlimit:10;" d="&#10;&#9;&#9;&#9;M380.032,264.283h-78.809c-5.312,0-10.307-2.546-13.412-6.855c-15.172-21.054-38.623-34.561-64.944-34.561&#10;&#9;&#9;&#9;c-26.321,0-49.772,13.507-64.944,34.561c-3.106,4.31-8.1,6.855-13.412,6.855H65.701"/>


	</g>
</g>















</svg>
