<?xml version="1.0"?>
<svg xmlns="http://www.w3.org/2000/svg" id="Filled_Expand" data-name="Filled Expand" viewBox="0 0 32 64" width="512" height="512"><defs><style>.cls-1{fill:#b9e4f2;}.cls-2{fill:#a5d9f0;}.cls-3{fill:#fff;}.cls-4{fill:#d2f3fd;}.cls-5{fill:#e9fcff;}.cls-6{fill:#5a8def;}.cls-7{fill:#4880ed;}.cls-8{fill:#4b5b61;}.cls-9{fill:#dec8a8;}</style></defs><path class="cls-1" d="M23,6H9A55.4612,55.4612,0,0,1,6.154,23.5381h0A61.4623,61.4623,0,0,0,3,42.9737V59a4,4,0,0,0,4,4H25a4,4,0,0,0,4-4V42.9737a61.4623,61.4623,0,0,0-3.1539-19.4355h0A55.4612,55.4612,0,0,1,23,6Z"/><path class="cls-2" d="M25.8461,23.5381A55.4585,55.4585,0,0,1,23,6H19a54.3576,54.3576,0,0,0,2.7949,17.2217A62.3458,62.3458,0,0,1,25,42.9736V59a4.9813,4.9813,0,0,1-2.0309,4H25a4,4,0,0,0,4-4V42.9736A61.4628,61.4628,0,0,0,25.8461,23.5381Z"/><rect class="cls-2" x="9" y="6" width="14" height="2"/><path class="cls-3" d="M23.7374,15h0a6.1759,6.1759,0,0,1-7.5714.1245l-.332-.249A6.1759,6.1759,0,0,0,8.2626,15h0A55.4335,55.4335,0,0,1,6.044,23.8645,59.2827,59.2827,0,0,0,3,42.9736V59a4,4,0,0,0,4,4H25a4,4,0,0,0,4-4V42.9736a59.2827,59.2827,0,0,0-3.044-19.1091A55.4335,55.4335,0,0,1,23.7374,15Z"/><rect class="cls-5" x="7" y="2" width="18" height="4" rx="2"/><path class="cls-4" d="M23,2H19a2,2,0,0,1,0,4h4a2,2,0,0,0,0-4Z"/><path d="M24.0162,6.8107A2.993,2.993,0,0,0,23,1H9A2.993,2.993,0,0,0,7.9838,6.8107a54.3423,54.3423,0,0,1-2.7787,16.411A62.3458,62.3458,0,0,0,2,42.9736V59a5.0059,5.0059,0,0,0,5,5H25a5.0059,5.0059,0,0,0,5-5V42.9736a62.3458,62.3458,0,0,0-3.2051-19.7519A54.3428,54.3428,0,0,1,24.0162,6.8107ZM9,3H23a1,1,0,0,1,0,2H9A1,1,0,0,1,9,3ZM22.6547,14.5276a5.162,5.162,0,0,1-5.8886-.2029l-.332-.2495a7.1609,7.1609,0,0,0-6.8915-.94A56.4328,56.4328,0,0,0,9.98,7H22.02A56.3929,56.3929,0,0,0,22.6547,14.5276ZM28,59a3.0033,3.0033,0,0,1-3,3H7a3.0033,3.0033,0,0,1-3-3V42.9736A60.3551,60.3551,0,0,1,7.1025,23.8545a56.4474,56.4474,0,0,0,2.07-8.2658,5.1617,5.1617,0,0,1,6.0614.0866l.332.2495a7.0915,7.0915,0,0,0,7.4489.6872,56.4851,56.4851,0,0,0,1.8827,7.2425A60.3551,60.3551,0,0,1,28,42.9736Z"/></svg>
