<svg height="512" viewBox="0 0 57 60" width="512" xmlns="http://www.w3.org/2000/svg"><g id="Page-1" fill="none" fill-rule="evenodd"><g id="032---Coconut-Milk" transform="translate(-4)"><g id="Icons" transform="translate(0 1)"><path id="Path" d="m58.94 20.53c-.6894694-1.3910365-1.6966159-2.6002975-2.94-3.53-2.5189281-1.8878178-4.0011026-4.8521668-4-8v-5h-11v5c-.0064198 3.1460541-1.4870086 6.1072317-4 8-2.5189281 1.8878178-4.0011026 4.8521668-4 8v1.5l.02 6.49.06 21.78c.3677348 1.8745906 2.0096826 3.2275221 3.92 3.23h19c2.209139 0 4-1.790861 4-4v-29c.0017822-1.5524722-.3613123-3.0836348-1.06-4.47z" fill="#00bcd4"/><path id="Path" d="m58.94 20.53c-.6894694-1.3910365-1.6966159-2.6002975-2.94-3.53-2.5189281-1.8878178-4.0011026-4.8521668-4-8v-5h-3.0000006l.0000006 5c-.0011026 3.1478332 1.4810719 6.1121822 4 8 2.5129914 1.8927683 3.9935802 4.8539459 4 8v29c0 2.209139-1.790861 4-4 4h3c2.209139 0 4-1.790861 4-4v-29c.0017822-1.5524722-.3613123-3.0836348-1.06-4.47z" fill="#00838f"/><path id="Path" d="m60 30v24c0 2.209139-1.790861 4-4 4h-19c-1.9103174-.0024779-3.5522652-1.3554094-3.92-3.23l-.06-21.78c4.48.01 4.48-2.99 8.98-2.99s4.5 3 9 3 4.5-3 9-3z" fill="#f5f5f5"/><path id="Path" d="m57 30.617v23.383c0 2.209139-1.790861 4-4 4h3c2.209139 0 4-1.790861 4-4v-24c-1.0339589-.0257101-2.060108.1853346-3 .617z" fill="#cfd8dc"/><rect id="Rectangle" fill="#00838f" height="4" rx="1" width="15" x="39"/><path id="Path" d="m6.8 48.188c5.153 6.165 16.235 15 27.1 5.917s4.138-21.557-1.014-27.722z" fill="#91562d"/><path id="Path" d="m32.889 26.383-1.809 1.517c4.881 6.53 9.866 17.816-.177 26.21-2.3629844 2.0900452-5.3025147 3.417069-8.433 3.807 4.176763.395182 8.3265878-.988819 11.43-3.812 10.871-9.084 4.141-21.557-1.011-27.722z" fill="#6d4122"/><ellipse id="Oval" cx="19.845" cy="37.285" fill="#ffe0b2" rx="17" ry="9.395" transform="matrix(.767 -.641 .641 .767 -19.293 21.404)"/><path id="Path" d="m32.889 26.383c-1.5-1.79-4.05-2.432-7.058-2.058 1.5630562.152251 3.0116495.8868998 4.058 2.058 3.327 3.981.185 12.09-7.019 18.111-3.3923344 2.994756-7.5511423 4.9863856-12.011 5.752 4.117.582 9.9-1.477 15.011-5.752 7.204-6.021 10.346-14.13 7.019-18.111z" fill="#dfc49c"/><ellipse id="Oval" cx="19.845" cy="37.285" fill="#f5f5f5" rx="13" ry="5.763" transform="matrix(.767 -.641 .641 .767 -19.293 21.404)"/><path id="Path" d="m29.82 28.948c-.876-1.048-2.506-1.318-4.514-.927.5878005.1464004 1.1163578.4700283 1.514.927 2.041 2.442-.77 8.155-6.279 12.759-2.6202984 2.3245724-5.7607763 3.9855241-9.157 4.843 2.761.771 7.661-1.085 12.157-4.843 5.509-4.607 8.32-10.317 6.279-12.759z" fill="#cfd8dc"/></g><g id="Layer_11" transform="translate(4)"><path id="Path" d="m19.887 55.977c-1.4709426-.01129-2.9291846-.2733813-4.312-.775-.3369015-.1191481-.5846465-.4089802-.649912-.7603195-.0652655-.3513392.061864-.7108088.3335-.943s.6465105-.3018286.983412-.1826805c2.6602498 1.02832 5.6353951.8547273 8.158-.476.4898766-.2554317 1.0940683-.0653765 1.3495.4245.2554316.4898766.0653765 1.0940683-.4245 1.3495-1.6746673.8902837-3.5413997 1.3581683-5.438 1.363z" fill="#f5f5f5"/><g fill="#000"><path id="Shape" d="m52.6 17.2c-2.2608195-1.7042182-3.5931172-4.3688135-3.6-7.2v-4c1.1045695 0 2-.8954305 2-2v-2c0-1.1045695-.8954305-2-2-2h-13c-1.1045695 0-2 .8954305-2 2v2c0 1.1045695.8954305 2 2 2v4c-.0068828 2.8311865-1.3391805 5.4957818-3.6 7.2-2.573824 1.9465914-4.1671948 4.9217848-4.361 8.143-4.333-2.6-12.064-.7-18.837 4.967-7.744 6.473-10.883 15.047-7.144 19.519 4.687 5.608 11.165 10.15 17.954 10.15 3.0599046-.0239852 6.0447673-.94995 8.581-2.662.857476 1.6426769 2.5540033 2.6755299 4.407 2.683h19c2.7600532-.0033061 4.9966939-2.2399468 5-5v-29c-.0070462-3.4606632-1.6356972-6.7179651-4.4-8.8zm-16.6-15.2h13v2h-13zm-2.4 16.8c2.7650414-2.0814196 4.3938892-5.3391151 4.4-8.8v-4h9v4c.0082914 3.4603678 1.6366807 6.7171462 4.4 8.8 2.2614339 1.7037066 3.5938951 4.3686289 3.6 7.2v4.053c-1.4726036.1626868-2.8737656.7207329-4.055 1.615-2.3301761 1.7759919-5.5598239 1.7759919-7.89 0-1.4484893-1.1105154-3.2300499-1.6983775-5.055-1.668-1.7619413-.0357081-3.4857269.5155515-4.9 1.567-.9217539-1.5520043-1.9579604-3.0331111-3.1-4.431v-1.136c.0068828-2.8311865 1.3391805-5.4957818 3.6-7.2zm-23.116 13.044c4.328-3.616 9.261-5.621 12.984-5.621 1.7497818-.1299316 3.465806.5305011 4.677 1.8 2.918 3.492-.238 11.141-6.893 16.7-3.0150169 2.6361435-6.6345762 4.486629-10.537 5.387-3.228.627-5.757.07-7.123-1.563-2.918-3.492.238-11.141 6.892-16.703zm-3.224 20.469c.332.03.672.046 1.022.046.94498188-.0052335 1.8872882-.1010045 2.814-.286 4.2340238-.9641512 8.1637613-2.9607973 11.439-5.812 5.185-4.334 8.291-9.605 8.665-13.961.224.369.445.754.664 1.151.01.018.009.038.02.056s.02.018.027.029c3.131 5.723 5.365 14.123-2.625 20.8-8.586 7.176-17.037 2.385-22.026-2.023zm44.74 5.687h-19c-1.2163406-.0037457-2.3100377-.7415666-2.769-1.868.112-.09.225-.166.337-.26 7.761-6.487 7.3-15.067 3.5-22.546 2.3286019-1.7718843 5.5540991-1.7694284 7.88.006 3.0030967 2.2239282 7.1069033 2.2239282 10.11 0 .8583939-.6623012 1.8705152-1.0964606 2.942-1.262v22.93c0 1.6568542-1.3431458 3-3 3z" fill-rule="nonzero"/><path id="Shape" d="m8.781 48.724c.99066081-.0160629 1.9743297-.1691828 2.923-.455 3.1275553-1.0086148 6.0188378-2.6392981 8.5-4.794 6.124-5.119 8.877-11.209 6.405-14.168-2.472-2.958-8.955-1.329-15.079 3.79-2.5613737 2.0594092-4.67925525 4.6161065-6.226 7.516-1.371 2.786-1.434 5.148-.179 6.651.9344989 1.0154799 2.27906668 1.5524244 3.656 1.46zm-1.681-7.224c1.42354096-2.6493636 3.3669818-4.9842816 5.714-6.865 3.87-3.234 7.721-4.789 10.136-4.789.7842068-.0747034 1.5617122.1983556 2.127.747 1.445 1.729-.727 6.816-6.153 11.351-2.2666025 1.977297-4.9095363 3.4759799-7.77 4.406-2.146.616-3.783.483-4.492-.365s-.549-2.485.438-4.485z" fill-rule="nonzero"/><path id="Path" d="m29.767 44.359c-.2592876-.310517-.6801189-.434227-1.0661992-.3134261-.3860802.1208009-.6613477.4623137-.6974051.8652413-.0360575.4029277.1741988.7878893.5326957.9753214s.794607.1404086 1.1049086-.1191366c.4233827-.3541294.4797779-.9843235.126-1.408z"/><path id="Path" d="m32.641 44.767c.310517-.2592876.434227-.6801189.3134261-1.0661992-.1208009-.3860802-.4623137-.6613477-.8652413-.6974051-.4029277-.0360575-.7878893.1741988-.9753214.5326957s-.1404086.794607.1191366 1.1049086c.3541294.4233827.9843235.4797779 1.408.126z"/><path id="Path" d="m31.641 48.767c.310517-.2592876.434227-.6801189.3134261-1.0661992-.1208009-.3860802-.4623137-.6613477-.8652413-.6974051-.4029277-.0360575-.7878893.1741988-.9753214.5326957s-.1404086.794607.1191366 1.1049086c.3541294.4233827.9843235.4797779 1.408.126z"/><path id="Path" d="m52 50c-.5522847 0-1 .4477153-1 1v3h-3c-.5522847 0-1 .4477153-1 1s.4477153 1 1 1h4c.5522847 0 1-.4477153 1-1v-4c0-.5522847-.4477153-1-1-1z"/></g></g></g></g></svg>