<svg version="1.1" id="Capa_1" xmlns="http://www.w3.org/2000/svg" xmlns:xlink="http://www.w3.org/1999/xlink" x="0px" y="0px" viewBox="0 0 512 512" style="enable-background:new 0 0 512 512;" xml:space="preserve">
<g>
	<g>
		<g>
			<g>
				<path style="fill:#FFE7D7;" d="M162.308,48.546V92.58c0,0-62.436,4.084-62.436,79.004V433.6&#10;&#9;&#9;&#9;&#9;&#9;c0,30.97,22.223,57.437,52.711,62.879c24.54,4.38,58.46,8.021,103.417,8.021s78.877-3.641,103.417-8.021&#10;&#9;&#9;&#9;&#9;&#9;c30.488-5.442,52.711-31.909,52.711-62.879V171.584c0-74.92-62.436-79.004-62.436-79.004V48.546H162.308z"/>
				<path style="fill:#FCCA9F;" d="M349.689,92.583V92.58h0.003V48.546h-0.003v-0.002l-187.381,0.002v36.129h137.977&#10;&#9;&#9;&#9;&#9;&#9;c5.457,0,9.881,4.424,9.881,9.881v9.495c0,4.589,3.186,8.535,7.656,9.577c16.672,3.89,54.781,19.184,54.781,77.712v250.16&#10;&#9;&#9;&#9;&#9;&#9;c0,26.065-15.73,48.929-38.871,58.77c9.505-1.136,18.052-2.431,25.69-3.794c30.482-5.444,52.704-31.905,52.704-62.881V171.579&#10;&#9;&#9;&#9;&#9;&#9;C412.125,96.664,349.689,92.583,349.689,92.583z"/>
				<path style="fill:#64B9FC;" d="M412.125,230.332v105.842c0,0-43.307,22.923-156.125,22.923S99.875,336.175,99.875,336.175&#10;&#9;&#9;&#9;&#9;&#9;V230.332c0,0,43.307,22.923,156.125,22.923S412.125,230.332,412.125,230.332z"/>
				<path style="fill:#1C96F9;" d="M372.602,348.476c27.602-5.997,39.523-12.301,39.523-12.301V230.332&#10;&#9;&#9;&#9;&#9;&#9;c0,0-11.921,6.305-39.523,12.301V348.476z"/>
				<g>
					<path style="fill:#64B9FC;" d="M356.607,54.046H155.393c-5.507,0-9.972-4.465-9.972-9.972V17.472&#10;&#9;&#9;&#9;&#9;&#9;&#9;c0-5.507,4.465-9.972,9.972-9.972h201.214c5.507,0,9.972,4.465,9.972,9.972v26.602&#10;&#9;&#9;&#9;&#9;&#9;&#9;C366.579,49.581,362.114,54.046,356.607,54.046z"/>
				</g>
				<g>
					<path style="fill:#1C96F9;" d="M366.58,17.47v26.6c0,5.51-4.47,9.98-9.97,9.98h-40c5.5,0,9.97-4.47,9.97-9.98v-26.6&#10;&#9;&#9;&#9;&#9;&#9;&#9;c0-5.51-4.47-9.97-9.97-9.97h40C362.11,7.5,366.58,11.96,366.58,17.47z"/>
				</g>
			</g>
			<g>
				<ellipse style="fill:#C86F5C;" cx="256" cy="290.045" rx="101.091" ry="121.381"/>
				<path style="fill:#BA5D4F;" d="M357.09,290.04c0,67.04-45.26,121.39-101.09,121.39c-6.49,0-12.85-0.74-19-2.15&#10;&#9;&#9;&#9;&#9;&#9;c46.75-10.66,82.09-60,82.09-119.24c0-59.23-35.34-108.57-82.09-119.23c6.15-1.41,12.51-2.15,19-2.15&#10;&#9;&#9;&#9;&#9;&#9;C311.83,168.66,357.09,223.01,357.09,290.04z"/>
			</g>
		</g>
		<g>
			<g>
				<g>
					<g>
						<g>
							<path style="fill:#FCCA9F;" d="M293.99,229.366c2.025,0.402,3.599,1.976,4.001,4.001c2.072,10.431-0.93,21.669-9.015,29.753&#10;&#9;&#9;&#9;&#9;&#9;&#9;&#9;&#9;c-8.084,8.084-19.322,11.087-29.753,9.015c-2.025-0.402-3.599-1.976-4.001-4.001c-2.072-10.431,0.931-21.669,9.015-29.753&#10;&#9;&#9;&#9;&#9;&#9;&#9;&#9;&#9;C272.322,230.297,283.56,227.295,293.99,229.366z"/>
						</g>
					</g>
					<g>
						<g>
							<path style="fill:#FFE7D7;" d="M218.01,229.366c-2.025,0.402-3.599,1.976-4.001,4.001&#10;&#9;&#9;&#9;&#9;&#9;&#9;&#9;&#9;c-2.072,10.431,0.93,21.669,9.015,29.753c8.084,8.084,19.322,11.087,29.753,9.015c2.025-0.402,3.599-1.976,4.001-4.001&#10;&#9;&#9;&#9;&#9;&#9;&#9;&#9;&#9;c2.072-10.431-0.93-21.669-9.015-29.753C239.678,230.297,228.44,227.295,218.01,229.366z"/>
						</g>
					</g>
				</g>
				<g>
					<g>
						<g>
							<path style="fill:#FCCA9F;" d="M218.01,260.882c-2.025,0.402-3.599,1.976-4.001,4.001&#10;&#9;&#9;&#9;&#9;&#9;&#9;&#9;&#9;c-2.072,10.431,0.93,21.669,9.015,29.753c8.084,8.084,19.322,11.087,29.753,9.015c2.025-0.402,3.599-1.976,4.001-4.001&#10;&#9;&#9;&#9;&#9;&#9;&#9;&#9;&#9;c2.072-10.431-0.93-21.669-9.015-29.753C239.678,261.812,228.44,258.81,218.01,260.882z"/>
						</g>
					</g>
					<g>
						<g>
							<path style="fill:#FFE7D7;" d="M293.99,260.882c2.025,0.402,3.599,1.976,4.001,4.001c2.072,10.431-0.93,21.669-9.015,29.753&#10;&#9;&#9;&#9;&#9;&#9;&#9;&#9;&#9;c-8.084,8.084-19.322,11.087-29.753,9.015c-2.025-0.402-3.599-1.976-4.001-4.001c-2.072-10.431,0.931-21.669,9.015-29.753&#10;&#9;&#9;&#9;&#9;&#9;&#9;&#9;&#9;C272.322,261.812,283.56,258.81,293.99,260.882z"/>
						</g>
					</g>
				</g>
				<g>
					<g>
						<g>
							<path style="fill:#FCCA9F;" d="M293.99,294.856c2.025,0.402,3.599,1.976,4.001,4.001c2.072,10.431-0.93,21.669-9.015,29.753&#10;&#9;&#9;&#9;&#9;&#9;&#9;&#9;&#9;c-8.084,8.084-19.322,11.087-29.753,9.015c-2.025-0.402-3.599-1.976-4.001-4.001c-2.072-10.431,0.931-21.669,9.015-29.753&#10;&#9;&#9;&#9;&#9;&#9;&#9;&#9;&#9;C272.322,295.787,283.56,292.784,293.99,294.856z"/>
						</g>
					</g>
					<g>
						<g>
							<path style="fill:#FFE7D7;" d="M218.01,294.856c-2.025,0.402-3.599,1.976-4.001,4.001&#10;&#9;&#9;&#9;&#9;&#9;&#9;&#9;&#9;c-2.072,10.431,0.93,21.669,9.015,29.753c8.084,8.084,19.322,11.087,29.753,9.015c2.025-0.402,3.599-1.976,4.001-4.001&#10;&#9;&#9;&#9;&#9;&#9;&#9;&#9;&#9;c2.072-10.431-0.93-21.669-9.015-29.753C239.678,295.787,228.44,292.784,218.01,294.856z"/>
						</g>
					</g>
				</g>
			</g>
		</g>
	</g>
	<g>
		<g>
			<g>
				<path style="fill:none;stroke:#000000;stroke-width:15;stroke-linecap:round;stroke-linejoin:round;stroke-miterlimit:10;" d="&#10;&#9;&#9;&#9;&#9;&#9;M352.29,246.442c42.166-6.757,59.835-16.11,59.835-16.11"/>
				<path style="fill:none;stroke:#000000;stroke-width:15;stroke-linecap:round;stroke-linejoin:round;stroke-miterlimit:10;" d="&#10;&#9;&#9;&#9;&#9;&#9;M99.875,230.332c0,0,17.669,9.353,59.837,16.11"/>
				<path style="fill:none;stroke:#000000;stroke-width:15;stroke-linecap:round;stroke-linejoin:round;stroke-miterlimit:10;" d="&#10;&#9;&#9;&#9;&#9;&#9;M168.186,353.558c-48.287-6.784-68.312-17.383-68.312-17.383"/>
				<path style="fill:none;stroke:#000000;stroke-width:15;stroke-linecap:round;stroke-linejoin:round;stroke-miterlimit:10;" d="&#10;&#9;&#9;&#9;&#9;&#9;M412.125,336.175c0,0-19.813,10.487-67.548,17.275"/>
				<path style="fill:none;stroke:#000000;stroke-width:15;stroke-linecap:round;stroke-linejoin:round;stroke-miterlimit:10;" d="&#10;&#9;&#9;&#9;&#9;&#9;M162.308,55.28v37.3c0,0-62.436,4.084-62.436,79.004v195.58"/>
				<path style="fill:none;stroke:#000000;stroke-width:15;stroke-linecap:round;stroke-linejoin:round;stroke-miterlimit:10;" d="&#10;&#9;&#9;&#9;&#9;&#9;M99.872,399.341V433.6c0,30.97,22.223,57.437,52.711,62.879c24.54,4.38,58.46,8.021,103.417,8.021s78.877-3.641,103.417-8.021&#10;&#9;&#9;&#9;&#9;&#9;c30.488-5.442,52.711-31.909,52.711-62.879V171.584c0-74.92-62.436-79.004-62.436-79.004v-37.3"/>
				<g>
					<path style="fill:none;stroke:#000000;stroke-width:15;stroke-linecap:round;stroke-linejoin:round;stroke-miterlimit:10;" d="&#10;&#9;&#9;&#9;&#9;&#9;&#9;M315.943,54.046h40.664c5.507,0,9.972-4.465,9.972-9.972V17.472c0-5.507-4.465-9.972-9.972-9.972H155.393&#10;&#9;&#9;&#9;&#9;&#9;&#9;c-5.507,0-9.972,4.465-9.972,9.972v26.602c0,5.507,4.465,9.972,9.972,9.972h128.372"/>
				</g>
			</g>
			<g>
				<path style="fill:none;stroke:#000000;stroke-width:15;stroke-linecap:round;stroke-linejoin:round;stroke-miterlimit:10;" d="&#10;&#9;&#9;&#9;&#9;&#9;M328.289,374.883c17.816-21.883,28.802-51.818,28.802-84.838c0-67.037-45.26-121.382-101.091-121.382&#10;&#9;&#9;&#9;&#9;&#9;s-101.091,54.344-101.091,121.382S200.169,411.426,256,411.426c17.655,0,34.251-5.44,48.695-14.992"/>
			</g>
		</g>
		<g>
			
				<line style="fill:none;stroke:#000000;stroke-width:15;stroke-linecap:round;stroke-linejoin:round;stroke-miterlimit:10;" x1="255.974" y1="337.661" x2="255.974" y2="368.213"/>
			
				<line style="fill:none;stroke:#000000;stroke-width:15;stroke-linecap:round;stroke-linejoin:round;stroke-miterlimit:10;" x1="255.974" y1="226.996" x2="255.974" y2="249.848"/>
			<path style="fill:none;stroke:#000000;stroke-width:15;stroke-linecap:round;stroke-linejoin:round;stroke-miterlimit:10;" d="&#10;&#9;&#9;&#9;&#9;M277.482,206.698"/>
			<g>
				<g>
					<g>
						<g>
							
								<path style="fill:none;stroke:#000000;stroke-width:15;stroke-linecap:round;stroke-linejoin:round;stroke-miterlimit:10;" d="&#10;&#9;&#9;&#9;&#9;&#9;&#9;&#9;&#9;M256.214,251.433c1.556-4.772,4.231-9.259,8.024-13.052c8.084-8.084,19.322-11.087,29.753-9.015&#10;&#9;&#9;&#9;&#9;&#9;&#9;&#9;&#9;c2.025,0.402,3.599,1.976,4.001,4.001c1.812,9.124-0.258,18.866-6.216,26.574"/>
						</g>
					</g>
					<g>
						<g>
							
								<path style="fill:none;stroke:#000000;stroke-width:15;stroke-linecap:round;stroke-linejoin:round;stroke-miterlimit:10;" d="&#10;&#9;&#9;&#9;&#9;&#9;&#9;&#9;&#9;M252.776,272.136c2.025-0.402,3.599-1.976,4.001-4.001c2.072-10.431-0.93-21.669-9.015-29.753&#10;&#9;&#9;&#9;&#9;&#9;&#9;&#9;&#9;c-8.084-8.084-19.322-11.087-29.753-9.015c-2.025,0.402-3.599,1.976-4.001,4.001c-1.813,9.127,0.259,18.872,6.221,26.581"/>
						</g>
					</g>
				</g>
				<g>
					<g>
						<g>
							
								<path style="fill:none;stroke:#000000;stroke-width:15;stroke-linecap:round;stroke-linejoin:round;stroke-miterlimit:10;" d="&#10;&#9;&#9;&#9;&#9;&#9;&#9;&#9;&#9;M248.834,304.19c1.321-0.1,2.638-0.28,3.942-0.539c2.025-0.402,3.599-1.976,4.001-4.001&#10;&#9;&#9;&#9;&#9;&#9;&#9;&#9;&#9;c2.072-10.431-0.93-21.669-9.015-29.753c-8.084-8.084-19.322-11.087-29.753-9.015c-2.025,0.402-3.599,1.976-4.001,4.001&#10;&#9;&#9;&#9;&#9;&#9;&#9;&#9;&#9;c-1.998,10.058,0.722,20.867,8.168,28.875"/>
						</g>
					</g>
					<g>
						<g>
							
								<path style="fill:none;stroke:#000000;stroke-width:15;stroke-linecap:round;stroke-linejoin:round;stroke-miterlimit:10;" d="&#10;&#9;&#9;&#9;&#9;&#9;&#9;&#9;&#9;M256.213,282.952c1.556-4.773,4.231-9.261,8.024-13.055c8.084-8.084,19.322-11.087,29.753-9.015&#10;&#9;&#9;&#9;&#9;&#9;&#9;&#9;&#9;c2.025,0.402,3.599,1.976,4.001,4.001c1.998,10.058-0.722,20.867-8.167,28.874"/>
						</g>
					</g>
				</g>
				<g>
					<g>
						<g>
							
								<path style="fill:none;stroke:#000000;stroke-width:15;stroke-linecap:round;stroke-linejoin:round;stroke-miterlimit:10;" d="&#10;&#9;&#9;&#9;&#9;&#9;&#9;&#9;&#9;M256.211,316.93c1.556-4.775,4.231-9.265,8.026-13.06c8.084-8.084,19.322-11.087,29.753-9.015&#10;&#9;&#9;&#9;&#9;&#9;&#9;&#9;&#9;c2.025,0.402,3.599,1.976,4.001,4.001c2.072,10.431-0.93,21.669-9.015,29.753c-8.084,8.084-19.322,11.087-29.753,9.015&#10;&#9;&#9;&#9;&#9;&#9;&#9;&#9;&#9;c-1.128-0.224-2.117-0.812-2.84-1.639"/>
						</g>
					</g>
					<g>
						<g>
							
								<path style="fill:none;stroke:#000000;stroke-width:15;stroke-linecap:round;stroke-linejoin:round;stroke-miterlimit:10;" d="&#10;&#9;&#9;&#9;&#9;&#9;&#9;&#9;&#9;M218.01,294.856c-2.025,0.402-3.599,1.976-4.001,4.001c-2.072,10.431,0.93,21.669,9.015,29.753&#10;&#9;&#9;&#9;&#9;&#9;&#9;&#9;&#9;c8.084,8.084,19.322,11.087,29.753,9.015c2.025-0.402,3.599-1.976,4.001-4.001c2.072-10.431-0.93-21.669-9.015-29.753&#10;&#9;&#9;&#9;&#9;&#9;&#9;&#9;&#9;C239.678,295.787,228.44,292.784,218.01,294.856z"/>
						</g>
					</g>
				</g>
			</g>
		</g>
	</g>
</g>
<g>
</g>
<g>
</g>
<g>
</g>
<g>
</g>
<g>
</g>
<g>
</g>
<g>
</g>
<g>
</g>
<g>
</g>
<g>
</g>
<g>
</g>
<g>
</g>
<g>
</g>
<g>
</g>
<g>
</g>
</svg>