<svg id="Capa_1" enable-background="new 0 0 512 512" height="512" viewBox="0 0 512 512" width="512" xmlns="http://www.w3.org/2000/svg"><g><g><path d="m368.624 504h-225.248c-8.284 0-15-6.716-15-15v-423.317c0-8.284 6.716-15 15-15h225.248c8.284 0 15 6.716 15 15v423.317c0 8.284-6.716 15-15 15z" fill="#eef5ff"/><path d="m143.376 504h225.248c8.284 0 15-6.716 15-15v-338.794s-44.331-12.921-103.492 25.222c-41.871 26.996-91.135 28.297-151.756-4.225v317.797c0 8.284 6.716 15 15 15z" fill="#b2e5fb"/><path d="m368.624 486h-225.248c-8.284 0-15-6.716-15-15v18c0 8.284 6.716 15 15 15h225.248c8.284 0 15-6.716 15-15v-18c0 8.284-6.716 15-15 15z" fill="#9ec8fc"/><path d="m252.519 50.683h-85.931v-27.67c0-8.292 6.721-15.013 15.012-15.013h55.907c8.291 0 15.012 6.721 15.012 15.012z" fill="#b2e5fb"/><path d="m166.588 32.683h85.931v18h-85.931z" fill="#9ec8fc"/><g><g><path d="m249.14 236.161c3.932-3.244 9.788-3.244 13.72 0 11.755 9.699 34.496 35.183 34.496 87.182 0 31.181-18.516 49.904-41.356 49.904s-41.356-18.723-41.356-49.904c0-52 22.741-77.483 34.496-87.182z" fill="#c38778"/></g></g><path d="m256 355.246c-21.029 0-38.378-15.88-41.001-42.732-.224 3.479-.355 7.077-.355 10.828 0 31.181 18.516 49.904 41.356 49.904s41.356-18.723 41.356-49.904c0-3.751-.131-7.349-.355-10.828-2.622 26.852-19.972 42.732-41.001 42.732z" fill="#9a695e"/></g><g><path d="m181.508 496.971h-38.352c-4.144 0-7.515-3.371-7.515-7.515v-306.179c27.367 13.13 53.381 19.76 77.6 19.76 3.462 0 6.89-.135 10.278-.406 4.137-.331 7.222-3.953 6.891-8.09-.332-4.136-3.936-7.217-8.091-6.891-26.223 2.096-55.372-5.021-86.678-21.154v-101.186c0-4.144 3.371-7.515 7.515-7.515h23.257 86.1 55.494c4.151 0 7.515-3.365 7.515-7.515s-3.364-7.515-7.515-7.515h-47.979v-20.21c-.001-12.436-10.12-22.555-22.557-22.555h-56.016c-12.437 0-22.557 10.119-22.557 22.556v20.21h-15.743c-12.431 0-22.544 10.113-22.544 22.544v424.146c0 12.431 10.113 22.544 22.544 22.544h38.352c4.151 0 7.515-3.364 7.515-7.515s-3.364-7.514-7.514-7.514zm-7.58-474.415c0-4.15 3.377-7.527 7.527-7.527h56.016c4.151 0 7.527 3.377 7.527 7.527v20.21h-71.07z"/><path d="m391.388 65.31c0-12.431-10.113-22.544-22.544-22.544h-30.779c-4.151 0-7.515 3.364-7.515 7.515 0 4.15 3.364 7.515 7.515 7.515h30.779c4.144 0 7.515 3.371 7.515 7.515v75.722c-16.901-1.971-54.404-1.636-100.252 27.923-8.483 5.47-17.302 9.812-26.21 12.906-3.92 1.362-5.994 5.643-4.633 9.564 1.078 3.105 3.987 5.051 7.099 5.051.817 0 1.65-.135 2.466-.418 10.036-3.485 19.935-8.354 29.424-14.472 43.741-28.202 79.046-27.108 92.108-25.359v333.228c0 4.144-3.371 7.515-7.515 7.515h-157.28c-4.151 0-7.515 3.365-7.515 7.515s3.364 7.515 7.515 7.515h157.278c12.431 0 22.544-10.113 22.544-22.544z"/><path d="m273.249 96.231c0-4.15-3.364-7.515-7.515-7.515h-99.321c-4.151 0-7.515 3.364-7.515 7.515s3.364 7.515 7.515 7.515h99.321c4.15-.001 7.515-3.365 7.515-7.515z"/><path d="m166.413 120.694c-4.151 0-7.515 3.365-7.515 7.515s3.364 7.515 7.515 7.515h43.05c4.151 0 7.515-3.365 7.515-7.515s-3.364-7.515-7.515-7.515z"/><path d="m345.587 453.242h-79.853c-4.151 0-7.515 3.365-7.515 7.515s3.364 7.515 7.515 7.515h79.853c4.151 0 7.515-3.365 7.515-7.515 0-4.151-3.364-7.515-7.515-7.515z"/><path d="m345.587 421.263h-79.853c-4.151 0-7.515 3.364-7.515 7.515s3.364 7.515 7.515 7.515h79.853c4.151 0 7.515-3.364 7.515-7.515s-3.364-7.515-7.515-7.515z"/><path d="m267.657 230.326c-6.755-5.573-16.558-5.573-23.313-.001-13.929 11.493-37.294 38.876-37.294 93.149 0 16.762 4.838 31.167 13.988 41.657 8.795 10.082 20.988 15.686 34.383 15.845.2.01.394.015.58.015s.38-.005.58-.015c13.395-.158 25.588-5.763 34.383-15.845 9.151-10.49 13.988-24.894 13.988-41.657-.001-54.272-23.367-81.656-37.295-93.148zm-11.657 134.751c-2.386-3.489-6.975-15.03-6.975-41.603 0-34.482 3.57-56.883 6.975-70.402 3.405 13.519 6.975 35.92 6.975 70.402 0 26.574-4.589 38.114-6.975 41.603zm-33.922-41.603c0-31.027 8.297-51.864 17.377-65.389-2.999 14.978-5.46 36.165-5.46 65.389 0 16.608 1.576 28.47 3.935 36.932-9.894-6.99-15.852-20.137-15.852-36.932zm51.991 36.932c2.359-8.461 3.935-20.324 3.935-36.932 0-29.225-2.461-50.411-5.46-65.389 9.08 13.525 17.377 34.362 17.377 65.389.001 16.795-5.957 29.942-15.852 36.932z"/></g></g></svg>