<svg enable-background="new 0 0 512 512" viewBox="0 0 512 512" xmlns="http://www.w3.org/2000/svg"><g id="_x32_7_Creams"><g><path d="m186.375 446.244v27.898c0 12.86 10.425 23.285 23.285 23.285h92.679c12.86 0 23.285-10.425 23.285-23.285v-27.898z" fill="#f7d100"/><path d="m244.653 497.427h-35.007c-12.844 0-23.273-10.43-23.273-23.274v-27.909h35.007v27.909c-.001 12.844 10.381 23.274 23.273 23.274z" fill="#fff" opacity=".4"/><path d="m279.901 446.244v1.69c0 13.2-10.701 23.901-23.901 23.901-13.2 0-23.901-10.701-23.901-23.901v-1.69z" fill="#6097f4"/><g><path d="m325.627 409.741v64.412c0 12.844-10.43 23.274-23.273 23.274h-92.708c-12.844 0-23.273-10.43-23.273-23.274v-64.412z" fill="#fdfdff"/><path d="m325.627 409.741v17.769c-3.332.724-6.76 1.062-10.237 1.062h-118.781c-3.476 0-6.905-.338-10.236-1.062v-17.769z" opacity=".1"/><path d="m397.623 64.209-45.846 317.988c-2.4 18.251-17.956 31.895-36.364 31.895h-118.827c-18.408 0-33.964-13.644-36.364-31.895l-45.845-317.988z" fill="#f55766"/><path d="m340.112 404.527c-6.567 5.987-15.258 9.56-24.722 9.56h-118.781c-18.445 0-33.993-13.617-36.407-31.868l-45.823-318.006h55.286l44.422 308.445c2.414 18.252 17.962 31.869 36.407 31.869z" fill="#fff" opacity=".4"/><path d="m397.622 29.002v35.206h-283.245v-35.206c0-7.968 6.459-14.427 14.427-14.427h254.393c7.967.001 14.425 6.46 14.425 14.427z" fill="#fdfdff"/><ellipse cx="256" cy="239.151" fill="#fdfdff" rx="64.316" ry="95.604"/><g fill="#000"><path d="m402.452 29.003c0-10.619-8.639-19.257-19.255-19.257h-254.393c-10.617 0-19.255 8.639-19.255 19.257v35.205c0 .128.063.235.073.361.008.111-.039.217-.023.328l45.836 317.927c2.018 15.344 12.374 27.866 26.114 33.247v30.174 27.896c0 15.499 12.611 28.113 28.113 28.113h92.678.002c15.502 0 28.113-12.614 28.113-28.113v-27.896-30.173c13.738-5.378 24.091-17.888 26.102-33.187l45.847-317.989c.016-.111-.032-.217-.023-.328.01-.126.073-.233.073-.361v-35.204zm-81.656 445.138c0 1.272-.129 2.514-.376 3.715-1.724 8.402-9.177 14.741-18.082 14.741h-92.678c-10.176 0-18.456-8.28-18.456-18.456v-23.067h36.245c1.57 14.37 13.771 25.59 28.551 25.59s26.978-11.22 28.548-25.59h36.248zm-83.61-23.067h37.626c-1.502 9.03-9.365 15.933-18.812 15.933s-17.312-6.903-18.814-15.933zm83.61-9.657h-40.896-47.802-40.894v-22.891c1.769.233 3.558.394 5.383.394h118.827c1.825 0 3.613-.161 5.383-.394v22.891zm26.191-59.847c-2.075 15.787-15.65 27.693-31.574 27.693h-118.826c-15.926 0-29.502-11.906-31.586-27.755l-45.05-312.472h272.099zm45.808-322.19h-273.59v-30.377c0-5.295 4.305-9.6 9.598-9.6h254.393c5.293 0 9.598 4.305 9.598 9.6v30.377z"/><path d="m256 339.584c38.126 0 69.143-45.055 69.143-100.432s-31.017-100.432-69.143-100.432c-38.128 0-69.146 45.055-69.146 100.432s31.018 100.432 69.146 100.432zm0-191.207c32.8 0 59.486 40.722 59.486 90.775s-26.686 90.775-59.486 90.775c-32.802 0-59.489-40.722-59.489-90.775s26.687-90.775 59.489-90.775z"/></g></g></g></g><g id="Layer_1"/></svg>