<svg height="512" viewBox="0 0 64 64" width="512" xmlns="http://www.w3.org/2000/svg"><g id="_27-milk_bottle" data-name="27-milk bottle"><path d="m43 63a6 6 0 0 0 6-6v-30a15.373 15.373 0 0 0 -2.432-7.243l-5.368-7.157a6 6 0 0 1 -1.2-3.6v-4h-16v4a6 6 0 0 1 -1.2 3.6l-5.368 7.157a15.373 15.373 0 0 0 -2.432 7.243v30a6 6 0 0 0 6 6z" fill="#f8ead3"/><path d="m15 27h34v30h-34z" fill="#32addb"/><path d="m24 1h16a2 2 0 0 1 2 2v2a0 0 0 0 1 0 0h-20a0 0 0 0 1 0 0v-2a2 2 0 0 1 2-2z" fill="#32addb"/><g fill="#f8ead3"><path d="m26 38a7.1 7.1 0 0 1 -4-8l7 6z"/><path d="m26 38s-5-2-7 2c0 0 5 4 7-2z"/><path d="m38 38a7.1 7.1 0 0 0 4-8l-7 6z"/><path d="m38 38s5-2 7 2c0 0-5 4-7-2z"/></g><path d="m25 49s-6-15 7-15 7 15 7 15z" fill="#f7f7f7"/><path d="m32 34c-1 11 7 15 7 15s6-15-7-15z" fill="#47323b"/><ellipse cx="32" cy="49" fill="#ffc19e" rx="7" ry="5"/><path d="m47.368 19.157-5.368-7.157a5.023 5.023 0 0 1 -1-3v-3h1a1 1 0 0 0 1-1v-2a3 3 0 0 0 -3-3h-16a3 3 0 0 0 -3 3v2a1 1 0 0 0 1 1h1v3a5.028 5.028 0 0 1 -1 3l-5.411 7.219a16.388 16.388 0 0 0 -2.589 7.781v30a7.008 7.008 0 0 0 7 7h22a7.008 7.008 0 0 0 7-7v-30a16.44 16.44 0 0 0 -2.632-7.843zm-24.368-16.157a1 1 0 0 1 1-1h16a1 1 0 0 1 1 1v1h-18zm-4.768 17.356 5.368-7.156a7.045 7.045 0 0 0 1.4-4.2v-3h14v3a7.039 7.039 0 0 0 1.4 4.2l5.325 7.1a15.678 15.678 0 0 1 2.188 5.7h-31.826a15.6 15.6 0 0 1 2.145-5.644zm-2.232 35.644v-28h32v28zm27 6h-22a5.009 5.009 0 0 1 -4.9-4h31.8a5.009 5.009 0 0 1 -4.9 4z"/><path d="m26.566 14.254a1 1 0 0 0 1.335-.466 11.243 11.243 0 0 0 .589-1.488 1 1 0 1 0 -1.907-.6 9.189 9.189 0 0 1 -.484 1.22 1 1 0 0 0 .467 1.334z"/><path d="m20.729 23.026a1 1 0 0 0 .8-.4l4.521-6.026a1 1 0 1 0 -1.6-1.2l-4.52 6.027a1 1 0 0 0 .8 1.6z"/><path d="m45.894 39.553a5.319 5.319 0 0 0 -4.469-3.008 8.207 8.207 0 0 0 1.561-6.709 1 1 0 0 0 -1.637-.595l-5.149 4.415a12.494 12.494 0 0 0 -4.2-.656 12.494 12.494 0 0 0 -4.2.656l-5.15-4.415a1 1 0 0 0 -1.637.595 8.212 8.212 0 0 0 1.56 6.709 5.319 5.319 0 0 0 -4.468 3.008 1 1 0 0 0 .27 1.228 7.312 7.312 0 0 0 4.038 1.525c.071 0 .143-.008.214-.011a22.67 22.67 0 0 0 1.387 6.931c.162 3.204 3.677 5.774 7.986 5.774s7.824-2.57 7.985-5.774a22.67 22.67 0 0 0 1.387-6.926c.071 0 .143.011.214.011a7.312 7.312 0 0 0 4.038-1.525 1 1 0 0 0 .27-1.233zm-7.02 6.394a7.88 7.88 0 0 0 -4.053-2.554 15.112 15.112 0 0 1 -1.88-8.358c2.5.166 4.292 1.008 5.317 2.518 1.608 2.372 1.19 5.947.616 8.394zm-13.748 0c-.574-2.444-.992-6.022.616-8.394 1.009-1.486 2.754-2.329 5.2-2.514a17.456 17.456 0 0 0 1.451 7.976c-.133-.005-.261-.015-.393-.015a8.773 8.773 0 0 0 -6.874 2.947zm15.983-13.867a5.786 5.786 0 0 1 -1.692 3.72 6.948 6.948 0 0 0 -1.292-1.163zm-15.234 2.558a6.948 6.948 0 0 0 -1.292 1.162 5.786 5.786 0 0 1 -1.692-3.721zm-5.494 5.062a3.487 3.487 0 0 1 2.724-1.176 10.242 10.242 0 0 0 -.378 1.754 4.081 4.081 0 0 1 -2.346-.578zm11.619 13.3c-3.252 0-6-1.832-6-4s2.748-4 6-4 6 1.832 6 4-2.748 4-6 4zm9.273-12.725a10.263 10.263 0 0 0 -.378-1.754 3.491 3.491 0 0 1 2.724 1.179 4.091 4.091 0 0 1 -2.346.575z"/><path d="m27 40h2v2h-2z"/><path d="m35 40h2v2h-2z"/><path d="m29 48h2v2h-2z"/><path d="m33 48h2v2h-2z"/></g></svg>