<?xml version="1.0" encoding="UTF-8" standalone="no"?>
<!-- Created with Inkscape (http://www.inkscape.org/) -->

<svg
   version="1.1"
   id="svg6861"
   xml:space="preserve"
   width="682.66669"
   height="682.66669"
   viewBox="0 0 682.66669 682.66669"
   xmlns="http://www.w3.org/2000/svg"
   xmlns:svg="http://www.w3.org/2000/svg"><defs
     id="defs6865"><clipPath
       clipPathUnits="userSpaceOnUse"
       id="clipPath6875"><path
         d="M 0,512 H 512 V 0 H 0 Z"
         id="path6873" /></clipPath></defs><g
     id="g6867"
     transform="matrix(1.3333333,0,0,-1.3333333,0,682.66667)"><g
       id="g6869"><g
         id="g6871"
         clip-path="url(#clipPath6875)"><g
           id="g6877"
           transform="translate(468.0366,289.7217)"><path
             d="m 0,0 c 0,0 1.392,53.98 -50.819,63.873 0,76.391 -52.603,126.166 -83.874,143.159 -10.956,5.953 -24.475,3.193 -32.48,-6.457 -12.656,-15.254 -40.686,-35.993 -101.008,-41.195 C -366.502,150.9 -369.654,97.277 -369.654,97.277 -425.517,78.435 -420.473,0 -420.473,0 Z"
             style="fill:#fff3d7;fill-opacity:1;fill-rule:nonzero;stroke:none"
             id="path6879" /></g><g
           id="g6881"
           transform="translate(122.1421,371.832)"><path
             d="m 0,0 c 0,0 3.152,53.622 101.473,62.102 60.322,5.202 88.353,25.942 101.008,41.196 7.121,8.582 18.599,11.698 28.76,8.097 -7.122,5.707 -13.982,10.235 -20.04,13.527 -10.956,5.954 -24.474,3.192 -32.48,-6.456 C 166.065,103.211 138.036,82.472 77.713,77.27 -20.608,68.79 -23.76,15.167 -23.76,15.167 -79.622,-3.676 -74.579,-82.11 -74.579,-82.11 h 24.006 C -48.928,-58.341 -40.365,-13.616 0,0"
             style="fill:#f9dbaa;fill-opacity:1;fill-rule:nonzero;stroke:none"
             id="path6883" /></g><g
           id="g6885"
           transform="translate(468.0366,289.7217)"><path
             d="m 0,0 c 0,0 1.392,53.98 -50.819,63.873 0,76.391 -52.603,126.166 -83.874,143.159 -10.956,5.953 -24.475,3.193 -32.48,-6.457 -12.656,-15.254 -40.686,-35.993 -101.008,-41.195 C -366.502,150.9 -369.654,97.277 -369.654,97.277 -425.517,78.435 -420.473,0 -420.473,0 Z"
             style="fill:none;stroke:#000000;stroke-width:15;stroke-linecap:round;stroke-linejoin:round;stroke-miterlimit:10;stroke-dasharray:none;stroke-opacity:1"
             id="path6887" /></g><g
           id="g6889"
           transform="translate(373.1309,12.1191)"><path
             d="m 0,0 h -241.762 c -8.284,0 -15,6.715 -15,15 V 87.823 H 15 V 15 C 15,6.715 8.284,0 0,0"
             style="fill:#d4d4e8;fill-opacity:1;fill-rule:nonzero;stroke:none"
             id="path6891" /></g><g
           id="g6893"
           transform="translate(388.1309,47.3516)"><path
             d="m 0,0 v 52.591 h -271.762 v -73.103 c 0,-8.13 6.716,-14.72 15,-14.72 h 28.08 c -8.284,0 -15,6.59 -15,14.72 l 0,20.512 z"
             style="fill:#c6c6e0;fill-opacity:1;fill-rule:nonzero;stroke:none"
             id="path6895" /></g><g
           id="g6897"
           transform="translate(373.1309,12.1191)"><path
             d="m 0,0 h -241.762 c -8.284,0 -15,6.715 -15,15 V 87.823 H 15 V 15 C 15,6.715 8.284,0 0,0 Z"
             style="fill:none;stroke:#000000;stroke-width:15;stroke-linecap:round;stroke-linejoin:round;stroke-miterlimit:10;stroke-dasharray:none;stroke-opacity:1"
             id="path6899" /></g><g
           id="g6901"
           transform="translate(404.814,68.3613)"><path
             d="m 0,0 h -315.436 c -45.22,0 -81.878,36.658 -81.878,81.879 v 132.855 c 0,8.255 6.692,14.948 14.948,14.948 H 84.738 c 8.256,0 14.948,-6.693 14.948,-14.948 V 99.687 C 99.686,44.632 55.055,0 0,0"
             style="fill:#e9e9ff;fill-opacity:1;fill-rule:nonzero;stroke:none"
             id="path6903" /></g><g
           id="g6905"
           transform="translate(37.02,148.7178)"><path
             d="m 0,0 v 134.655 c 0,8.103 6.692,14.67 14.948,14.67 h -29.52 c -8.256,0 -14.948,-6.567 -14.948,-14.67 V 0 c 0,-44.379 36.658,-80.355 81.878,-80.355 h 29.52 C 36.658,-80.355 0,-44.379 0,0"
             style="fill:#d4d4e8;fill-opacity:1;fill-rule:nonzero;stroke:none"
             id="path6907" /></g><g
           id="g6909"
           transform="translate(504.5,223.3545)"><path
             d="m 0,0 v -57.159 c 0,-54.032 -44.631,-97.834 -99.686,-97.834 h -315.436 c -45.22,0 -81.878,35.977 -81.878,80.356 V 60.019 c 0,8.102 6.692,14.669 14.948,14.669 h 88.472"
             style="fill:none;stroke:#000000;stroke-width:15;stroke-linecap:round;stroke-linejoin:round;stroke-miterlimit:10;stroke-dasharray:none;stroke-opacity:1"
             id="path6911" /></g><g
           id="g6913"
           transform="translate(149.7998,298.043)"><path
             d="M 0,0 H 339.752 C 348.008,0 354.7,-6.567 354.7,-14.67 V -41.466"
             style="fill:none;stroke:#000000;stroke-width:15;stroke-linecap:round;stroke-linejoin:round;stroke-miterlimit:10;stroke-dasharray:none;stroke-opacity:1"
             id="path6915" /></g><g
           id="g6917"
           transform="translate(98.3823,386.999)"><path
             d="M 0,0 H 85.978"
             style="fill:none;stroke:#000000;stroke-width:15;stroke-linecap:round;stroke-linejoin:round;stroke-miterlimit:10;stroke-dasharray:none;stroke-opacity:1"
             id="path6919" /></g><g
           id="g6921"
           transform="translate(417.2178,353.5947)"><path
             d="M 0,0 H -49.618"
             style="fill:none;stroke:#000000;stroke-width:15;stroke-linecap:round;stroke-linejoin:round;stroke-miterlimit:10;stroke-dasharray:none;stroke-opacity:1"
             id="path6923" /></g><g
           id="g6925"
           transform="translate(327.6401,353.5947)"><path
             d="M 0,0 H -9"
             style="fill:none;stroke:#000000;stroke-width:15;stroke-linecap:round;stroke-linejoin:round;stroke-miterlimit:10;stroke-dasharray:none;stroke-opacity:1"
             id="path6927" /></g></g></g></g></svg>
