<svg height="512" viewBox="0 0 64 64" width="512" xmlns="http://www.w3.org/2000/svg"><g id="_06-tofu" data-name="06-tofu"><path d="m27 35h4a2 2 0 0 0 -2 2 2.006 2.006 0 0 0 -2-2z" fill="#b59162"/><path d="m63 31v24.34a4 4 0 0 1 -1.17 2.83l-3.66 3.66a4 4 0 0 1 -2.83 1.17h-.34a2.006 2.006 0 0 0 2-2v-24a2 2 0 0 0 -.59-1.41l6-6a2 2 0 0 1 .59 1.41z" fill="#d9ad75"/><path d="m62.41 29.59-6 6a1.955 1.955 0 0 0 -1.41-.59h-13.66a4 4 0 0 0 2.83-1.17l3.66-3.66a3.909 3.909 0 0 0 .87-1.3l.3.13h12a1.955 1.955 0 0 1 1.41.59z" fill="#f7d2a3"/><path d="m56.41 35.59a2 2 0 0 1 .59 1.41v24a2.006 2.006 0 0 1 -2 2h-24a2 2 0 0 1 -2-2v-24a2 2 0 0 1 2-2h24a1.955 1.955 0 0 1 1.41.59z" fill="#ffebd1"/><path d="m49 3v24.34a4.169 4.169 0 0 1 -.3 1.53 3.909 3.909 0 0 1 -.87 1.3l-3.66 3.66a4 4 0 0 1 -2.83 1.17h-.34a2.006 2.006 0 0 0 2-2v-24a2 2 0 0 0 -.59-1.41l6-6a2 2 0 0 1 .59 1.41z" fill="#d9ad75"/><path d="m48.41 1.59-6 6a1.955 1.955 0 0 0 -1.41-.59h-24a2 2 0 0 0 -2 2v-.17a2.039 2.039 0 0 1 .58-1.42l.42-.41 4.24-4.24a5.987 5.987 0 0 1 4.24-1.76h22.52a1.955 1.955 0 0 1 1.41.59z" fill="#f7d2a3"/><path d="m42.41 7.59a2 2 0 0 1 .59 1.41v24a2.006 2.006 0 0 1 -2 2h-24a2 2 0 0 1 -2-2v-24a2 2 0 0 1 2-2h24a1.955 1.955 0 0 1 1.41.59z" fill="#ffebd1"/><path d="m29 37v24a2.006 2.006 0 0 1 -2 2h-24a2 2 0 0 1 -2-2v-24a2 2 0 0 1 2-2h24a2.006 2.006 0 0 1 2 2z" fill="#ffebd1"/><path d="m17 35h-14a2 2 0 0 0 -2 2v-.17a2.039 2.039 0 0 1 .58-1.42l.42-.41 4.24-4.24a5.987 5.987 0 0 1 4.24-1.76h4.52v4a2 2 0 0 0 2 2z" fill="#f7d2a3"/><path d="m58.23 32.5h-6.086a1 1 0 0 1 -.707-1.707l1.793-1.793h-4.23l-.3-.13a3.909 3.909 0 0 1 -.87 1.3l-3.66 3.66a4 4 0 0 1 -2.83 1.17h13.66a1.955 1.955 0 0 1 1.41.59l2.636-2.636a.984.984 0 0 0 -.816-.454z" fill="#e6c293"/><path d="m56.41 35.59a1.955 1.955 0 0 0 -1.41-.59h-22a23.986 23.986 0 0 0 24 24v-22a2 2 0 0 0 -.59-1.41z" fill="#fff2de"/><path d="m28.41 35.59a1.955 1.955 0 0 0 -1.41-.59h-22a23.986 23.986 0 0 0 24 24v-22a2 2 0 0 0 -.59-1.41z" fill="#fff2de"/><path d="m42.41 7.59a1.955 1.955 0 0 0 -1.41-.59h-22a23.986 23.986 0 0 0 24 24v-22a2 2 0 0 0 -.59-1.41z" fill="#fff2de"/><g fill="#ffddb3"><ellipse cx="31.121" cy="31.75" rx=".574" ry=".413" transform="matrix(.707 -.707 .707 .707 -13.336 31.29)"/><ellipse cx="18.121" cy="40.75" rx=".574" ry=".413" transform="matrix(.707 -.707 .707 .707 -23.502 24.735)"/><ellipse cx="10.121" cy="45.75" rx=".574" ry=".413" transform="matrix(.707 -.707 .707 .707 -29.377 20.543)"/><ellipse cx="38.121" cy="27.75" rx=".413" ry=".574"/><ellipse cx="25.121" cy="39.75" rx=".413" ry=".574"/><ellipse cx="40.121" cy="23.75" rx=".413" ry=".574"/><ellipse cx="42.121" cy="42.75" rx=".413" ry=".574"/><ellipse cx="44.121" cy="38.75" rx=".413" ry=".574"/><ellipse cx="35.121" cy="21.75" rx=".413" ry=".574" transform="matrix(.707 -.707 .707 .707 -5.096 31.191)"/><ellipse cx="41.121" cy="18.75" rx=".413" ry=".574" transform="matrix(.707 -.707 .707 .707 -1.22 34.554)"/><ellipse cx="35.121" cy="30.75" rx=".413" ry=".574" transform="matrix(.707 -.707 .707 .707 -11.458 33.825)"/><ellipse cx="21.121" cy="41.75" rx=".413" ry=".574"/><ellipse cx="9.121" cy="52.75" rx=".413" ry=".574"/><ellipse cx="20.121" cy="26.75" rx=".413" ry=".574"/><ellipse cx="5.375" cy="53.25" rx=".825" ry="1.148" transform="matrix(.707 -.707 .707 .707 -36.091 19.411)"/><ellipse cx="40.375" cy="58.25" rx=".825" ry="1.148"/><ellipse cx="17.375" cy="19.25" rx=".825" ry="1.148"/><ellipse cx="9.375" cy="59.25" rx=".825" ry="1.148"/><ellipse cx="24.375" cy="20.25" rx=".825" ry="1.148"/><ellipse cx="32.121" cy="15.75" rx=".574" ry=".413" transform="matrix(.707 -.707 .707 .707 -1.733 27.314)"/><ellipse cx="19.121" cy="15.75" rx=".574" ry=".413" transform="matrix(.707 -.707 .707 .707 -5.538 18.125)"/><ellipse cx="42.121" cy="51.75" rx=".574" ry=".413" transform="matrix(.707 -.707 .707 .707 -24.254 44.918)"/><ellipse cx="37.121" cy="12.75" rx=".413" ry=".574"/><ellipse cx="23.121" cy="50.75" rx=".413" ry=".574"/><ellipse cx="33.121" cy="9.75" rx=".413" ry=".574" transform="matrix(.707 -.707 .707 .707 2.801 26.265)"/><ellipse cx="23.121" cy="11.75" rx=".413" ry=".574"/><ellipse cx="21.121" cy="9.75" rx=".413" ry=".574"/><ellipse cx="49.375" cy="41.25" rx=".825" ry="1.148" transform="matrix(.707 -.707 .707 .707 -14.705 47.017)"/><ellipse cx="34.375" cy="49.25" rx=".825" ry="1.148" transform="matrix(.707 -.707 .707 .707 -24.76 38.752)"/><ellipse cx="23.375" cy="16.25" rx="1.719" ry="1.235" transform="matrix(.707 -.707 .707 .707 -4.646 21.279)"/><ellipse cx="36.375" cy="53.25" rx="1.719" ry="1.235" transform="matrix(.707 -.707 .707 .707 -26.995 41.296)"/><ellipse cx="20.375" cy="55.25" rx=".825" ry="1.148" transform="matrix(.707 -.707 .707 .707 -33.108 30.608)"/><ellipse cx="17.375" cy="59.25" rx="1.719" ry="1.235" transform="matrix(.707 -.707 .707 .707 -36.797 29.621)"/><ellipse cx="37.375" cy="15.25" rx=".825" ry="1.148"/><ellipse cx="54.375" cy="53.25" rx=".825" ry="1.148"/></g><path d="m63.7 29.715.008-.008-.026-.026a2.994 2.994 0 0 0 -1.362-1.362l-.026-.026-.008.008a2.951 2.951 0 0 0 -1.286-.301h-9v2h8.586l-4.3 4.3a2.951 2.951 0 0 0 -1.286-.3h-9.586l3.121-3.122a4.968 4.968 0 0 0 1.465-3.535v-24.343a2.951 2.951 0 0 0 -.3-1.285l.008-.008-.026-.026a2.994 2.994 0 0 0 -1.363-1.362l-.026-.026-.008.007a2.951 2.951 0 0 0 -1.285-.3h-22.515a6.958 6.958 0 0 0 -4.95 2.05l-4.656 4.657a2.978 2.978 0 0 0 -.879 2.122v24.171a2.966 2.966 0 0 0 .184 1h-9.77l2.535-2.535a4.97 4.97 0 0 1 3.536-1.465h1.515v-2h-1.515a6.958 6.958 0 0 0 -4.95 2.05l-4.656 4.657a2.978 2.978 0 0 0 -.879 2.122v3.171h2v-3a1 1 0 0 1 1-1h24a1 1 0 0 1 1 1v24a1 1 0 0 1 -1 1h-24a1 1 0 0 1 -1-1v-19h-2v19a3 3 0 0 0 3 3h24a2.981 2.981 0 0 0 2-.78 2.981 2.981 0 0 0 2 .78h24.343a4.968 4.968 0 0 0 3.536-1.464l3.656-3.658a4.968 4.968 0 0 0 1.465-3.535v-24.343a2.951 2.951 0 0 0 -.3-1.285zm-42.751-26.25a4.97 4.97 0 0 1 3.536-1.465h22.1l-4.3 4.3a2.951 2.951 0 0 0 -1.285-.3h-22.586zm-3.949 30.535a1 1 0 0 1 -1-1v-24a1 1 0 0 1 1-1h24a1 1 0 0 1 1 1v2h2v-2a2.951 2.951 0 0 0 -.3-1.285l4.3-4.3v23.928a3.017 3.017 0 0 1 -.879 2.121l-3.121 3.122v-15.586h-2v16a1 1 0 0 1 -1 1zm44.121 23.464-3.121 3.122v-2.586h-2v3a1 1 0 0 1 -1 1h-24a1 1 0 0 1 -1-1v-24a1 1 0 0 1 1-1h24a1 1 0 0 1 1 1v19h2v-19a2.951 2.951 0 0 0 -.3-1.285l4.3-4.3v23.928a3.017 3.017 0 0 1 -.879 2.121z"/><path d="m42 13h2v2h-2z"/><path d="m34 11h2v2h-2z"/><path d="m22 56h2v2h-2z"/><path d="m48 38h2v2h-2z"/><path d="m51 42h2v2h-2z"/><path d="m44 49h2v2h-2z"/><path d="m10 54h2v2h-2z"/><path d="m19 27h2v2h-2z"/><path d="m22 29h2v2h-2z"/><path d="m32 56h2v2h-2z"/><path d="m35 58h2v2h-2z"/><path d="m31 22h2v2h-2z"/><path d="m4 40h2v2h-2z"/><path d="m7 42h2v2h-2z"/></g></svg>