<?xml version="1.0" encoding="iso-8859-1"?>
<!-- Generator: Adobe Illustrator 19.0.0, SVG Export Plug-In . SVG Version: 6.00 Build 0)  -->
<svg version="1.1" id="Capa_1" xmlns="http://www.w3.org/2000/svg" xmlns:xlink="http://www.w3.org/1999/xlink" x="0px" y="0px"
	 viewBox="0 0 512.001 512.001" style="enable-background:new 0 0 512.001 512.001;" xml:space="preserve">
<g>
	<rect x="142.237" y="467.102" style="fill:#F9ECD4;" width="227.545" height="37.377"/>
	<rect x="58.638" y="112.641" style="fill:#F9ECD4;" width="394.723" height="31.438"/>
</g>
<g>
	<rect x="333.708" y="467.102" style="fill:#F7E0BA;" width="36.064" height="37.377"/>
	<rect x="417.297" y="112.641" style="fill:#F7E0BA;" width="36.064" height="31.438"/>
</g>
<path style="fill:#C6946A;" d="M371.842,112.641l29.065-77.628c4.983-13.308-4.856-27.498-19.067-27.498
	c-8.49,0-16.09,5.269-19.066,13.221l-34.41,91.906H371.842z"/>
<path style="fill:#B27C57;" d="M381.841,7.515c-4.206,0-8.193,1.296-11.508,3.569c7.316,5.05,10.993,14.699,7.537,23.929
	l-29.065,77.628h23.037l29.065-77.628C405.891,21.704,396.051,7.515,381.841,7.515z"/>
<path style="fill:#73CDFF;" d="M372.454,467.106H139.553c-10.449,0-19.144-8.03-19.973-18.447L95.345,144.079h321.316
	l-24.235,304.581C391.598,459.076,382.904,467.106,372.454,467.106z"/>
<path style="fill:#36C2FF;" d="M380.598,144.079l-24.235,304.581c-0.828,10.417-9.523,18.447-19.973,18.447h36.064
	c10.449,0,19.144-8.03,19.973-18.447l24.235-304.581L380.598,144.079L380.598,144.079z"/>
<path style="fill:#F9ECD4;" d="M408.083,251.901h-76.348c-16.467-24.214-44.241-40.12-75.731-40.12s-59.265,15.906-75.731,40.12
	h-76.348l8.18,102.803h68.167c16.467,24.214,44.241,40.12,75.731,40.12s59.265-15.906,75.731-40.12h68.167L408.083,251.901z"/>
<polygon style="fill:#F7E0BA;" points="372.018,251.901 363.839,354.704 399.903,354.704 408.083,251.901 "/>
<path d="M453.365,105.128h-70.688l25.266-67.48c3.204-8.557,2.009-18.147-3.198-25.656c-5.205-7.508-13.768-11.99-22.904-11.99
	c-11.561,0-22.051,7.274-26.102,18.099l-32.584,87.027h-140.48c27.331-7.077,51.658-16.43,72.467-27.904
	c31.414-17.322,54.918-39.533,69.858-66.018c2.039-3.614,0.762-8.197-2.853-10.235c-3.61-2.04-8.196-0.761-10.235,2.852
	c-13.527,23.979-35.02,44.221-63.884,60.162c-23.457,12.957-51.783,23.117-84.192,30.199c-41.296,9.024-78.852,10.689-95.672,10.943
	h-9.522c-0.102,0-0.201,0.011-0.303,0.015c-0.118,0.005-0.236,0.008-0.354,0.018c-0.139,0.012-0.276,0.032-0.413,0.052
	c-0.113,0.016-0.226,0.031-0.338,0.052c-0.129,0.024-0.255,0.056-0.383,0.087c-0.117,0.028-0.235,0.056-0.351,0.09
	c-0.111,0.033-0.219,0.072-0.329,0.11c-0.127,0.044-0.254,0.088-0.379,0.138c-0.09,0.037-0.177,0.079-0.265,0.119
	c-0.138,0.063-0.274,0.126-0.409,0.196c-0.069,0.037-0.136,0.077-0.204,0.116c-0.146,0.083-0.292,0.169-0.432,0.262
	c-0.051,0.034-0.099,0.07-0.149,0.105c-0.15,0.105-0.299,0.213-0.441,0.33c-0.038,0.031-0.073,0.063-0.11,0.095
	c-0.148,0.125-0.293,0.254-0.43,0.391c-0.03,0.03-0.059,0.062-0.089,0.093c-0.138,0.141-0.271,0.286-0.398,0.437
	c-0.029,0.035-0.056,0.071-0.084,0.106c-0.121,0.15-0.237,0.304-0.347,0.464c-0.031,0.046-0.059,0.093-0.09,0.139
	c-0.099,0.152-0.195,0.307-0.284,0.466c-0.035,0.064-0.067,0.13-0.1,0.194c-0.075,0.146-0.148,0.293-0.214,0.444
	c-0.037,0.086-0.069,0.174-0.104,0.262c-0.053,0.135-0.104,0.269-0.149,0.409c-0.036,0.11-0.065,0.223-0.096,0.337
	c-0.033,0.121-0.067,0.241-0.094,0.366c-0.029,0.132-0.05,0.266-0.072,0.401c-0.018,0.111-0.038,0.22-0.051,0.333
	c-0.017,0.143-0.025,0.29-0.034,0.435c-0.005,0.081-0.017,0.159-0.019,0.241c-0.001,0.031,0.003,0.061,0.002,0.092
	c-0.001,0.04-0.006,0.078-0.006,0.118v31.438c0,4.149,3.363,7.513,7.513,7.513h29.764l14.261,179.225l1.948,24.482
	c0,0.001,0,0.001,0,0.002l7.476,93.953c1.002,12.582,10.559,22.747,22.628,24.925v30.307c0,4.149,3.363,7.513,7.513,7.513h227.542
	c4.149,0,7.513-3.364,7.513-7.513v-30.307c12.07-2.179,21.627-12.343,22.628-24.925l7.476-93.953c0-0.001,0-0.001,0-0.002
	l1.947-24.482l14.261-179.225h29.764c4.149,0,7.513-3.364,7.513-7.513v-31.439C460.879,108.492,457.515,105.128,453.365,105.128z
	 M369.812,23.369c1.866-4.989,6.701-8.341,12.029-8.341c4.274,0,8.12,2.015,10.556,5.526c2.435,3.512,2.972,7.822,1.475,11.824
	l-27.24,72.75H339.2L369.812,23.369z M372.454,459.593L372.454,459.593H207.616c-4.15,0-7.513,3.364-7.513,7.513
	s3.363,7.513,7.513,7.513h154.644v22.355H149.746V474.62h27.818c4.15,0,7.513-3.364,7.513-7.513s-3.363-7.513-7.513-7.513h-38.01
	l0,0c-6.486,0-11.967-5.064-12.482-11.529l-6.831-85.847h56.154c18.666,25.196,48.13,40.12,79.61,40.12s60.944-14.924,79.61-40.12
	h56.154l-6.831,85.847C384.422,454.529,378.94,459.593,372.454,459.593z M445.852,136.566L445.852,136.566h-94.435
	c-4.15,0-7.513,3.364-7.513,7.513c0,4.149,3.363,7.513,7.513,7.513h57.111l-7.384,92.794h-65.531
	c-18.666-25.196-48.13-40.12-79.61-40.12c-13.774,0-27.107,2.776-39.631,8.251c-3.803,1.662-5.537,6.092-3.875,9.894
	c1.661,3.801,6.092,5.536,9.894,3.875c10.614-4.64,21.923-6.992,33.612-6.992c27.847,0,53.834,13.77,69.519,36.833
	c1.398,2.057,3.726,3.288,6.213,3.288h68.213l-2.545,31.98l-4.44,55.796h-61.228c-2.487,0-4.815,1.231-6.213,3.288
	c-15.684,23.063-41.672,36.833-69.519,36.833s-53.834-13.77-69.519-36.833c-1.398-2.057-3.726-3.288-6.213-3.288h-61.228
	l-4.44-55.796l-2.545-31.98h68.213c2.487,0,4.815-1.231,6.213-3.289c3.645-5.361,7.916-10.305,12.696-14.695
	c3.055-2.808,3.257-7.56,0.449-10.616c-2.807-3.056-7.56-3.257-10.616-0.45c-4.638,4.262-8.87,8.966-12.619,14.023h-65.531
	l-7.384-92.794h217.883c4.149,0,7.513-3.364,7.513-7.513c0-4.149-3.364-7.513-7.513-7.513H66.155l0,0v-16.366
	c1.114-0.008-0.215,0.014,1.114-0.008l378.582-0.037l0,0l0,0V136.566z"/>
<g>
</g>
<g>
</g>
<g>
</g>
<g>
</g>
<g>
</g>
<g>
</g>
<g>
</g>
<g>
</g>
<g>
</g>
<g>
</g>
<g>
</g>
<g>
</g>
<g>
</g>
<g>
</g>
<g>
</g>
</svg>
