<?xml version="1.0" encoding="UTF-8" standalone="no"?>
<!-- Created with Inkscape (http://www.inkscape.org/) -->

<svg
   version="1.1"
   id="svg417"
   xml:space="preserve"
   width="682.66669"
   height="682.66669"
   viewBox="0 0 682.66669 682.66669"
   xmlns="http://www.w3.org/2000/svg"
   xmlns:svg="http://www.w3.org/2000/svg"><defs
     id="defs421"><clipPath
       clipPathUnits="userSpaceOnUse"
       id="clipPath431"><path
         d="M 0,512 H 512 V 0 H 0 Z"
         id="path429" /></clipPath></defs><g
     id="g423"
     transform="matrix(1.3333333,0,0,-1.3333333,0,682.66667)"><g
       id="g425"><g
         id="g427"
         clip-path="url(#clipPath431)"><g
           id="g433"
           transform="translate(355.4307,485.9072)"><path
             d="M 0,0 -23.171,-131.405 H 22.523 L 44.316,-7.814 C 46.465,4.373 38.252,16.102 26.064,18.251 13.878,20.4 2.148,12.185 0,0"
             style="fill:#ff5477;fill-opacity:1;fill-rule:evenodd;stroke:none"
             id="path435" /></g><g
           id="g437"
           transform="translate(336.2275,377.0015)"><path
             d="M 0,0 -3.968,-22.5 H 41.727 L 45.694,0 Z"
             style="fill:#f05475;fill-opacity:1;fill-rule:evenodd;stroke:none"
             id="path439" /></g><path
           d="m 91,324.502 h 330 v 30 H 91 Z"
           style="fill:#ffffff;fill-opacity:1;fill-rule:evenodd;stroke:none"
           id="path441" /><g
           id="g443"
           transform="translate(226,173.501)"><path
             d="M 0,0 C 0,16.569 13.432,30 30,30 46.568,30 60,16.569 60,0 60,-16.568 46.568,-30 30,-30 13.432,-30 0,-16.568 0,0 m 30,82.5 c -24.536,0 -46.319,-11.784 -60.003,-30 h -77.065 l 4.964,-90 h 72.101 c 13.684,-18.216 35.467,-30 60.003,-30 24.537,0 46.32,11.784 60.003,30 h 72.101 l 4.964,90 H 90.003 C 76.32,70.716 54.537,82.5 30,82.5"
             style="fill:#ffffff;fill-opacity:1;fill-rule:evenodd;stroke:none"
             id="path445" /></g><g
           id="g447"
           transform="translate(398.5,324.502)"><path
             d="m 0,0 h -285 l 5.432,-98.501 h 77.065 c 13.684,18.216 35.467,30 60.003,30 24.537,0 46.32,-11.784 60.003,-30 h 77.065 z m -202.503,-188.501 h -72.101 l 4.604,-83.5 c 0.454,-8.24 6.752,-15.001 15,-15.001 h 225 c 8.248,0 14.546,6.763 15,15.001 l 4.604,83.5 h -72.101 c -13.683,-18.216 -35.466,-30 -60.003,-30 -24.536,0 -46.319,11.784 -60.003,30"
             style="fill:#feef90;fill-opacity:1;fill-rule:evenodd;stroke:none"
             id="path449" /></g><path
           d="m 368.5,37.5 h -225 v -30 h 225 z"
           style="fill:#fde31f;fill-opacity:1;fill-rule:evenodd;stroke:none"
           id="path451" /><g
           id="g453"
           transform="translate(256,143.501)"><path
             d="M 0,0 C 16.568,0 30,13.432 30,30 30,46.569 16.568,60 0,60 -16.568,60 -30,46.569 -30,30 -30,13.432 -16.568,0 0,0"
             style="fill:#ff5477;fill-opacity:1;fill-rule:evenodd;stroke:none"
             id="path455" /></g><path
           d="m 91,324.502 h 22.5 v 30 H 91 Z"
           style="fill:#9fe7fb;fill-opacity:1;fill-rule:evenodd;stroke:none"
           id="path457" /><g
           id="g459"
           transform="translate(141.4316,226.001)"><path
             d="m 0,0 h -22.5 l 4.964,-90 H 4.963 Z"
             style="fill:#9fe7fb;fill-opacity:1;fill-rule:evenodd;stroke:none"
             id="path461" /></g><g
           id="g463"
           transform="translate(113.5,324.502)"><path
             d="m 0,0 5.432,-98.501 h 22.5 L 23.74,-22.5 H 283.76 L 285,0 Z M 32.895,-188.501 H 10.396 l 4.604,-83.5 c 0.454,-8.24 6.752,-15.001 15,-15.001 h 22.499 c -8.248,0 -14.546,6.761 -15,15.001 z"
             style="fill:#fde31f;fill-opacity:1;fill-rule:evenodd;stroke:none"
             id="path465" /></g><g
           id="g467"
           transform="translate(328.4502,294.5024)"><path
             d="m 0,0 h 15 m 15.001,0 h 15"
             style="fill:none;stroke:#ffffff;stroke-width:15;stroke-linecap:butt;stroke-linejoin:miter;stroke-miterlimit:2.613;stroke-dasharray:none;stroke-opacity:1"
             id="path469" /></g><path
           d="m 91,354.502 h 330 v -30 H 91 Z"
           style="fill:none;stroke:#000000;stroke-width:15;stroke-linecap:butt;stroke-linejoin:miter;stroke-miterlimit:22.926;stroke-dasharray:none;stroke-opacity:1"
           id="path471" /><g
           id="g473"
           transform="translate(398.5,324.502)"><path
             d="m 0,0 -15,-272.001 c -0.454,-8.238 -6.752,-15.001 -15,-15.001 h -225 c -8.248,0 -14.546,6.761 -15,15.001 L -285,0"
             style="fill:none;stroke:#000000;stroke-width:15;stroke-linecap:butt;stroke-linejoin:miter;stroke-miterlimit:22.926;stroke-dasharray:none;stroke-opacity:1"
             id="path475" /></g><g
           id="g477"
           transform="translate(233.5,7.5005)"><path
             d="M 0,0 H -90 V 30 M 30,0 H 15 M 135,30 V 0 H 45"
             style="fill:none;stroke:#000000;stroke-width:15;stroke-linecap:butt;stroke-linejoin:miter;stroke-miterlimit:22.926;stroke-dasharray:none;stroke-opacity:1"
             id="path479" /></g><g
           id="g481"
           transform="translate(350.1621,456.0259)"><path
             d="m 0,0 -17.902,-101.524 m 45.694,0 21.793,123.591 C 51.733,34.254 43.521,45.983 31.333,48.132 19.146,50.281 7.417,42.066 5.269,29.881 L 2.604,14.774"
             style="fill:none;stroke:#000000;stroke-width:15;stroke-linecap:butt;stroke-linejoin:miter;stroke-miterlimit:22.926;stroke-dasharray:none;stroke-opacity:1"
             id="path483" /></g><g
           id="g485"
           transform="translate(308.5,414.5015)"><path
             d="M 0,0 C 0,-33 -27,-60 -60,-60"
             style="fill:none;stroke:#000000;stroke-width:15;stroke-linecap:butt;stroke-linejoin:miter;stroke-miterlimit:22.926;stroke-dasharray:none;stroke-opacity:1"
             id="path487" /></g><g
           id="g489"
           transform="translate(388.1045,136.001)"><path
             d="m 0,0 h -72.102 c -13.682,-18.216 -35.465,-30 -60.002,-30 -24.537,0 -46.32,11.784 -60.003,30 h -72.102 m -4.964,90 h 77.066 c 13.683,18.216 35.466,30 60.003,30 24.537,0 46.32,-11.784 60.002,-30 H 4.964"
             style="fill:none;stroke:#000000;stroke-width:15;stroke-linecap:butt;stroke-linejoin:miter;stroke-miterlimit:22.926;stroke-dasharray:none;stroke-opacity:1"
             id="path491" /></g><g
           id="g493"
           transform="translate(256,203.501)"><path
             d="m 0,0 c 16.568,0 30,-13.431 30,-30 0,-16.568 -13.432,-30 -30,-30 -16.568,0 -30,13.432 -30,30 0,16.569 13.432,30 30,30 z"
             style="fill:none;stroke:#000000;stroke-width:15;stroke-linecap:butt;stroke-linejoin:miter;stroke-miterlimit:22.926;stroke-dasharray:none;stroke-opacity:1"
             id="path495" /></g><g
           id="g497"
           transform="translate(256,203.501)"><path
             d="M 0,0 V 22.5"
             style="fill:none;stroke:#000000;stroke-width:15;stroke-linecap:butt;stroke-linejoin:miter;stroke-miterlimit:22.926;stroke-dasharray:none;stroke-opacity:1"
             id="path499" /></g></g></g></g></svg>
