<svg id="Layer_1" height="512" viewBox="0 0 512 512" width="512" xmlns="http://www.w3.org/2000/svg" data-name="Layer 1"><path d="m474.04 287.06c26.09 12.1 19.43 33.94 19.43 33.94s-35.85 9.77-90.55-1.5a39.217 39.217 0 0 0 -36.46 11.68l-.22.23a39.495 39.495 0 0 0 -9.15 37.51c15.26 55.56 7.16 93.16 7.16 93.16s-21.45 7.82-34.96-17.57c0 0-9.89 20.41-21.84 23.17 0 0-20.38-12.44-15.36-27.61 0 0-11.67 16.77-25.86 13.81 0 0-13.44-13.49-9.46-27.65 0 0-14.45 14.84-27.15 12.23-6.87-11 .92-30.47.92-30.47-11.91 8.66-29.23.77-29.23.77-7.54-12.01-2.3-29.91-2.07-30.68v-.01c5.88-9.59 3.74-25.01 3.74-25.01 8.73 11.85 27.64 9.54 27.64 9.54 10.87-9.22 5.18-28.24 5-28.86 8.89 13.25 31.22 4.83 31.22 4.83 5.17-11.11-4.86-31.45-4.86-31.45 28.34 4.95 35.34-16.77 35.34-16.77s-1.29-1.53-3.9-4.16v-.01a31.762 31.762 0 0 0 13.74-8.84 33.373 33.373 0 0 0 8.93-22.79 34.233 34.233 0 0 0 -1.1-8.61c-18.38-70.69 25.23-121.58 25.23-121.58s22.81-1.1 28.17 27.14c0 0 15.5-16.55 27.73-15.64 0 0 15.77 17.93 6.47 30.93 0 0 16.12-12.56 28.8-5.53 0 0 8.83 16.87.82 29.22 0 0 19.03-8.83 30.39-2.57 3.29 12.54-10.75 27.76-10.75 27.76 13.93-4.74 28.14 7.94 28.14 7.94 3.72 14.01-12.41 26.56-12.41 26.56 14.89-5.83 28.42 13.84 28.42 13.84-2.11 12.07-21.96 23.05-21.96 23.05z" fill="#ffde8d"/><path d="m199.24 378.07v.01a16.248 16.248 0 0 1 -3.29 3.91c-12.91-1.34-23.48-19.45-23.48-19.45-.48 14.71-17.37 23.52-17.37 23.52-14.42-1.47-20.49-20.97-20.49-20.97.21 15.97-22.98 21.69-22.98 21.69-10.55-6.23-13.83-28.67-13.83-28.67-20.53 20.14-38.62 6.21-38.62 6.21s-6.54-64.71 46.32-112.09a33.662 33.662 0 0 0 10.93-30.4 33.25 33.25 0 0 0 -6.7-15.29 34.153 34.153 0 0 0 -13.27-10.18c-67.09-28.95-80.46-94.6-80.46-94.6s13.14-18.67 38.73-5.53c0 0-3.54-22.4 4.69-31.48 0 0 23.85-1.42 28.39 13.9 0 0 0-20.43 13.34-26.1 0 0 18.74 3.4 23.57 17.31 0 0 4.72-20.43 16.64-25.54 11.93 5.11 15.31 25.54 15.31 25.54 4.82-13.91 23.56-17.31 23.56-17.31 13.34 5.67 13.34 26.1 13.34 26.1 4.54-15.32 28.39-13.9 28.39-13.9 8.23 9.08 4.69 31.48 4.69 31.48 25.59-13.14 38.73 5.53 38.73 5.53s-14.32 34.28-56.83 70.48a39.171 39.171 0 0 0 -13.19 35.92l.06.32a39.493 39.493 0 0 0 23.98 30.27c41.08 17.07 65.17 38.53 74.02 47.44 2.61 2.63 3.9 4.16 3.9 4.16s-7 21.72-35.34 16.77c0 0 10.03 20.34 4.86 31.45 0 0-22.33 8.42-31.22-4.83.18.62 5.87 19.64-5 28.86 0 0-18.91 2.31-27.64-9.54 0 0 2.14 15.42-3.74 25.01z" fill="#f5cb52"/><path d="m84.73 96.23s-1.983-12.555.473-22.677c-7.654-9.879-25.783-8.8-25.783-8.8-6.929 7.645-5.515 24.728-4.9 29.939 6.466-3.431 16.568-5.467 30.21 1.538z" fill="#d3aa42"/><path d="m89.18 364.32s-6.54-64.71 46.32-112.09a33.662 33.662 0 0 0 10.93-30.4 33.25 33.25 0 0 0 -6.7-15.29 34.153 34.153 0 0 0 -13.27-10.18c-67.09-28.95-80.46-94.6-80.46-94.6a25.662 25.662 0 0 1 7.157-6.289c-24.55-11.592-37.157 6.289-37.157 6.289s13.37 65.65 80.46 94.6a34.153 34.153 0 0 1 13.27 10.18 33.25 33.25 0 0 1 6.7 15.29 33.662 33.662 0 0 1 -10.93 30.4c-52.86 47.38-46.32 112.09-46.32 112.09s13.474 10.354 30.359.256c-.228-.158-.359-.256-.359-.256z" fill="#d3aa42"/><path d="m127.8 358.11c-10.507 10.307-20.367 11.684-27.5 10.579 2.09 6.713 5.657 14.742 11.328 18.091 0 0 14.53-3.592 20.48-13.014a76.333 76.333 0 0 1 -4.308-15.656z" fill="#d3aa42"/><g fill="#284268"><path d="m103.364 156.53a6 6 0 0 0 -5.14 10.844 72.842 72.842 0 0 1 26.054 24.081c14.54 22.233 15.455 50.046 2.721 82.668a6 6 0 1 0 11.179 4.363c17.851-45.729 7.564-76.43-4.209-94.132a83.63 83.63 0 0 0 -30.605-27.824z"/><path d="m175.514 186.783a72.825 72.825 0 0 1 16.53-31.38 6 6 0 0 0 -8.458-8.512 83.561 83.561 0 0 0 -19.576 36.429c-9.414 37.343 9.717 69.636 27.424 90.152a6 6 0 0 0 9.084-7.842c-22.885-26.514-31.298-53.042-25.004-78.847z"/><path d="m480.9 244.4c3.968-5.879 7.161-13.741 4.88-22.327a6 6 0 0 0 -1.8-2.935c-.492-.44-9.017-7.927-20.088-10 3.587-6.345 6.625-14.688 4.506-22.752a6 6 0 0 0 -2.906-3.729c-7.436-4.1-16.754-3.325-24.048-1.609.948-11.5-4.426-21.971-4.738-22.567a6 6 0 0 0 -2.4-2.464c-7.772-4.31-16.181-3.139-22.855-.731-1.048-12.1-10.277-22.767-10.825-23.391a6 6 0 0 0 -4.058-2.02c-9.067-.661-18.691 5.459-25.134 10.689-7.4-18.138-23.153-22.6-31.5-22.195a6 6 0 0 0 -4.265 2.089c-.471.551-11.651 13.733-20.523 35.96a145.614 145.614 0 0 0 -5.956 91.032 27.486 27.486 0 0 1 -6.411 25.8 26.339 26.339 0 0 1 -7.928 5.909c-10.944-10.435-34.768-30.016-73.145-45.957a33.311 33.311 0 0 1 -20.358-25.661l-.051-.32a33.33 33.33 0 0 1 11.152-30.414c43.1-36.713 57.868-71.287 58.476-72.74a6 6 0 0 0 -.63-5.767c-4.813-6.836-18.012-16.513-36.876-11.2.168-8.3-.9-19.651-7.01-26.386a6 6 0 0 0 -4.089-1.959c-.829-.051-14.919-.772-25.114 5.841-2.2-6.744-6.443-14.094-14.623-17.574a6.012 6.012 0 0 0 -3.422-.381c-.649.118-11.8 2.24-20.239 9.7-2.8-6.729-7.52-14.253-15.19-17.538a5.994 5.994 0 0 0 -4.725 0c-7.805 3.343-12.922 11.167-16.049 17.975-8.491-7.814-20.063-10.015-20.725-10.135a6 6 0 0 0 -3.421.381c-8.185 3.481-12.429 10.832-14.629 17.576-10.2-6.613-24.287-5.89-25.115-5.841a6 6 0 0 0 -4.088 1.959c-6.108 6.736-7.18 18.09-7.01 26.382-18.863-5.31-32.064 4.369-36.876 11.2a6 6 0 0 0 -.973 4.651c.144.71 3.679 17.626 15.771 38.28a145.733 145.733 0 0 0 68.188 60.642 27.408 27.408 0 0 1 7.415 45.891 145.846 145.846 0 0 0 -44.833 76.963c-5.129 22.787-3.527 39.5-3.457 40.2a6 6 0 0 0 2.31 4.152c6.625 5.1 22.1 10.426 38.54-.244 2.3 7.973 6.7 18.5 14.529 23.12a6 6 0 0 0 3.049.832 5.941 5.941 0 0 0 1.436-.175c.8-.2 14.476-3.688 22.249-13.026 4.1 5.786 10.338 11.548 19.181 12.444a5.978 5.978 0 0 0 3.381-.65c.6-.311 10.994-5.846 16.783-15.826 4.235 4.714 10.049 9.688 16.851 11.645-.665 7.272-.227 16.891 4.714 24.754a6.006 6.006 0 0 0 2.592 2.268c.612.278 11.367 5.076 22.8 3.507-1.321 7.374-1.589 16.715 2.909 23.914a6 6 0 0 0 3.881 2.7c8.172 1.684 16.343-1.807 22.487-5.731 2.668 10.941 10.611 19.045 11.077 19.512a6 6 0 0 0 3.028 1.64c8.7 1.817 16.384-1.8 22.042-6.082 4.593 11.247 16.574 18.694 17.283 19.127a5.994 5.994 0 0 0 4.475.725c8.862-2.045 16.227-10.755 20.828-17.663 12.451 15.123 28.817 14.718 36.671 11.852a6 6 0 0 0 3.81-4.373c.343-1.594 8.234-39.686-7.237-96.008a33.289 33.289 0 0 1 7.742-31.816l.224-.24a33.369 33.369 0 0 1 30.864-9.9c55.466 11.423 91.827 1.818 93.347 1.4a6 6 0 0 0 4.162-4.039c2.437-8 1.963-24.35-13.819-35.961 6.651-4.965 14.952-12.785 16.516-21.739a6 6 0 0 0 -.968-4.433c-.469-.684-8.555-12.238-20.042-16.213zm-280.184 103.105a6 6 0 0 0 -3.682 6.38c.549 3.968.936 15.363-3.169 21.472-7.144-2.687-14.122-12.282-16.219-15.844a6 6 0 0 0 -11.177 2.83c-.283 8.652-8.847 15.061-12.508 17.413-8.952-2.493-13.576-16.318-13.618-16.451a6 6 0 0 0 -11.73 1.86c.111 8.307-10.7 13.141-15.808 14.958-4.824-4.848-8.067-16.133-9.063-22.876a6 6 0 0 0 -10.142-3.419c-12.921 12.666-24 9.375-28.611 7.037-.4-12.7.811-64.993 44.512-104.166a39.406 39.406 0 0 0 -10.671-65.844c-26.48-11.426-47.46-30.029-62.357-55.29a136.214 136.214 0 0 1 -13.883-32.173 21.844 21.844 0 0 1 5.716-3.887c6.838-3.19 14.808-2.5 23.687 2.06a6 6 0 0 0 8.667-6.265c-1.051-6.739-1.306-18.477 1.86-24.536 5.426.221 17.179 1.633 19.54 9.594a6 6 0 0 0 11.752-1.7c0-.155.233-14.691 8.115-19.747 4.206 1.162 14.282 4.743 17.121 12.92a6 6 0 0 0 11.513-.615c.931-4.025 4.719-15.247 10.775-19.939 5.7 4.607 8.744 15.616 9.412 19.566a6 6 0 0 0 11.587.988c2.84-8.179 12.922-11.761 17.116-12.92 7.808 5.036 8.119 19.608 8.12 19.747a6 6 0 0 0 11.752 1.7c2.361-7.964 14.122-9.375 19.539-9.595 3.166 6.059 2.912 17.8 1.862 24.531a6 6 0 0 0 8.666 6.274c15.349-7.877 24.8-2.4 28.855 1.245-4.7 9.288-20.241 36.466-53.583 64.867a45.4 45.4 0 0 0 -15.224 41.42l.051.32a45.227 45.227 0 0 0 27.611 34.868c41.682 17.314 65.563 39.451 73.049 47.14a21.883 21.883 0 0 1 -3.9 4.725c-5.583 5.074-13.4 6.773-23.231 5.058a6 6 0 0 0 -6.416 8.559c3 6.124 6.731 17.254 5.509 23.98-5.249 1.4-16.891 3.535-21.51-3.368a6 6 0 0 0 -10.721 5.1c.046.149 4.073 14.15-1.88 21.275-4.349.13-15.071-.322-20.187-7.257a6 6 0 0 0 -7.097-1.995zm270.419-65.7a6 6 0 0 0 .377 10.693c15.638 7.256 17.128 18.059 16.748 23.5-10.257 1.993-41.4 6.427-84.134-2.375a45.448 45.448 0 0 0 -42.04 13.446l-.224.239a45.206 45.206 0 0 0 -10.558 43.2c11.972 43.586 9.142 76.058 7.675 86.624-5.449.674-16.308-.244-24.392-15.44a6 6 0 0 0 -10.7.2c-2.518 5.2-9.219 15.751-15.548 19.077-4.329-3.28-13.165-11.143-10.555-19.022a6 6 0 0 0 -10.621-5.313c-.089.126-8.581 11.909-17.948 11.583-2.788-3.355-9.012-12.043-6.672-20.373a6 6 0 0 0 -10.076-5.808c-2.795 2.872-11.553 10.183-18.9 10.7-2.266-7.282 1.018-18.677 2.541-22.518a6 6 0 0 0 -9.1-7.082c-7.045 5.126-17.448 2.25-21.5.815-3.728-7.772-1.947-18.938-.693-23.527a38.253 38.253 0 0 0 4.326-15.129c10.273 4.619 21.551 3.338 22.206 3.258a6.016 6.016 0 0 0 3.154-1.38c6.778-5.748 8.648-14.026 8.748-21.118 11.7 3.294 24.939-1.579 25.716-1.872a6 6 0 0 0 3.324-3.085c3.832-8.245 1.484-19.4-1.139-27.275 19.586-.525 29.322-13.681 31.888-21.635a5.993 5.993 0 0 0 -.052-3.818 39.418 39.418 0 0 0 17.814-43.938c-7.254-27.9-5.464-55.873 5.32-83.143a136.208 136.208 0 0 1 16.861-30.724 21.862 21.862 0 0 1 6.585 2.119c6.719 3.431 11.069 10.14 12.928 19.939a6 6 0 0 0 10.27 2.987c4.675-4.971 13.785-12.386 20.515-13.614 3.159 4.414 9.265 14.545 4.433 21.3a6 6 0 0 0 8.552 8.236c.123-.094 11.813-8.8 20.588-5.746 1.654 4.026 5.013 14.2.326 21.43a6 6 0 0 0 7.551 8.711c3.762-1.732 14.969-5.626 22.369-3.758-.139 7.323-6.954 16.482-9.66 19.436a6 6 0 0 0 6.341 9.75c8.2-2.787 17.223 2.958 20.716 5.554.821 9.247-10.487 18.446-10.6 18.533a6 6 0 0 0 5.875 10.32c7.738-3.031 16.077 5.368 19.582 9.506-2.838 6.216-12.252 13.232-18.217 16.539z"/><path d="m348.514 264.956a83.09 83.09 0 0 0 2.159-38.047 6 6 0 0 0 -11.709 2.625 71.294 71.294 0 0 1 -1.974 32.077c-6.883 23.718-24.807 41.327-53.275 52.337a6 6 0 1 0 4.329 11.192c40.037-15.486 54.983-41.276 60.47-60.184z"/><path d="m407.58 284.234a83.662 83.662 0 0 0 -40.781 6.952c-35.258 15.526-48.99 50.456-54.3 77.024a6 6 0 0 0 4.707 7.06 6.066 6.066 0 0 0 1.183.117 6 6 0 0 0 5.877-4.826c6.864-34.338 22.633-57.275 46.87-68.17a72.868 72.868 0 0 1 34.93-6.252 6 6 0 0 0 1.514-11.905z"/></g></svg>