<svg height="512" viewBox="0 0 512 512" width="512" xmlns="http://www.w3.org/2000/svg"><path d="m482.022 176.315a48.007 48.007 0 0 0 -27.722-43.515v.01c.052-.644.086-1.292.086-1.949a24 24 0 0 0 -24-24 24.292 24.292 0 0 0 -3.57.265 32 32 0 0 0 -36.549-37.661 31.992 31.992 0 0 0 -56.92-14.082 47.924 47.924 0 0 0 -45.356-15.988 31.991 31.991 0 0 0 -59.1-16.373 48.016 48.016 0 0 0 -56.151 33.972 32.043 32.043 0 0 0 -38.493 21.443 24 24 0 0 0 -37.675 10.041 32 32 0 0 0 -39.9 45.878 48.03 48.03 0 0 0 -18.248 65.962v4.737h437.226l-.051-4.737a47.781 47.781 0 0 0 6.423-24.003z" fill="#dce1eb"/><path d="m9.011 200.316v48c0 .01 13.594 162.9 141 223.746v25.7a6.241 6.241 0 0 0 6.241 6.238h201.518a6.241 6.241 0 0 0 6.241-6.241v-25.7c127.406-60.845 141-223.736 141-223.746v-48z" fill="#dcaa46"/><path d="m9.011 200.316h496v48h-496z" fill="#b4821e"/><path d="m150.011 472.062v25.7a6.241 6.241 0 0 0 6.241 6.238h201.518a6.241 6.241 0 0 0 6.241-6.241v-25.7l.127-.062h-214.254z" fill="#b4821e"/><path d="m170.512 500.62v3.38h187.258a6.241 6.241 0 0 0 6.241-6.241v-13.105s-131.322.028-177.6.05a15.912 15.912 0 0 0 -15.899 15.916z" fill="#c89632"/><path d="m67.649 253.782c13.992 108.985 91.484 190.462 216.926 190.462h122.96c87.134-72.051 97.475-195.919 97.476-195.928v-48h-437.976v48s.165 1.937.614 5.466z" fill="#f0be5a"/><path d="m67.035 200.316h437.976v48h-437.976z" fill="#c89632"/><g><path d="m505.011 192.315h-17.322a56.017 56.017 0 0 0 -25.441-64.374 32.064 32.064 0 0 0 -26.894-28.7 40.053 40.053 0 0 0 -39.074-38.185 40.025 40.025 0 0 0 -63.031-17.051 55.831 55.831 0 0 0 -38.388-13.405 40.249 40.249 0 0 0 -38.861-30.6 39.754 39.754 0 0 0 -30.689 14.345 55.993 55.993 0 0 0 -57.9 33.739q-1.311-.084-2.618-.084a39.813 39.813 0 0 0 -34.178 19.166 31.963 31.963 0 0 0 -37.973 11.716 40.013 40.013 0 0 0 -46.149 52.559 56.014 56.014 0 0 0 -20.16 60.874h-17.322a8 8 0 0 0 -8 8v48c0 .224.01.448.028.67.145 1.718 3.759 42.623 23.313 91.476 11.518 28.778 26.219 54.364 43.694 76.049 20.858 25.882 45.721 46.226 73.965 60.532v16.458a18.525 18.525 0 0 0 18.5 18.5h192.996a18.525 18.525 0 0 0 18.5-18.5v-16.458c28.244-14.306 53.106-34.65 73.965-60.532 17.474-21.685 32.175-47.271 43.694-76.049 19.554-48.853 23.168-89.758 23.312-91.476.019-.222.029-.446.029-.67v-48a8 8 0 0 0 -7.996-8zm-466.371 16h49.776a8 8 0 0 0 0-16h-45.068a39.987 39.987 0 0 1 17.216-50.97 8 8 0 0 0 2.975-11.091 24.01 24.01 0 0 1 29.93-34.4 8 8 0 0 0 10.584-4.537 16.087 16.087 0 0 1 14.963-10.33 15.807 15.807 0 0 1 10.151 3.632 8 8 0 0 0 12.716-3.792 24.043 24.043 0 0 1 28.877-16.082 8 8 0 0 0 9.683-5.59 40.019 40.019 0 0 1 46.792-28.309 7.993 7.993 0 0 0 8.424-3.575 23.99 23.99 0 0 1 44.326 12.27 8 8 0 0 0 9.472 7.714 40 40 0 0 1 37.807 13.325 8 8 0 0 0 12.421-.326 23.991 23.991 0 0 1 42.69 10.546 7.993 7.993 0 0 0 9.161 6.557 24.374 24.374 0 0 1 3.858-.312 23.993 23.993 0 0 1 23.56 28.567 8 8 0 0 0 9.031 9.422 16.475 16.475 0 0 1 2.395-.179 16.019 16.019 0 0 1 16 16c0 .38-.02.8-.061 1.321a8 8 0 0 0 4.858 7.992 39.99 39.99 0 0 1 19.5 52.146h-350.261a8 8 0 0 0 0 16h355.13.046.045 21.374v32h-480v-32zm436.06 126.485c-10.934 27.246-24.829 51.406-41.3 71.809-20.015 24.8-43.948 44.089-71.139 57.392h-24.851a8 8 0 0 0 0 16h18.6v13.5a2.506 2.506 0 0 1 -2.5 2.5h-192.995a2.506 2.506 0 0 1 -2.5-2.5v-13.501h147.4a8 8 0 1 0 0-16h-153.66c-27.192-13.3-51.124-32.593-71.139-57.392-16.468-20.4-30.361-44.563-41.3-71.809a353.541 353.541 0 0 1 -21.262-78.484h477.909a353.5 353.5 0 0 1 -21.263 78.485z"/><path d="m454.871 319.87a8 8 0 0 0 -10.426 4.393c-10.841 26.628-24.561 49.553-40.782 68.137a8 8 0 0 0 12.055 10.522c17.382-19.922 32.037-44.356 43.546-72.622a8 8 0 0 0 -4.393-10.43z"/><path d="m465.84 284.9a8 8 0 0 0 -9.861 5.548q-.588 2.1-1.226 4.267a8 8 0 1 0 15.346 4.531q.671-2.274 1.289-4.485a8 8 0 0 0 -5.548-9.861z"/><path d="m123.535 149.1a7.994 7.994 0 0 0 10.408-4.436 24.029 24.029 0 0 1 31.225-13.3 8 8 0 1 0 5.973-14.843 40.05 40.05 0 0 0 -52.041 22.172 8 8 0 0 0 4.435 10.407z"/><path d="m250.773 93.6a24.008 24.008 0 0 1 34.886 17.235 8 8 0 0 0 7.878 6.664 8.127 8.127 0 0 0 1.347-.113 8 8 0 0 0 6.551-9.225 40.007 40.007 0 0 0 -58.135-28.705 8 8 0 0 0 7.473 14.144z"/><path d="m216.991 166.815a8 8 0 0 0 11.262-1.08 24.076 24.076 0 0 1 18.228-8.726 8 8 0 0 0 -.085-16h-.09a40.077 40.077 0 0 0 -30.4 14.545 8 8 0 0 0 1.085 11.261z"/><path d="m354.914 144.971a24.034 24.034 0 0 1 31.456 12.777 8 8 0 1 0 14.736-6.232 40.035 40.035 0 0 0 -52.424-21.282 8 8 0 0 0 6.232 14.737z"/></g></svg>