<svg height="512pt" viewBox="-68 0 512 512.00903" width="512pt" xmlns="http://www.w3.org/2000/svg"><path d="m349.871094 435.210938v34.132812c0 18.855469-72.617188 34.132812-162.132813 34.132812s-162.132812-15.277343-162.132812-34.132812v-34.132812zm0 0" fill="#fa7a62"/><path d="m349.871094 91.316406v343.894532c0 18.855468-72.617188 34.132812-162.132813 34.132812s-162.132812-15.277344-162.132812-34.132812v-343.894532zm0 0" fill="#e5e8eb"/><path d="m366.9375 42.675781v34.132813c0 5.207031-6.144531 10.070312-17.066406 14.507812-28.671875 11.605469-90.453125 19.625-162.132813 19.625-71.679687 0-133.460937-8.019531-162.132812-19.625-10.921875-4.4375-17.066407-9.300781-17.066407-14.507812v-34.132813zm0 0" fill="#fa7a62"/><path d="m349.871094 153.609375c0 18.859375-72.617188 34.132813-162.132813 34.132813s-162.132812-15.273438-162.132812-34.132813v213.332031c0 18.859375 72.617187 34.132813 162.132812 34.132813s162.132813-15.273438 162.132813-34.132813zm0 0" fill="#fab864"/><path d="m76.804688 281.609375v-25.601563l.246093-2.917968c1.765625-8.40625 9.273438-14.355469 17.863281-14.148438 3.9375-.03125 7.417969-2.5625 8.667969-6.296875 2.144531-6.851562 8.730469-11.316406 15.890625-10.769531 7.148438-.539062 13.726563 3.925781 15.871094 10.769531 1.25 3.734375 4.730469 6.265625 8.667969 6.296875 8.585937-.207031 16.097656 5.742188 17.863281 14.148438l.261719 2.917968v25.601563zm0 0" fill="#fff"/><path d="m366.9375 42.675781c0-18.851562-80.230469-34.132812-179.199219-34.132812s-179.199219 15.28125-179.199219 34.132812c0 18.851563 80.230469 34.132813 179.199219 34.132813s179.199219-15.28125 179.199219-34.132813zm0 0" fill="#fb8f7d"/><path d="m307.136719 288.632812c.390625 4.761719-1.21875 9.472657-4.445313 12.996094-3.226562 3.527344-7.773437 5.546875-12.554687 5.582032h-104.625c-7.710938-.039063-14.464844 5.152343-16.410157 12.609374-6.417968 25.136719-30.597656 41.519532-56.320312 38.160157-25.878906-3.925781-44.882812-26.355469-44.511719-52.53125v-23.839844c0-4.714844 3.820313-8.535156 8.535157-8.535156h212.378906c9.089844-.191407 16.851562 6.53125 17.953125 15.558593zm0 0" fill="#e5e8eb"/><g fill="#373737"><path d="m298.59375 15.789062c.621094-4.671874-2.660156-8.960937-7.328125-9.585937-34.339844-4.289063-68.921875-6.359375-103.527344-6.1953125-19.21875 0-187.73437475 1.2031255-187.73437475 42.6679685v34.132813c0 10.242187 9.94140575 16.625 17.06640575 20.070312v150.597656c0 4.710938 3.820313 8.53125 8.535157 8.53125 4.710937 0 8.53125-3.820312 8.53125-8.53125v-73.386718c32.8125 17.066406 105.710937 22.1875 153.601562 22.1875 47.886719 0 120.804688-5.121094 153.597657-22.1875v192.570312c-3.148438 9.054688-58.683594 25.882813-153.597657 25.882813-94.636719 0-150.117187-16.734375-153.601562-25.78125v-68.085938c0-4.714843-3.820313-8.535156-8.53125-8.535156-4.714844 0-8.535157 3.820313-8.535157 8.535156v170.667969c0 33.679688 107.273438 42.664062 170.667969 42.664062s170.667969-8.984374 170.667969-42.664062v-372.464844c7.113281-3.414062 17.066406-9.828125 17.066406-20.070312v-34.132813c0-14.121093-18.015625-21.453125-31.574218-25.726562-4.441407-1.257813-9.078126 1.246093-10.464844 5.648437-1.386719 4.402344.980468 9.109375 5.34375 10.625 7.167968 1.46875 13.839844 4.746094 19.386718 9.511719-6.476562 9.480469-66.789062 25.542969-170.425781 25.542969-103.84375 0-164.199219-16.128906-170.453125-25.601563 6.253906-9.472656 66.609375-25.601562 170.453125-25.601562 33.851563-.160157 67.679688 1.855469 101.273438 6.042969 4.667969.621093 8.960937-2.660157 9.582031-7.328126zm-110.855469 163.421876c-94.636719 0-150.117187-16.734376-153.601562-25.78125v-50.167969c33.613281 10.105469 90.53125 16.214843 153.601562 16.214843 63.070313 0 119.96875-6.109374 153.597657-16.214843v50.109375c-3.273438 9.042968-58.785157 25.839844-153.597657 25.839844zm0 230.398437c47.90625 0 120.832031-5.121094 153.597657-22.1875v47.207031.339844c-.167969.328125-.375.632812-.613282.914062-.175781.304688-.382812.589844-.613281.855469-.375.335938-.769531.648438-1.179687.945313-.417969.324218-.742188.640625-1.261719.980468-.519531.34375-1.117188.632813-1.707031.949219-.585938.316407-1.195313.714844-1.945313 1.089844-.605469.300781-1.382813.605469-2.0625.914063-.898437.394531-1.707031.792968-2.734375 1.195312-.6875.273438-1.527344.546875-2.269531.851562-1.191407.4375-2.335938.855469-3.675781 1.324219-.75.246094-1.640626.496094-2.433594.742188-1.5.46875-2.976563.9375-4.640625 1.40625-.855469.242187-1.816407.460937-2.695313.703125-1.785156.46875-3.535156.945312-5.472656 1.40625-.980469.238281-2.097656.460937-3.121094.691406-2.007812.460938-3.976562.914062-6.144531 1.355469-1.101563.222656-2.332031.429687-3.464844.648437-2.246093.4375-4.464843.855469-6.828125 1.289063-1.246094.214843-2.636718.410156-3.925781.625-2.449219.390625-4.863281.800781-7.457031 1.167969-1.375.195312-2.867188.367187-4.265625.5625-2.679688.359374-5.316407.726562-8.140625 1.058593-1.65625.1875-3.414063.351563-5.121094.539063-2.730469.289062-5.417969.597656-8.277344.851562-2.089844.195313-4.324218.351563-6.476562.519532-2.644532.214843-5.214844.453124-7.953125.640624-2.558594.171876-5.289063.300782-7.945313.445313-2.480468.136719-4.886718.304687-7.457031.417969-3.011719.136718-6.195313.210937-9.308594.316406-2.363281.074219-4.644531.179688-7.066406.238281-5.632813.128907-11.414063.195313-17.339844.195313-94.949219 0-150.496093-16.84375-153.601562-25.597656v-47.789063c32.8125 17.066406 105.710937 22.1875 153.601562 22.1875zm0 85.332031c-94.949219 0-150.496093-16.84375-153.601562-25.597656v-13.613281l.273437.128906c1.816406.9375 3.773438 1.828125 5.820313 2.6875l1.433593.582031c1.878907.757813 3.824219 1.484375 5.855469 2.191406.324219.113282.628907.230469.960938.332032 2.324219.785156 4.761719 1.527344 7.273437 2.246094l1.707032.46875c2.300781.632812 4.667968 1.246093 7.097656 1.828124l.957031.238282c2.730469.640625 5.539063 1.234375 8.40625 1.816406l1.867187.367188c2.652344.511718 5.351563 1.015624 8.089844 1.476562l.894532.160156c3.011718.503906 6.070312.976563 9.175781 1.425782l1.996093.28125c2.910157.402343 5.84375.792968 8.804688 1.152343l.71875.09375c3.171875.375 6.367188.730469 9.582031 1.058594l2.160157.214844c3.035156.296875 6.066406.578125 9.105468.851562l.5625.050781c3.207032.261719 6.40625.503907 9.597656.726563l2.269532.152344c3.058594.199219 6.09375.386719 9.097656.546875h.394531c3.148438.171875 6.253907.308594 9.335938.4375l2.175781.082031c2.976562.113281 5.921875.214844 8.8125.292969h.222656c2.960938.074218 5.84375.136718 8.6875.167968h2.066406c2.789063 0 5.542969.050782 8.199219.050782 2.652344 0 5.410157 0 8.199219-.050782h2.074219c2.84375 0 5.71875-.09375 8.671875-.167968h.304687c2.875-.078125 5.804688-.171875 8.765625-.28125l2.140625-.085938c3.070313-.128906 6.160157-.265625 9.292969-.429687h.699219c2.902343-.152344 5.835937-.332031 8.773437-.527344l2.414063-.160156c3.140625-.21875 6.292969-.453125 9.464843-.710938l.902344-.085937c2.914063-.25 5.820313-.515625 8.722656-.800782l2.378907-.238281c3.140625-.324219 6.273437-.65625 9.386719-1.03125l1.179687-.148437c2.765625-.339844 5.503906-.707032 8.226563-1.082032l2.378906-.332031c3.003906-.4375 5.972656-.898437 8.910156-1.382812l1.332031-.238281c2.558594-.4375 5.117188-.90625 7.574219-1.382813l2.179688-.4375c2.789062-.5625 5.527343-1.140625 8.179687-1.765625l1.316406-.324219c2.296875-.554687 4.515625-1.125 6.691407-1.707031.65625-.179688 1.3125-.347656 1.953124-.535156 2.449219-.699219 4.820313-1.425782 7.089844-2.1875l1.238282-.433594c1.929687-.664062 3.773437-1.367188 5.554687-2.082031l1.597656-.640625c2.003907-.851563 3.914063-1.707032 5.699219-2.636719.109375-.058594.238281-.101563.339844-.160156v13.34375c-3.140625 8.960937-58.683594 25.804687-153.632813 25.804687zm0-409.597656c15.460938 0 127.488281-.796875 170.726563-22.691406l.042968 13.585937s-1.46875 2.953125-11.835937 7.167969l-.121094.050781c-28.59375 11.511719-90.886719 18.953125-158.8125 18.953125s-130.398437-7.460937-158.917969-19.003906c-4.367187-1.300781-8.386718-3.578125-11.75-6.65625v-14.070312c43.28125 21.867187 155.214844 22.664062 170.667969 22.664062zm0 0"/><path d="m119.308594 366.941406c27.359375.007813 51.253906-18.515625 58.070312-45.011718.972656-3.683594 4.324219-6.230469 8.132813-6.1875h104.625c6.757812.058593 13.246093-2.632813 17.980469-7.449219 5.449218-5.316407 8.207031-12.804688 7.519531-20.386719-1.484375-13.4375-12.933594-23.550781-26.453125-23.363281h-118.511719v-9.242188l-.324219-3.625c-2.746094-12.6875-13.929687-21.765625-26.90625-21.847656-3.355468-10.273437-13.175781-17.027344-23.96875-16.484375-10.765625-.515625-20.546875 6.230469-23.894531 16.476562-.042969.09375-.230469.589844-.632813.589844-12.976562-.105468-24.128906 9.1875-26.367187 21.972656l-.1875 14.507813c-5.316406 2.996094-8.617187 8.613281-8.652344 14.71875v23.839844c-.519531 16.128906 5.527344 31.777343 16.757813 43.371093 11.226562 11.589844 26.675781 18.128907 42.8125 18.121094zm-33.84375-112.433594c1.105468-4.28125 5.046875-7.207031 9.464844-7.03125 7.558593-.050781 14.261718-4.867187 16.726562-12.015624.964844-3.410157 4.308594-5.570313 7.816406-5.050782 3.507813-.515625 6.855469 1.648438 7.824219 5.058594 2.464844 7.148438 9.171875 11.960938 16.734375 12.007812 4.183594-.207031 8.003906 2.367188 9.386719 6.324219l.1875 10.742188h-68.269531v-7.824219zm-8.660156 50.941407v-23.839844h212.378906c4.664062-.1875 8.734375 3.132813 9.488281 7.738281.238281 2.546875-.707031 5.0625-2.5625 6.828125-1.5625 1.617188-3.722656 2.523438-5.972656 2.5h-104.625c-11.613281-.054687-21.777344 7.789063-24.671875 19.039063-5.410156 20.929687-25.550782 34.558594-46.992188 31.800781-21.652344-3.320313-37.492187-22.164063-37.042968-44.066406zm0 0"/><path d="m145.070312 34.140625c-4.710937 0-8.53125 3.820313-8.53125 8.535156 0 4.710938 3.820313 8.535157 8.53125 8.535157h85.335938c4.710938 0 8.53125-3.824219 8.53125-8.535157 0-4.714843-3.820312-8.535156-8.53125-8.535156zm0 0"/></g></svg>