<svg id="Capa_1" enable-background="new 0 0 512.007 512.007" height="512" viewBox="0 0 512.007 512.007" width="512" xmlns="http://www.w3.org/2000/svg"><g><path d="m447.207 504.507h-150.601c-2.057 0-3.724-1.667-3.724-3.724v-283.581c0-2.057 1.667-3.724 3.724-3.724h150.601c2.057 0 3.724 1.667 3.724 3.724v283.581c.001 2.057-1.667 3.724-3.724 3.724z" fill="#aa7a63"/><path d="m447.207 213.478h-36.276v209.301c0 34.091-27.637 61.728-61.728 61.728h-56.321v16.276c0 2.057 1.667 3.724 3.724 3.724h150.601c2.057 0 3.724-1.667 3.724-3.724v-283.581c0-2.057-1.667-3.724-3.724-3.724z" fill="#986b54"/><g fill="#c19d8e"><path d="m355.228 279.547h-33.131c-2.057 0-3.724-1.667-3.724-3.724v-33.131c0-2.057 1.667-3.724 3.724-3.724h33.131c2.057 0 3.724 1.667 3.724 3.724v33.131c0 2.057-1.668 3.724-3.724 3.724z"/><path d="m355.228 346.037h-33.131c-2.057 0-3.724-1.667-3.724-3.724v-33.132c0-2.057 1.667-3.724 3.724-3.724h33.131c2.057 0 3.724 1.667 3.724 3.724v33.132c0 2.057-1.668 3.724-3.724 3.724z"/><path d="m355.228 412.527h-33.131c-2.057 0-3.724-1.667-3.724-3.724v-33.131c0-2.057 1.667-3.724 3.724-3.724h33.131c2.057 0 3.724 1.667 3.724 3.724v33.131c0 2.057-1.668 3.724-3.724 3.724z"/><path d="m355.228 479.017h-33.131c-2.057 0-3.724-1.667-3.724-3.724v-33.131c0-2.057 1.667-3.724 3.724-3.724h33.131c2.057 0 3.724 1.667 3.724 3.724v33.131c0 2.057-1.668 3.724-3.724 3.724z"/><path d="m421.717 279.547h-33.131c-2.057 0-3.724-1.667-3.724-3.724v-33.131c0-2.057 1.667-3.724 3.724-3.724h33.131c2.057 0 3.724 1.667 3.724 3.724v33.131c.001 2.057-1.667 3.724-3.724 3.724z"/><path d="m421.717 346.037h-33.131c-2.057 0-3.724-1.667-3.724-3.724v-33.132c0-2.057 1.667-3.724 3.724-3.724h33.131c2.057 0 3.724 1.667 3.724 3.724v33.132c.001 2.057-1.667 3.724-3.724 3.724z"/><path d="m421.717 412.527h-33.131c-2.057 0-3.724-1.667-3.724-3.724v-33.131c0-2.057 1.667-3.724 3.724-3.724h33.131c2.057 0 3.724 1.667 3.724 3.724v33.131c.001 2.057-1.667 3.724-3.724 3.724z"/><path d="m421.717 479.017h-33.131c-2.057 0-3.724-1.667-3.724-3.724v-33.131c0-2.057 1.667-3.724 3.724-3.724h33.131c2.057 0 3.724 1.667 3.724 3.724v33.131c.001 2.057-1.667 3.724-3.724 3.724z"/></g><path d="m425.442 408.803v-33.131c0-2.057-1.667-3.724-3.724-3.724h-10.786v40.58h10.786c2.056-.001 3.724-1.668 3.724-3.725z" fill="#b78b7a"/><path d="m388.586 479.017h33.131c2.057 0 3.724-1.667 3.724-3.724v-33.131c0-2.057-1.667-3.724-3.724-3.724h-12.79c-3.721 14.231-12.393 26.459-24.066 34.734v2.121c.001 2.057 1.668 3.724 3.725 3.724z" fill="#b78b7a"/><path d="m421.717 238.968h-10.786v40.58h10.786c2.057 0 3.724-1.667 3.724-3.724v-33.132c.001-2.057-1.667-3.724-3.724-3.724z" fill="#b78b7a"/><path d="m425.442 309.182c0-2.057-1.667-3.724-3.724-3.724h-10.786v40.58h10.786c2.057 0 3.724-1.667 3.724-3.724z" fill="#b78b7a"/><path d="m292.882 217.202c0-2.057 1.667-3.724 3.724-3.724h101.335c21.041-87.023 9.04-154.15-5.154-181.238-2.485-4.743-3.23-10.216-2.311-15.492.957-5.49.886-8.575-.072-9.129-.958-.553-3.665.928-7.942 4.502-4.109 3.434-9.221 5.525-14.571 5.744-44.751 1.833-161.535 50.683-247.078 198.848-66.976 116.006-87.586 229.497-9.618 274.511 59.32 34.248 124.436-.74 181.687-70.525z" fill="#aa7a63"/><path d="m392.787 32.24c-2.485-4.743-3.23-10.216-2.311-15.492.957-5.49.886-8.575-.072-9.129-.958-.553-3.665.928-7.942 4.502-4.109 3.434-9.221 5.525-14.571 5.744-3.528.145-7.504.581-11.877 1.336 8.755 21.218 15.637 58.217 12.547 105.708-2.51 38.562-34.514 68.568-73.158 68.568-23.483 0-42.52 19.037-42.52 42.52v100.785c0 57.549-32.411 110.653-84.287 135.568-23.693 11.379-47.602 15.227-70.95 9.588 4.136 3.355 8.648 6.456 13.55 9.286 59.32 34.248 124.436-.74 181.687-70.525v-203.497c0-2.057 1.667-3.724 3.724-3.724h101.335c21.04-87.023 9.039-154.151-5.155-181.238z" fill="#986b54"/><path d="m450.931 283.871c4.142 0 7.5-3.357 7.5-7.5v-59.17c0-6.188-5.035-11.224-11.224-11.224h-39.839c19.736-89.852 4.57-153.348-7.938-177.218-1.662-3.172-2.218-6.98-1.565-10.725.875-5.018 2.338-13.417-3.713-16.912-6.046-3.491-12.59 1.976-16.499 5.243-2.916 2.437-6.492 3.859-10.069 4.006-21.036.861-59.188 11.801-103.181 39.921-3.49 2.23-4.511 6.868-2.28 10.358 2.229 3.489 6.867 4.512 10.358 2.28 20.532-13.124 39.516-22.27 55.769-28.255-13.317 8.975-28.532 20.868-45.131 36.125-32.068 29.476-80.392 82.102-128.501 165.43-35.454 61.406-59.511 116.871-69.573 160.397-4.587 19.844-6.272 37.271-5.036 51.96-9.315-18.157-12.966-40.681-10.883-67.416 3.531-45.328 23.65-100.901 58.181-160.71 32.262-55.88 71.538-102.1 116.737-137.377 3.266-2.548 3.847-7.262 1.298-10.526-2.549-3.268-7.263-3.85-10.527-1.298-46.727 36.469-87.269 84.144-120.499 141.701-35.643 61.735-56.441 119.499-60.145 167.045-4.241 54.438 14.18 95.142 53.272 117.711 16.504 9.528 33.832 14.237 51.706 14.236 40.443-.004 83.652-24.119 126.232-71.067v59.893c0 6.189 5.035 11.225 11.224 11.225h150.601c6.189 0 11.224-5.035 11.224-11.225v-189.408c0-4.143-3.358-7.5-7.5-7.5s-7.5 3.357-7.5 7.5v185.636h-143.048c0-184.636 0-91.446 0-276.029h143.049v55.394c0 4.142 3.358 7.499 7.5 7.499zm-58.934-77.893h-24.711c20.347-55.069 28.553-99.14 30.7-130.635 5.31 30.916 6.497 75.726-5.989 130.635zm-70.915 0c30.786-60.112 50.639-107.174 62.518-140.036-1.232 32.175-9.828 80.604-32.331 140.036zm-35.7 132.806c-32.765 53.864-65.484 95.883-94.692 121.593-20.185 17.767-38.032 27.437-53.347 28.95 10.61-8.78 23.328-23.19 38.834-43.748 26.365-34.954 59.418-86.548 95.588-149.203 4.607-7.982 9.156-15.975 13.617-23.928zm-85.517 149.295c-12.302 5.259-24.339 8.185-36.057 8.782 11.644-5.492 23.973-13.94 36.792-25.224 26.467-23.298 55.519-59.175 84.781-104.582v50.949c-28.655 34.491-57.417 58.062-85.516 70.075zm96.741-282.101c-6.189 0-11.224 5.035-11.224 11.224v24.242c-8.481 15.578-17.428 31.528-26.608 47.433-35.868 62.133-68.57 113.196-94.572 147.67-38.529 51.082-49.165 48.239-49.251 48.185-.003-.002-.007-.004-.01-.006-.24-.21-8.167-9.114 20.082-73.652 1.661-3.795-.069-8.218-3.863-9.879-3.796-1.66-8.217.068-9.878 3.863-11.829 27.025-18.934 47.463-21.473 62.366-8.264-18.675-5.242-45.375-.147-67.418 9.731-42.099 33.228-96.138 67.948-156.275 47.16-81.684 94.366-133.12 125.662-161.886 18.964-17.431 35.908-30.192 49.884-39.01-33.303 39.542-83.927 108.711-143.507 211.907-25.501 44.169-46.84 83.889-63.422 118.055-1.809 3.726-.254 8.213 3.472 10.021 3.757 1.822 8.227.226 10.022-3.473 16.427-33.844 37.596-73.243 62.918-117.104 77.178-133.674 138.553-209.067 166.315-236.657.349-.327.457-.482 2.475-2.42-.417 1.69-.785 3.067-.812 3.174-7.485 28.313-29.616 89.227-76.406 179.639h-7.605z"/><path d="m366.452 242.692c0-6.188-5.035-11.224-11.224-11.224h-33.132c-6.189 0-11.224 5.035-11.224 11.224v33.132c0 6.188 5.035 11.224 11.224 11.224h33.132c6.189 0 11.224-5.035 11.224-11.224zm-15 29.355h-25.58v-25.579h25.58z"/><path d="m366.452 309.182c0-6.189-5.035-11.225-11.224-11.225h-33.132c-6.189 0-11.224 5.035-11.224 11.225v33.132c0 6.188 5.035 11.224 11.224 11.224h33.132c6.189 0 11.224-5.035 11.224-11.224zm-15 29.355h-25.58v-25.58h25.58z"/><path d="m366.452 375.671c0-6.188-5.035-11.224-11.224-11.224h-33.132c-6.189 0-11.224 5.035-11.224 11.224v33.132c0 6.189 5.035 11.225 11.224 11.225h33.132c6.189 0 11.224-5.035 11.224-11.225zm-15 29.357h-25.58v-25.58h25.58z"/><path d="m355.228 430.938h-33.132c-6.189 0-11.224 5.035-11.224 11.224v33.132c0 6.188 5.035 11.224 11.224 11.224h33.132c6.189 0 11.224-5.035 11.224-11.224v-33.132c0-6.189-5.035-11.224-11.224-11.224zm-3.776 40.579h-25.58v-25.579h25.58z"/><path d="m432.942 242.692c0-6.188-5.035-11.224-11.224-11.224h-33.131c-6.189 0-11.224 5.035-11.224 11.224v33.132c0 6.188 5.035 11.224 11.224 11.224h33.131c6.189 0 11.224-5.035 11.224-11.224zm-15 29.355h-25.58v-25.579h25.58z"/><path d="m432.942 309.182c0-6.189-5.035-11.225-11.224-11.225h-33.131c-6.189 0-11.224 5.035-11.224 11.225v33.132c0 6.188 5.035 11.224 11.224 11.224h33.131c6.189 0 11.224-5.035 11.224-11.224zm-15 29.355h-25.58v-25.58h25.58z"/><path d="m432.942 375.671c0-6.188-5.035-11.224-11.224-11.224h-33.131c-6.189 0-11.224 5.035-11.224 11.224v33.132c0 6.189 5.035 11.225 11.224 11.225h33.131c6.189 0 11.224-5.035 11.224-11.225zm-15 29.357h-25.58v-25.58h25.58z"/><path d="m421.717 430.938h-33.131c-6.189 0-11.224 5.035-11.224 11.224v33.132c0 6.188 5.035 11.224 11.224 11.224h33.131c6.189 0 11.224-5.035 11.224-11.224v-33.132c.001-6.189-5.035-11.224-11.224-11.224zm-3.775 40.579h-25.58v-25.579h25.58z"/></g></svg>