<svg id="Icons" viewBox="0 0 60 60" xmlns="http://www.w3.org/2000/svg"><path d="m4.67 35.859 32.731-32.741c2.79-2.78 6.77-2.8 9.54-.2 3.49 3.28 2.54 7.24-.49 10.63l.02.02c3.39-3.03 7.33-3.99 10.61-.51 2.6 2.77 2.58 6.75-.2 9.54l-32.74 32.732-10.26-9.199z" fill="#ae6822"/><path d="m14.308 39.24c-.846-1.136-1.97-2.092-3.297-2.584s-2.866-.485-4.121.171c-1.248.652-2.119 1.879-2.616 3.196s-.662 2.733-.803 4.133c-.221 2.203-.382 4.505.441 6.56.805 2.009 2.498 3.579 4.436 4.544s4.109 1.372 6.267 1.532c1.983.147 4.035.085 5.871-.679s3.428-2.34 3.768-4.299c.231-1.331-.149-2.756-1.012-3.796s-2.194-1.675-3.545-1.693c-1.072-.014-2.627.727-3.698.674-1.459-.072-2.353-1.346-3.037-2.638l1.345-5.122z" fill="#96561d"/><path d="m24.025 55.452c-4.181 4.072-11.086 5.391-19.359-.118-5.509-8.273-4.19-15.178-.118-19.359 2.656-2.725 6.886-2.922 9.65-.325 3.492 3.285 2.538 7.24-.482 10.634-.354.403-.974.423-1.348.049l-1.505-1.505c-.344-.344-.354-.895-.03-1.259 2.695-3.03 1.377-4.348.787-4.928-1.239-1.249-2.922-1.249-4.171 0-3.364 3.364-3.325 8.381.069 13.84 5.459 3.394 10.476 3.433 13.84.069 1.249-1.249 1.249-2.931 0-4.171-.62-.63-2.085-2.095-5.558 1.387l-.698.698c-.384.384-1.003.384-1.387 0l-1.397-1.397c-.384-.384-.384-1.003 0-1.387l.698-.698c3.541-3.541 7.81-4.918 11.332-1.18 2.597 2.764 2.4 6.994-.325 9.65z" fill="#cc7d36"/><path d="m49.618 10.381c1.126-2.982.468-5.88-1.992-8.192-3.197-2.998-7.793-2.907-10.932.223l-2.401 2.402c-.391.391-.391 1.023 0 1.414s1.023.391 1.414 0l2.4-2.401c2.382-2.372 5.731-2.446 8.149-.18 3.46 3.252 1.61 6.817-.552 9.236-.024.027-.031.061-.052.09l-28.288 28.288c.304-2.304-.509-4.482-2.483-6.339-1.625-1.527-3.713-2.212-5.775-2.087l23.6-23.606c.391-.391.391-1.023 0-1.414s-1.023-.391-1.414 0l-27.329 27.337s-.002.005-.004.007c-.042.041-.086.076-.127.118-5.104 5.24-5.103 12.944.002 20.611.074.109.168.204.278.277 3.834 2.554 7.677 3.83 11.217 3.83s6.775-1.276 9.394-3.827t0 0c.042-.041.077-.085.118-.126.002-.002.005-.002.007-.004l32.742-32.733c3.127-3.138 3.22-7.734.22-10.932-2.35-2.493-5.211-3.152-8.191-1.992zm-44.23 44.231c-6.391-9.737-2.223-15.783-.124-17.938 2.294-2.354 5.918-2.486 8.249-.295 3.429 3.227 1.637 6.768-.497 9.188l-1.387-1.387c2.201-2.5 2.427-4.545.702-6.243-.787-.793-1.776-1.23-2.785-1.232h-.007c-1.01 0-2.003.437-2.796 1.229-3.702 3.701-3.729 9.196-.073 15.076.081.13.191.24.321.321 5.878 3.653 11.374 3.626 15.075-.073.795-.796 1.232-1.792 1.23-2.805-.002-1.008-.44-1.997-1.224-2.774-.336-.342-1.125-1.144-2.437-1.147h-.011c-1.352 0-2.834.827-4.53 2.528l-.671.698-1.397-1.37.699-.698c2.062-2.062 4.116-3.122 6.03-3.108 1.393.021 2.694.662 3.866 1.906 2.189 2.33 2.061 5.953-.294 8.249-2.156 2.099-8.201 6.268-17.939-.124zm4.769-9.077 1.447 1.447c-.764.773-.761 2.023.009 2.793l1.397 1.396c.75.751 2.053.747 2.801 0l.7-.699c1.683-1.688 2.673-1.941 3.116-1.941h.004c.442 0 .711.239 1.026.559.418.415.64.889.641 1.368 0 .483-.222.963-.644 1.386-2.993 2.991-7.394 2.955-12.406-.089-3.047-5.015-3.082-9.414-.089-12.407.421-.421.899-.644 1.382-.644h.003c.48 0 .954.223 1.377.649.464.456 1.24 1.221-.832 3.551-.678.761-.647 1.917.069 2.631zm46.019-23.644-29.01 29.001c.126-2.062-.56-4.15-2.088-5.776-1.558-1.653-3.338-2.507-5.293-2.536-.322-.005-.647.022-.974.063l28.341-28.341c2.415-2.153 5.967-3.994 9.201-.559 2.268 2.417 2.194 5.768-.178 8.148z" fill="#161616"/></svg>