<?xml version="1.0" encoding="UTF-8" standalone="no"?>
<!-- Created with Inkscape (http://www.inkscape.org/) -->

<svg
   version="1.1"
   id="svg6897"
   xml:space="preserve"
   width="682.66669"
   height="682.66669"
   viewBox="0 0 682.66669 682.66669"
   xmlns="http://www.w3.org/2000/svg"
   xmlns:svg="http://www.w3.org/2000/svg"><defs
     id="defs6901"><clipPath
       clipPathUnits="userSpaceOnUse"
       id="clipPath6911"><path
         d="M 0,512 H 512 V 0 H 0 Z"
         id="path6909" /></clipPath></defs><g
     id="g6903"
     transform="matrix(1.3333333,0,0,-1.3333333,0,682.66667)"><g
       id="g6905"><g
         id="g6907"
         clip-path="url(#clipPath6911)"><g
           id="g6913"
           transform="translate(443.9854,428.6846)"><path
             d="m 0,0 v -409.215 c 0,-6.723 -5.446,-12.17 -12.17,-12.17 h -351.631 c -6.723,0 -12.17,5.447 -12.17,12.17 V 0 c 0,0.842 0.264,1.673 0.751,2.362 l 48.71,68.162 c 2.282,3.195 5.974,5.091 9.899,5.091 h 257.252 c 3.924,0 7.616,-1.896 9.898,-5.091 L -0.751,2.362 C -0.264,1.673 0,0.842 0,0"
             style="fill:#fef0ae;fill-opacity:1;fill-rule:nonzero;stroke:none"
             id="path6915" /></g><g
           id="g6917"
           transform="translate(152.7275,504.2998)"><path
             d="m 0,0 c -3.925,0 -7.616,-1.896 -9.897,-5.091 l -48.711,-68.162 c -0.487,-0.689 -0.75,-1.52 -0.75,-2.362 V -484.83 c 0,-6.724 5.446,-12.17 12.17,-12.17 h -25.355 c -6.724,0 -12.17,5.446 -12.17,12.17 v 409.215 c 0,0.842 0.264,1.673 0.751,2.362 l 48.71,68.162 C -32.97,-1.896 -29.278,0 -25.354,0 Z"
             style="fill:#fee97d;fill-opacity:1;fill-rule:nonzero;stroke:none"
             id="path6919" /></g><path
           d="M 443.985,154.77 H 68.014 v 127.743 h 375.971 z"
           style="fill:#fdb97e;fill-opacity:1;fill-rule:nonzero;stroke:none"
           id="path6921" /><path
           d="M 93.369,154.77 H 68.015 v 127.743 h 25.354 z"
           style="fill:#fea95c;fill-opacity:1;fill-rule:nonzero;stroke:none"
           id="path6923" /><g
           id="g6925"
           transform="translate(359.4863,218.6436)"><path
             d="m 0,0 c 0,-68.848 -46.333,-124.659 -103.486,-124.659 -57.155,0 -103.487,55.811 -103.487,124.659 0,68.848 46.332,124.659 103.487,124.659 C -46.333,124.659 0,68.848 0,0"
             style="fill:#dff6fd;fill-opacity:1;fill-rule:nonzero;stroke:none"
             id="path6927" /></g><g
           id="g6929"
           transform="translate(268.6768,94.9131)"><path
             d="m 0,0 c -4.158,-0.618 -8.387,-0.933 -12.677,-0.933 -57.158,0 -103.485,55.82 -103.485,124.662 0,68.85 46.327,124.66 103.485,124.66 4.29,0 8.519,-0.315 12.677,-0.933 C -51.175,239.931 -90.808,187.407 -90.808,123.729 -90.808,60.059 -51.175,7.525 0,0"
             style="fill:#c8effe;fill-opacity:1;fill-rule:nonzero;stroke:none"
             id="path6931" /></g><g
           id="g6933"
           transform="translate(236.5928,247.8145)"><path
             d="m 0,0 c 0,-13.995 6.06,-26.571 15.694,-35.259 2.109,-1.899 5.318,-1.899 7.426,0 9.635,8.688 15.694,21.264 15.694,35.259 0,13.995 -6.059,26.57 -15.694,35.258 -2.108,1.9 -5.317,1.9 -7.426,0 C 6.06,26.57 0,13.995 0,0"
             style="fill:#fdb97e;fill-opacity:1;fill-rule:nonzero;stroke:none"
             id="path6935" /></g><g
           id="g6937"
           transform="translate(214.126,196.9941)"><path
             d="m 0,0 c 10.721,-8.996 24.249,-12.438 37.098,-10.641 2.81,0.393 4.874,2.852 4.772,5.688 C 41.408,8.013 35.671,20.737 24.949,29.733 14.229,38.729 0.7,42.171 -12.148,40.374 -14.959,39.981 -17.021,37.522 -16.921,34.687 -16.459,21.722 -10.721,8.996 0,0"
             style="fill:#fdb97e;fill-opacity:1;fill-rule:nonzero;stroke:none"
             id="path6939" /></g><g
           id="g6941"
           transform="translate(272.9248,226.7275)"><path
             d="m 0,0 c 10.721,8.996 24.249,12.438 37.098,10.641 2.81,-0.393 4.873,-2.852 4.772,-5.688 -0.462,-12.965 -6.2,-25.69 -16.921,-34.686 -10.72,-8.996 -24.249,-12.438 -37.097,-10.641 -2.811,0.393 -4.874,2.852 -4.773,5.687 C -16.459,-21.721 -10.722,-8.995 0,0"
             style="fill:#fdb97e;fill-opacity:1;fill-rule:nonzero;stroke:none"
             id="path6943" /></g><g
           id="g6945"
           transform="translate(68.0146,101.3232)"><path
             d="m 0,0 v 327.361 c 0,0.841 0.264,1.673 0.751,2.363 l 48.71,68.162 c 2.282,3.194 5.974,5.091 9.898,5.091 h 257.252 c 3.925,0 7.617,-1.897 9.899,-5.091 l 48.71,-68.162 c 0.487,-0.69 0.751,-1.522 0.751,-2.363 v -50.11"
             style="fill:none;stroke:#000000;stroke-width:15;stroke-linecap:round;stroke-linejoin:round;stroke-miterlimit:10;stroke-dasharray:none;stroke-opacity:1"
             id="path6947" /></g><g
           id="g6949"
           transform="translate(443.9854,343.0791)"><path
             d="m 0,0 v -323.609 c 0,-6.724 -5.446,-12.17 -12.17,-12.17 h -351.631 c -6.723,0 -12.17,5.446 -12.17,12.17 v 46.357"
             style="fill:none;stroke:#000000;stroke-width:15;stroke-linecap:round;stroke-linejoin:round;stroke-miterlimit:10;stroke-dasharray:none;stroke-opacity:1"
             id="path6951" /></g><g
           id="g6953"
           transform="translate(167.1191,154.7695)"><path
             d="M 0,0 H -99.104"
             style="fill:none;stroke:#000000;stroke-width:15;stroke-linecap:round;stroke-linejoin:round;stroke-miterlimit:10;stroke-dasharray:none;stroke-opacity:1"
             id="path6955" /></g><g
           id="g6957"
           transform="translate(443.9854,154.7695)"><path
             d="M 0,0 H -99.104"
             style="fill:none;stroke:#000000;stroke-width:15;stroke-linecap:round;stroke-linejoin:round;stroke-miterlimit:10;stroke-dasharray:none;stroke-opacity:1"
             id="path6959" /></g><g
           id="g6961"
           transform="translate(167.1191,282.5127)"><path
             d="M 0,0 H -99.104"
             style="fill:none;stroke:#000000;stroke-width:15;stroke-linecap:round;stroke-linejoin:round;stroke-miterlimit:10;stroke-dasharray:none;stroke-opacity:1"
             id="path6963" /></g><g
           id="g6965"
           transform="translate(443.9854,282.5127)"><path
             d="M 0,0 H -99.104"
             style="fill:none;stroke:#000000;stroke-width:15;stroke-linecap:round;stroke-linejoin:round;stroke-miterlimit:10;stroke-dasharray:none;stroke-opacity:1"
             id="path6967" /></g><g
           id="g6969"
           transform="translate(359.4863,218.6436)"><path
             d="m 0,0 c 0,-68.848 -46.333,-124.659 -103.486,-124.659 -57.154,0 -103.487,55.811 -103.487,124.659 0,68.848 46.333,124.659 103.487,124.659 C -46.333,124.659 0,68.848 0,0 Z"
             style="fill:none;stroke:#000000;stroke-width:15;stroke-linecap:round;stroke-linejoin:round;stroke-miterlimit:10;stroke-dasharray:none;stroke-opacity:1"
             id="path6971" /></g><g
           id="g6973"
           transform="translate(68.7695,431.0439)"><path
             d="M 0,0 375.217,-2.359"
             style="fill:none;stroke:#000000;stroke-width:15;stroke-linecap:round;stroke-linejoin:round;stroke-miterlimit:10;stroke-dasharray:none;stroke-opacity:1"
             id="path6975" /></g><g
           id="g6977"
           transform="translate(355.1504,73.9502)"><path
             d="M 0,0 H 61.108"
             style="fill:none;stroke:#000000;stroke-width:15;stroke-linecap:round;stroke-linejoin:round;stroke-miterlimit:10;stroke-dasharray:none;stroke-opacity:1"
             id="path6979" /></g><g
           id="g6981"
           transform="translate(314.7988,41.8418)"><path
             d="M 0,0 H 101.46"
             style="fill:none;stroke:#000000;stroke-width:15;stroke-linecap:round;stroke-linejoin:round;stroke-miterlimit:10;stroke-dasharray:none;stroke-opacity:1"
             id="path6983" /></g><g
           id="g6985"
           transform="translate(256,431.0674)"><path
             d="M 0,0 V 37.931"
             style="fill:none;stroke:#000000;stroke-width:15;stroke-linecap:round;stroke-linejoin:round;stroke-miterlimit:10;stroke-dasharray:none;stroke-opacity:1"
             id="path6987" /></g><g
           id="g6989"
           transform="translate(220.5049,431.0674)"><path
             d="M 0,0 V 37.931"
             style="fill:none;stroke:#000000;stroke-width:15;stroke-linecap:round;stroke-linejoin:round;stroke-miterlimit:10;stroke-dasharray:none;stroke-opacity:1"
             id="path6991" /></g><g
           id="g6993"
           transform="translate(185.0088,431.0674)"><path
             d="M 0,0 V 37.931"
             style="fill:none;stroke:#000000;stroke-width:15;stroke-linecap:round;stroke-linejoin:round;stroke-miterlimit:10;stroke-dasharray:none;stroke-opacity:1"
             id="path6995" /></g><g
           id="g6997"
           transform="translate(149.5127,431.0674)"><path
             d="M 0,0 V 37.931"
             style="fill:none;stroke:#000000;stroke-width:15;stroke-linecap:round;stroke-linejoin:round;stroke-miterlimit:10;stroke-dasharray:none;stroke-opacity:1"
             id="path6999" /></g><g
           id="g7001"
           transform="translate(291.4961,431.0674)"><path
             d="M 0,0 V 37.931"
             style="fill:none;stroke:#000000;stroke-width:15;stroke-linecap:round;stroke-linejoin:round;stroke-miterlimit:10;stroke-dasharray:none;stroke-opacity:1"
             id="path7003" /></g><g
           id="g7005"
           transform="translate(362.4873,431.0674)"><path
             d="M 0,0 V 37.931"
             style="fill:none;stroke:#000000;stroke-width:15;stroke-linecap:round;stroke-linejoin:round;stroke-miterlimit:10;stroke-dasharray:none;stroke-opacity:1"
             id="path7007" /></g><g
           id="g7009"
           transform="translate(326.9912,431.0674)"><path
             d="M 0,0 V 37.931"
             style="fill:none;stroke:#000000;stroke-width:15;stroke-linecap:round;stroke-linejoin:round;stroke-miterlimit:10;stroke-dasharray:none;stroke-opacity:1"
             id="path7011" /></g><g
           id="g7013"
           transform="translate(256,152.7891)"><path
             d="M 0,0 V 58.35"
             style="fill:none;stroke:#000000;stroke-width:15;stroke-linecap:round;stroke-linejoin:round;stroke-miterlimit:10;stroke-dasharray:none;stroke-opacity:1"
             id="path7015" /></g><g
           id="g7017"
           transform="translate(236.5928,247.8145)"><path
             d="m 0,0 c 0,-13.995 6.06,-26.571 15.694,-35.259 2.109,-1.899 5.318,-1.899 7.426,0 9.635,8.688 15.694,21.264 15.694,35.259 0,13.995 -6.059,26.57 -15.694,35.258 -2.108,1.9 -5.317,1.9 -7.426,0 C 6.06,26.57 0,13.995 0,0 Z"
             style="fill:none;stroke:#000000;stroke-width:15;stroke-linecap:round;stroke-linejoin:round;stroke-miterlimit:10;stroke-dasharray:none;stroke-opacity:1"
             id="path7019" /></g><g
           id="g7021"
           transform="translate(214.126,196.9941)"><path
             d="m 0,0 c 10.721,-8.996 24.249,-12.438 37.098,-10.641 2.81,0.393 4.874,2.852 4.772,5.688 C 41.408,8.013 35.671,20.737 24.949,29.733 14.229,38.729 0.7,42.171 -12.148,40.374 -14.959,39.981 -17.021,37.522 -16.921,34.687 -16.459,21.722 -10.721,8.996 0,0 Z"
             style="fill:none;stroke:#000000;stroke-width:15;stroke-linecap:round;stroke-linejoin:round;stroke-miterlimit:10;stroke-dasharray:none;stroke-opacity:1"
             id="path7023" /></g><g
           id="g7025"
           transform="translate(272.9248,226.7275)"><path
             d="m 0,0 c 10.721,8.996 24.249,12.438 37.098,10.641 2.81,-0.393 4.873,-2.852 4.772,-5.688 -0.462,-12.965 -6.2,-25.69 -16.921,-34.686 -10.72,-8.996 -24.249,-12.438 -37.097,-10.641 -2.811,0.393 -4.874,2.852 -4.773,5.687 C -16.459,-21.721 -10.722,-8.995 0,0 Z"
             style="fill:none;stroke:#000000;stroke-width:15;stroke-linecap:round;stroke-linejoin:round;stroke-miterlimit:10;stroke-dasharray:none;stroke-opacity:1"
             id="path7027" /></g></g></g></g></svg>
