<svg version="1.1" id="Layer_1" xmlns="http://www.w3.org/2000/svg" xmlns:xlink="http://www.w3.org/1999/xlink" x="0px" y="0px" viewBox="0 0 512 512" style="enable-background:new 0 0 512 512;" xml:space="preserve">
<g>
	<g>
		<polygon style="fill:#AA4B30;" points="320.66,7.5 320.66,225.099 200.66,225.099 200.66,504.5 470.66,504.5 470.66,7.5 &#9;&#9;"/>
		<g>
			<polygon style="fill:#8D3D27;" points="223.141,464.55 223.141,307.408 304.213,225.099 200.66,225.099 200.66,504.5 &#10;&#9;&#9;&#9;&#9;470.66,504.5 470.66,479.742 238.333,479.742 &#9;&#9;&#9;"/>
		</g>
		<polygon style="fill:#8D3D27;" points="264.915,265.146 304.049,224.869 236.366,224.869 230.66,230.576 230.66,286.67 &#10;&#9;&#9;&#9;320.66,286.67 320.66,265.146 &#9;&#9;"/>
		
			<rect x="101.119" y="177.54" transform="matrix(0.7071 -0.7071 0.7071 0.7071 -116.3821 194.109)" style="fill:#AA4B30;" width="150" height="120"/>
		
			<rect x="119.782" y="222.596" transform="matrix(0.7071 -0.7071 0.7071 0.7071 -161.438 175.4466)" style="fill:#8D3D27;" width="22.563" height="120"/>
		<polygon style="fill:#8D3D27;" points="375.309,80.243 371.915,76.809 371.915,39.699 350.66,39.699 350.66,88.064 &#10;&#9;&#9;&#9;364.053,101.499 440.66,101.499 440.66,80.243 &#9;&#9;"/>
		<polygon style="fill:#8D3D27;" points="371.915,172.675 371.915,132.399 356.366,132.399 350.66,138.105 350.66,194.199 &#10;&#9;&#9;&#9;440.66,194.199 440.66,172.675 &#9;&#9;"/>
		<polygon style="fill:#8D3D27;" points="371.915,265.146 371.915,224.869 356.366,224.869 350.66,230.576 350.66,286.67 &#10;&#9;&#9;&#9;440.66,286.67 440.66,265.146 &#9;&#9;"/>
		<polygon style="fill:#8D3D27;" points="371.915,358.075 371.915,317.799 356.366,317.799 350.66,323.505 350.66,379.599 &#10;&#9;&#9;&#9;440.66,379.599 440.66,358.075 &#9;&#9;"/>
		<polygon style="fill:#8D3D27;" points="371.915,451.004 371.915,410.728 356.366,410.728 350.66,416.434 350.66,472.528 &#10;&#9;&#9;&#9;440.66,472.528 440.66,451.004 &#9;&#9;"/>
		<polygon style="fill:#8D3D27;" points="251.915,451.004 251.915,410.728 236.366,410.728 230.66,416.434 230.66,472.528 &#10;&#9;&#9;&#9;320.66,472.528 320.66,451.004 &#9;&#9;"/>
		<polygon style="fill:#8D3D27;" points="251.915,358.075 251.915,317.799 236.366,317.799 230.66,323.505 230.66,379.599 &#10;&#9;&#9;&#9;320.66,379.599 320.66,358.075 &#9;&#9;"/>
		<g>
			
				<rect x="140.845" y="231.02" transform="matrix(0.7071 -0.7071 0.7071 0.7071 -139.8622 184.3819)" style="fill:#8D3D27;" width="23.587" height="60"/>
		</g>
		
			<rect x="205.2" y="42.499" transform="matrix(0.7071 0.7071 -0.7071 0.7071 154.5463 -168.1105)" style="fill:#AA4B30;" width="150" height="120"/>
		
			<rect x="234.477" y="61.966" transform="matrix(0.7071 -0.7071 0.7071 0.7071 -24.8757 213.8762)" style="fill:#8D3D27;" width="22.513" height="150"/>
		
			<rect x="255.665" y="70.691" transform="matrix(0.7071 -0.7071 0.7071 0.7071 -3.6013 222.6882)" style="fill:#8D3D27;" width="22.686" height="90"/>
		
			<line style="fill:none;stroke:#FFFFFF;stroke-width:15;stroke-linejoin:bevel;stroke-miterlimit:10;" x1="264.532" y1="86.511" x2="275.139" y2="97.117"/>
		
			<line style="fill:none;stroke:#FFFFFF;stroke-width:15;stroke-linejoin:bevel;stroke-miterlimit:10;" x1="285.745" y1="107.724" x2="296.352" y2="118.33"/>
		<rect x="110.66" y="91" style="fill:#AA4B30;" width="30" height="30"/>
		
			<rect x="50.66" y="61" transform="matrix(0.7071 0.7071 -0.7071 0.7071 72.9715 -24.1687)" style="fill:#AA4B30;" width="30" height="30"/>
	</g>
	<g>
		<polyline style="fill:none;stroke:#000000;stroke-width:15;stroke-linejoin:bevel;stroke-miterlimit:10;" points="350.66,89.064 &#10;&#9;&#9;&#9;350.66,39.699 440.66,39.699 440.66,101.499 364.053,101.499 &#9;&#9;"/>
		<polyline style="fill:none;stroke:#000000;stroke-width:15;stroke-linejoin:bevel;stroke-miterlimit:10;" points="&#10;&#9;&#9;&#9;356.366,132.399 440.66,132.399 440.66,194.199 350.66,194.199 350.66,138.105 &#9;&#9;"/>
		
			<rect x="350.66" y="225.099" style="fill:none;stroke:#000000;stroke-width:15;stroke-linejoin:bevel;stroke-miterlimit:10;" width="90" height="61.8"/>
		
			<rect x="350.66" y="317.799" style="fill:none;stroke:#000000;stroke-width:15;stroke-linejoin:bevel;stroke-miterlimit:10;" width="90" height="61.8"/>
		
			<rect x="350.66" y="410.499" style="fill:none;stroke:#000000;stroke-width:15;stroke-linejoin:bevel;stroke-miterlimit:10;" width="90" height="61.8"/>
		
			<rect x="131.119" y="207.54" transform="matrix(0.7071 -0.7071 0.7071 0.7071 -116.3821 194.1091)" style="fill:none;stroke:#000000;stroke-width:15;stroke-linejoin:bevel;stroke-miterlimit:10;" width="90" height="60"/>
		<polyline style="fill:none;stroke:#000000;stroke-width:15;stroke-linejoin:bevel;stroke-miterlimit:10;" points="&#10;&#9;&#9;&#9;152.052,176.754 186.726,142.081 271.579,226.934 165.513,333 80.66,248.147 140.66,188.147 &#9;&#9;"/>
		
			<rect x="235.2" y="72.499" transform="matrix(0.7071 0.7071 -0.7071 0.7071 154.5463 -168.1105)" style="fill:none;stroke:#000000;stroke-width:15;stroke-linejoin:bevel;stroke-miterlimit:10;" width="90" height="60"/>
		
			<rect x="205.2" y="42.499" transform="matrix(0.7071 0.7071 -0.7071 0.7071 154.5463 -168.1105)" style="fill:none;stroke:#000000;stroke-width:15;stroke-linejoin:bevel;stroke-miterlimit:10;" width="150" height="120"/>
		<polyline style="fill:none;stroke:#000000;stroke-width:15;stroke-linejoin:bevel;stroke-miterlimit:10;" points="&#10;&#9;&#9;&#9;271.579,225.099 320.66,225.099 320.66,286.899 230.66,286.899 230.66,266.255 &#9;&#9;"/>
		
			<rect x="230.66" y="317.799" style="fill:none;stroke:#000000;stroke-width:15;stroke-linejoin:bevel;stroke-miterlimit:10;" width="90" height="61.8"/>
		
			<rect x="230.66" y="410.499" style="fill:none;stroke:#000000;stroke-width:15;stroke-linejoin:bevel;stroke-miterlimit:10;" width="90" height="61.8"/>
		<polyline style="fill:none;stroke:#000000;stroke-width:15;stroke-linejoin:bevel;stroke-miterlimit:10;" points="&#10;&#9;&#9;&#9;271.579,225.099 320.66,225.099 320.66,168.723 &#9;&#9;"/>
		<polyline style="fill:none;stroke:#000000;stroke-width:15;stroke-linejoin:bevel;stroke-miterlimit:10;" points="470.66,403.127 &#10;&#9;&#9;&#9;470.66,504.5 200.66,504.5 200.66,295.852 &#9;&#9;"/>
		<polyline style="fill:none;stroke:#000000;stroke-width:15;stroke-linejoin:bevel;stroke-miterlimit:10;" points="320.66,58.425 &#10;&#9;&#9;&#9;320.66,7.5 470.66,7.5 470.66,388.297 &#9;&#9;"/>
		<rect x="110.66" y="91" style="fill:none;stroke:#000000;stroke-width:15;stroke-miterlimit:10;" width="30" height="30"/>
		
			<rect x="50.66" y="61" transform="matrix(0.7071 0.7071 -0.7071 0.7071 72.9715 -24.1687)" style="fill:none;stroke:#000000;stroke-width:15;stroke-miterlimit:10;" width="30" height="30"/>
	</g>
</g>
<g>
</g>
<g>
</g>
<g>
</g>
<g>
</g>
<g>
</g>
<g>
</g>
<g>
</g>
<g>
</g>
<g>
</g>
<g>
</g>
<g>
</g>
<g>
</g>
<g>
</g>
<g>
</g>
<g>
</g>
</svg>