<svg height="512" viewBox="0 0 64 64" width="512" xmlns="http://www.w3.org/2000/svg"><g id="Back"><path d="m-20-860h524v1196h-524z" fill="#fff"/></g><g id="Filled_Expand" data-name="Filled Expand"><path d="m50 47.823a71.463 71.463 0 0 0 1-11.823 71.367 71.367 0 0 0 -1-12h-36a71.438 71.438 0 0 0 0 23.823c-.548 2.825-1.444 4.286-2.338 4.931a4 4 0 0 0 -1.643 3.639 4.116 4.116 0 0 0 4.153 3.607h35.656a4.116 4.116 0 0 0 4.153-3.607 4 4 0 0 0 -1.643-3.639 6.03 6.03 0 0 1 -2.338-4.931z" fill="#ffe67b"/><path d="m53.981 56.393a4 4 0 0 0 -1.643-3.639 6.03 6.03 0 0 1 -2.338-4.931 71.463 71.463 0 0 0 1-11.823 71.367 71.367 0 0 0 -1-12h-34a71.438 71.438 0 0 0 0 23.823c-.548 2.825-1.444 4.286-2.338 4.931a4 4 0 0 0 -1.643 3.639 4.116 4.116 0 0 0 4.153 3.607h33.656a4.116 4.116 0 0 0 4.153-3.607z" fill="#ffdc46"/><path d="m50 24h-36c-.108.64-.209 1.312-.306 2h36.612c-.097-.688-.198-1.36-.306-2z" fill="#efcd2d"/><path d="m48.5 19s3.21-7.962-1.873-9.62a7.875 7.875 0 0 1 -3.554-2.367c-1.741-2.031-5.023-4.481-9.573-1.9-7 3.968-19 4.96-19 13.889z" fill="#fffbf9"/><path d="m35.5 7.111c-6.437 3.649-17.095 4.789-18.769 11.889h31.769s3.21-7.962-1.873-9.62a7.93 7.93 0 0 1 -2.621-1.461h-.006l-.1-.083c-.032-.027-.065-.052-.1-.08a6.8 6.8 0 0 0 -8.3-.645z" fill="#fff0eb"/><path d="m11 18h42v6h-42z" fill="#ffe67b"/><path d="m11 20h42v4h-42z" fill="#ffdc46"/><g fill="#efcd2d"><path d="m38.763 37.48h1a0 0 0 0 1 0 0v1a5 5 0 0 1 -5 5h-1a0 0 0 0 1 0 0v-1a5 5 0 0 1 5-5z" transform="matrix(.707 .707 -.707 .707 39.391 -14.139)"/><path d="m35.086 41.157h1a0 0 0 0 1 0 0v1a5 5 0 0 1 -5 5h-1a0 0 0 0 1 0 0v-1a5 5 0 0 1 5-5z" transform="matrix(.707 .707 -.707 .707 40.914 -10.462)"/><path d="m29.52 33.237h1a5 5 0 0 1 5 5v1a0 0 0 0 1 0 0h-1a5 5 0 0 1 -5-5v-1a0 0 0 0 1 0 0z" transform="matrix(-.707 -.707 .707 -.707 29.892 84.856)"/><path d="m25.843 36.914h1a5 5 0 0 1 5 5v1a0 0 0 0 1 0 0h-1a5 5 0 0 1 -5-5v-1a0 0 0 0 1 0 0z" transform="matrix(-.707 -.707 .707 -.707 21.015 88.533)"/><path d="m31.409 44.834h1a0 0 0 0 1 0 0v1a5 5 0 0 1 -5 5h-1a0 0 0 0 1 0 0v-1a5 5 0 0 1 5-5z" transform="matrix(.707 .707 -.707 .707 42.437 -6.785)"/><path d="m22.166 40.591h1a5 5 0 0 1 5 5v1a0 0 0 0 1 0 0h-1a5 5 0 0 1 -5-5v-1a0 0 0 0 1 0 0z" transform="matrix(-.707 -.707 .707 -.707 12.138 92.21)"/><path d="m39.641 32.359h1a0 0 0 0 1 0 0v1a5 5 0 0 1 -5 5h-1a0 0 0 0 1 0 0v-1a5 5 0 0 1 5-5z"/></g><path d="m16 24h-2c-.108.64-.209 1.312-.306 2h2c.097-.688.198-1.36.306-2z" fill="#ffdc46"/><path d="m52.923 51.942a5.005 5.005 0 0 1 -1.923-4.042 72.6 72.6 0 0 0 1-11.9 72.519 72.519 0 0 0 -.842-11h1.842a1 1 0 0 0 1-1v-6a1 1 0 0 0 -1-1h-2.862c1.031-4.465-.1-7.559-3.2-8.57a6.92 6.92 0 0 1 -3.1-2.067c-1.778-2.077-5.551-5.112-10.825-2.122a46.678 46.678 0 0 1 -6.549 2.812c-5.714 2.129-11.595 4.335-12.748 9.947h-2.716a1 1 0 0 0 -1 1v6a1 1 0 0 0 1 1h1.842a71.818 71.818 0 0 0 .141 22.807c-.571 2.81-1.436 3.8-1.906 4.136a4.967 4.967 0 0 0 -2.054 4.544 5.133 5.133 0 0 0 5.149 4.513h35.656a5.133 5.133 0 0 0 5.149-4.513 4.97 4.97 0 0 0 -2.054-4.545zm-25.766-43.016a48.605 48.605 0 0 0 6.836-2.945c3.071-1.741 5.871-1.175 8.32 1.683a8.915 8.915 0 0 0 4 2.667c2.791.91 2.308 4.554 1.764 6.669h-32.304c1.167-4.252 6.136-6.115 11.384-8.074zm-15.157 10.074h40v4h-40zm37.828 40h-35.656a3.119 3.119 0 0 1 -3.158-2.7 2.989 2.989 0 0 1 1.233-2.734c1.279-.921 2.2-2.79 2.735-5.551a1.025 1.025 0 0 0 0-.358 69.935 69.935 0 0 1 -.119-22.657h34.274a70.6 70.6 0 0 1 .863 11 70.618 70.618 0 0 1 -.986 11.656 1.055 1.055 0 0 0 -.014.167 7.02 7.02 0 0 0 2.753 5.742 2.989 2.989 0 0 1 1.233 2.735 3.119 3.119 0 0 1 -3.158 2.7z"/><path d="m41.005 39.065a5.91 5.91 0 0 0 -1.543-1.084 5.989 5.989 0 0 0 2.18-4.623v-1a1 1 0 0 0 -1-1h-1a5.988 5.988 0 0 0 -4.6 2.159 6.042 6.042 0 0 0 -1.107-1.517l-.707-.708a1.031 1.031 0 0 0 -1.415 0l-.707.708a5.951 5.951 0 0 0 -1.61 2.934.993.993 0 0 0 -1.36.036l-.707.707a5.946 5.946 0 0 0 -1.61 2.934.993.993 0 0 0 -1.36.036l-.707.707a6 6 0 0 0 0 8.485l-1.131 1.131a1 1 0 1 0 1.414 1.414l1.131-1.131a6.007 6.007 0 0 0 8.484 0l.707-.707a.994.994 0 0 0 .029-1.371 5.939 5.939 0 0 0 2.941-1.6l.708-.707a.979.979 0 0 0 .036-1.36 5.947 5.947 0 0 0 2.933-1.61l.707-.707a1 1 0 0 0 0-1.415zm-1.363-5.707a4 4 0 0 1 -4 4 4 4 0 0 1 4-4zm-7.122.051a4 4 0 0 1 0 5.656 4 4 0 0 1 0-5.656zm-3.677 3.677a4 4 0 0 1 0 5.653 4 4 0 0 1 0-5.657zm-4.843 6.505a3.974 3.974 0 0 1 1.171-2.828 4.005 4.005 0 0 1 0 5.652v.005a3.978 3.978 0 0 1 -1.171-2.829zm2.586 4.243a4.093 4.093 0 0 1 5.656 0 4 4 0 0 1 -5.661 0zm3.676-3.677a4.1 4.1 0 0 1 5.657 0 4 4 0 0 1 -5.662 0zm3.677-3.677a4.007 4.007 0 0 1 5.655 0 4.1 4.1 0 0 1 -5.66 0z"/></g></svg>