<svg version="1.1" id="Capa_1" xmlns="http://www.w3.org/2000/svg" xmlns:xlink="http://www.w3.org/1999/xlink" x="0px" y="0px" viewBox="0 0 510 510" style="enable-background:new 0 0 510 510;" xml:space="preserve">
<g>
	<g>
		<g>
			<polygon style="fill-rule:evenodd;clip-rule:evenodd;fill:#27A2CC;" points="30.385,129.999 215,129.999 399.616,129.999 &#10;&#9;&#9;&#9;&#9;410.001,129.999 395.001,64.999 35,64.999 20,129.999 &#9;&#9;&#9;"/>
			<path style="fill-rule:evenodd;clip-rule:evenodd;fill:#FFFFFF;" d="M323.313,238.312c14.059-9.331,34.807-5.539,43.429,11.374&#10;&#9;&#9;&#9;&#9;c6.662-2.841,13.726-3.065,20.113-1.2l12.76-118.486l-369.231-0.001L60,405h134.645c-9.357-17.95-14.647-38.357-14.647-60h24.794&#10;&#9;&#9;&#9;&#9;l-1.603-2.775c-1.727-3.787-2.691-7.997-2.691-12.432c0-17.963,15.665-31.885,33.526-29.793&#10;&#9;&#9;&#9;&#9;c-0.818-20.644,18.857-35.693,38.372-30.014c4.474-17.875,23.958-27.507,40.859-20.3&#10;&#9;&#9;&#9;&#9;C315.747,244.799,319.251,241.008,323.313,238.312z"/>
			<path style="fill-rule:evenodd;clip-rule:evenodd;fill:#FFFFFF;" d="M204.793,345h271.128l0.555-2.07&#10;&#9;&#9;&#9;&#9;c1.937-3.967,3.024-8.425,3.024-13.137c0-17.963-15.665-31.885-33.526-29.793c0.818-20.644-18.857-35.693-38.372-30.014&#10;&#9;&#9;&#9;&#9;c-2.71-10.829-10.929-18.633-20.746-21.5c-6.388-1.865-13.451-1.641-20.113,1.2c-8.622-16.913-29.371-20.704-43.429-11.374&#10;&#9;&#9;&#9;&#9;c-4.062,2.696-7.565,6.487-10.057,11.374c-16.902-7.207-36.385,2.425-40.859,20.3c-19.515-5.679-39.19,9.37-38.372,30.014&#10;&#9;&#9;&#9;&#9;c-17.861-2.092-33.526,11.83-33.526,29.793c0,4.435,0.964,8.645,2.691,12.432L204.793,345z"/>
			<path style="fill-rule:evenodd;clip-rule:evenodd;fill:#D2DCFD;" d="M323.313,238.312c14.059-9.331,34.807-5.539,43.429,11.374&#10;&#9;&#9;&#9;&#9;c6.662-2.841,13.726-3.065,20.113-1.2l3.769-34.998c-3.342-0.647-6.745-1.034-10.18-1.147c-23.461-18.649-57.43-18.65-80.891,0&#10;&#9;&#9;&#9;&#9;c-18.139,0.596-35.406,8.844-47.278,22.545c-19.941,3.7-37.207,16.663-46.335,34.736c-18.628,7.591-32.592,23.47-37.997,42.513&#10;&#9;&#9;&#9;&#9;c-13.387,4.916-22.945,17.781-22.945,32.866c0,20.593,3.83,40.901,11.3,60h38.347c-9.357-17.95-14.647-38.357-14.647-60h24.794&#10;&#9;&#9;&#9;&#9;l-1.603-2.775c-1.727-3.787-2.691-7.997-2.691-12.432c0-17.963,15.665-31.885,33.526-29.793&#10;&#9;&#9;&#9;&#9;c-0.818-20.644,18.857-35.693,38.372-30.014c4.474-17.875,23.958-27.507,40.859-20.3&#10;&#9;&#9;&#9;&#9;C315.747,244.799,319.251,241.008,323.313,238.312z"/>
			<path style="fill-rule:evenodd;clip-rule:evenodd;fill:#FDCB50;" d="M475.921,345H204.793h-24.794c0,21.643,5.29,42.05,14.647,60&#10;&#9;&#9;&#9;&#9;c8.027,15.399,19.048,28.989,32.289,40h226.129C481.74,421.154,500,385.211,500,345H475.921z"/>
			<path style="fill-rule:evenodd;clip-rule:evenodd;fill:#67CCD1;" d="M234.025,300c-0.818-20.644,18.857-35.693,38.372-30.014&#10;&#9;&#9;&#9;&#9;c4.474-17.875,23.958-27.507,40.859-20.3c2.105-4.13,4.934-7.477,8.211-10.042l-24.021-27.197L215,129.999l-184.616-0.001&#10;&#9;&#9;&#9;&#9;l7.892,73.279l116.977,116.977L182.999,345h21.794l-1.603-2.775c-1.727-3.787-2.691-7.997-2.691-12.432&#10;&#9;&#9;&#9;&#9;C200.499,311.83,216.165,297.908,234.025,300z"/>
			<path style="fill-rule:evenodd;clip-rule:evenodd;fill:#27A2CC;" d="M234.025,300c-0.818-20.644,18.857-35.693,38.372-30.014&#10;&#9;&#9;&#9;&#9;c4.474-17.875,23.958-27.507,40.859-20.3c2.491-4.887,5.995-8.678,10.057-11.374l-25.866-25.866&#10;&#9;&#9;&#9;&#9;c-17.364,1.14-33.76,9.27-45.171,22.44c-19.941,3.7-37.207,16.663-46.335,34.736c-18.628,7.591-32.592,23.47-37.997,42.513&#10;&#9;&#9;&#9;&#9;c-4.814,1.768-9.133,4.563-12.69,8.121L179.999,345h24.794l-1.603-2.775c-1.727-3.787-2.691-7.997-2.691-12.432&#10;&#9;&#9;&#9;&#9;C200.499,311.83,216.165,297.908,234.025,300z"/>
		</g>
		<g>
			
				<line style="fill-rule:evenodd;clip-rule:evenodd;fill:none;stroke:#FFFFFF;stroke-width:20;stroke-linecap:round;stroke-linejoin:round;stroke-miterlimit:22.9256;" x1="116.113" y1="189.842" x2="196.113" y2="189.842"/>
			
				<line style="fill-rule:evenodd;clip-rule:evenodd;fill:none;stroke:#FFFFFF;stroke-width:20;stroke-linecap:round;stroke-linejoin:round;stroke-miterlimit:22.9256;" x1="163.613" y1="236.842" x2="196.113" y2="236.842"/>
		</g>
		<g>
			
				<line style="fill-rule:evenodd;clip-rule:evenodd;fill:none;stroke:#D2DCFD;stroke-width:22;stroke-linecap:round;stroke-linejoin:round;stroke-miterlimit:22.9256;" x1="358.752" y1="292.552" x2="358.759" y2="292.552"/>
			
				<line style="fill-rule:evenodd;clip-rule:evenodd;fill:none;stroke:#D2DCFD;stroke-width:22;stroke-linecap:round;stroke-linejoin:round;stroke-miterlimit:22.9256;" x1="300.502" y1="302.802" x2="300.509" y2="302.802"/>
		</g>
	</g>
	<g>
		
			<path style="fill-rule:evenodd;clip-rule:evenodd;fill:none;stroke:#052A75;stroke-width:20;stroke-linecap:round;stroke-linejoin:round;stroke-miterlimit:22.9256;" d="&#10;&#9;&#9;&#9;M420.001,129.999H10 M20.695,126.987L35,64.999h360.001l14.043,60.856"/>
		
			<polyline style="fill-rule:evenodd;clip-rule:evenodd;fill:none;stroke:#052A75;stroke-width:20;stroke-linecap:round;stroke-linejoin:round;stroke-miterlimit:22.9256;" points="&#10;&#9;&#9;&#9;30.881,134.607 60,405 191.771,405 &#9;&#9;"/>
		
			<path style="fill-rule:evenodd;clip-rule:evenodd;fill:none;stroke:#052A75;stroke-width:20;stroke-linecap:round;stroke-linejoin:round;stroke-miterlimit:22.9256;" d="&#10;&#9;&#9;&#9;M203.19,342.225c-1.727-3.787-2.691-7.997-2.691-12.432c0-17.963,15.665-31.885,33.526-29.793&#10;&#9;&#9;&#9;c-0.818-20.644,18.857-35.693,38.372-30.014c4.474-17.875,23.958-27.507,40.859-20.3c11.113-21.8,42.372-21.8,53.486,0&#10;&#9;&#9;&#9;c16.902-7.207,36.385,2.425,40.859,20.3c19.515-5.679,39.19,9.37,38.372,30.014c17.861-2.092,33.526,11.83,33.526,29.793&#10;&#9;&#9;&#9;c0,4.712-1.087,9.17-3.024,13.137"/>
		
			<path style="fill-rule:evenodd;clip-rule:evenodd;fill:none;stroke:#052A75;stroke-width:20;stroke-linecap:round;stroke-linejoin:round;stroke-miterlimit:22.9256;" d="&#10;&#9;&#9;&#9;M500,345c0,40.211-18.26,76.154-46.936,100H226.935c-28.676-23.846-46.936-59.789-46.936-100H500z"/>
		
			<line style="fill-rule:evenodd;clip-rule:evenodd;fill:none;stroke:#052A75;stroke-width:20;stroke-linecap:round;stroke-linejoin:round;stroke-miterlimit:22.9256;" x1="399.267" y1="133.235" x2="387.204" y2="245.249"/>
	</g>
</g>
<g>
</g>
<g>
</g>
<g>
</g>
<g>
</g>
<g>
</g>
<g>
</g>
<g>
</g>
<g>
</g>
<g>
</g>
<g>
</g>
<g>
</g>
<g>
</g>
<g>
</g>
<g>
</g>
<g>
</g>
</svg>