<?xml version="1.0" encoding="iso-8859-1"?>
<!-- Generator: Adobe Illustrator 19.0.0, SVG Export Plug-In . SVG Version: 6.00 Build 0)  -->
<svg version="1.1" id="Capa_1" xmlns="http://www.w3.org/2000/svg" xmlns:xlink="http://www.w3.org/1999/xlink" x="0px" y="0px"
	 viewBox="0 0 511.998 511.998" style="enable-background:new 0 0 511.998 511.998;" xml:space="preserve">
<path style="fill:#EA5E57;" d="M336.676,431.852H175.322c-40.731,0-73.751-33.019-73.751-73.75v-34.29
	c0-13.545,4.164-26.762,11.928-37.86l0,0c7.764-11.099,11.928-24.316,11.928-37.86v-56.83c0-13.544-4.164-26.762-11.928-37.86l0,0
	c-7.764-11.099-11.928-24.316-11.928-37.86V38.777c0-17.274,14.003-31.277,31.277-31.277h246.3
	c17.274,0,31.277,14.003,31.277,31.277v76.763c0,13.544-4.164,26.762-11.928,37.86l0,0c-7.764,11.098-11.928,24.316-11.928,37.86
	v56.83c0,13.545,4.164,26.762,11.928,37.86l0,0c7.764,11.099,11.928,24.316,11.928,37.86v34.29
	C410.427,398.833,377.407,431.852,336.676,431.852z"/>
<path style="fill:#DCDEDF;" d="M312.692,504.5H199.306c-10.932,0-19.794-8.862-19.794-19.794v-52.854h152.974v52.854
	C332.486,495.638,323.624,504.5,312.692,504.5z"/>
<path style="fill:#BDC0C3;" d="M179.512,431.852v39.492h45.363c3.056,0,5.968-1.642,7.276-4.404
	c3.042-6.422,12.568-11.108,23.848-11.108s20.806,4.686,23.848,11.108c1.308,2.762,4.22,4.404,7.276,4.404h45.363v-39.492H179.512z"
	/>
<path style="fill:#FFFFFF;" d="M315.057,115.36c-4.729,0-8.644-3.493-9.406-8.161c-3.899-23.904-24.645-42.149-49.652-42.149
	s-45.753,18.245-49.652,42.15c-0.761,4.668-4.676,8.161-9.406,8.161h-15.339c-6.811,0-12.155,5.844-11.547,12.628l19.637,219.022
	c0.856,9.549,8.859,16.866,18.446,16.866h95.721c9.587,0,17.59-7.317,18.446-16.866l19.637-219.022
	c0.608-6.784-4.735-12.628-11.547-12.628h-15.338V115.36z"/>
<path style="fill:#EA5E57;" d="M267.891,221.843c-2.123-0.007-4.198,0.188-6.209,0.566c-3.757,0.708-7.608,0.708-11.365,0
	c-2.011-0.379-4.088-0.574-6.211-0.567c-18.111,0.063-32.69,14.725-32.654,32.836c0.036,18.068,14.694,32.703,32.77,32.703
	c1.84,0,3.644-0.152,5.4-0.444c4.22-0.701,8.533-0.701,12.753,0c1.757,0.292,3.561,0.444,5.401,0.444
	c18.077,0,32.735-14.636,32.77-32.705C300.581,236.567,286.002,221.906,267.891,221.843z"/>
<path style="opacity:0.1;enable-background:new    ;" d="M250.317,222.41c-2.011-0.379-4.088-0.574-6.211-0.567
	c-18.103,0.063-32.836,15.008-32.652,33.11c0.183,17.941,14.784,32.429,32.768,32.429c1.84,0,3.644-0.152,5.4-0.444
	c4.22-0.701,8.533-0.701,12.753,0c1.757,0.292,3.561,0.444,5.401,0.444c7.735,0,14.842-2.682,20.448-7.164
	C209.148,282.57,234.295,229.917,250.317,222.41z"/>
<path style="fill:#BDC0C3;" d="M295.657,141.751h-79.316c-3.699,0-6.697,2.998-6.697,6.697v18.176c0,3.699,2.999,6.697,6.697,6.697
	h79.316c3.699,0,6.697-2.999,6.697-6.697v-18.176C302.355,144.749,299.356,141.751,295.657,141.751z"/>
<path style="opacity:0.1;enable-background:new    ;" d="M132.849,7.5c-17.274,0-31.277,14.003-31.277,31.278v76.763
	c0,13.544,4.164,26.761,11.928,37.86l0,0c7.764,11.098,11.928,24.316,11.928,37.86v56.83c0,13.545-4.164,26.762-11.928,37.86
	s-11.928,24.316-11.928,37.86v34.29c0,40.732,33.019,73.75,73.75,73.75h49.779c-63.422-39.241-46.814-131.751-40.975-146.924
	c6.501-16.892,9.047-98.99-4.614-136.03c-12.713-34.47-10.446-105.899-9.688-141.397H132.849z"/>
<g style="opacity:0.1;">
	<path d="M357.086,199.73c0,4.021,3.259,7.28,7.28,7.28h22.205v-14.56h-22.205C360.345,192.45,357.086,195.709,357.086,199.73z"/>
	<path d="M364.366,239.815h22.205v-14.561h-22.205c-4.021,0-7.28,3.259-7.28,7.28C357.086,236.556,360.345,239.815,364.366,239.815z
		"/>
</g>
<g style="opacity:0.1;">
	<path d="M154.912,199.73c0,4.021-3.259,7.28-7.28,7.28h-22.205v-14.56h22.205C151.653,192.45,154.912,195.709,154.912,199.73z"/>
	<path d="M147.632,239.815h-22.205v-14.561h22.205c4.021,0,7.28,3.259,7.28,7.28C154.912,236.556,151.653,239.815,147.632,239.815z"
		/>
</g>
<path style="opacity:0.1;enable-background:new    ;" d="M332.486,431.852H179.512v52.854c0,10.932,8.862,19.794,19.794,19.794
	h37.52c-14.213-8.702-25.412-29.27-29.924-45.27c-1.854-6.577,3.09-13.102,9.923-13.102h115.661L332.486,431.852L332.486,431.852z"
	/>
<path d="M271.594,316.933h-31.189c-4.143,0-7.5,3.357-7.5,7.5s3.357,7.5,7.5,7.5h31.189c4.143,0,7.5-3.357,7.5-7.5
	S275.736,316.933,271.594,316.933z M410.427,90.097c-4.143,0-7.5,3.357-7.5,7.5v17.944c0,12.067-3.656,23.673-10.573,33.561
	c-8.689,12.422-13.282,27-13.282,42.158v56.83c0,15.159,4.593,29.737,13.282,42.159c6.917,9.889,10.573,21.494,10.573,33.561v34.29
	c0,36.53-29.72,66.25-66.251,66.25H175.322c-12.021,0-23.792-3.25-34.037-9.398c-3.551-2.133-8.158-0.981-10.29,2.571
	c-2.132,3.552-0.98,8.159,2.571,10.29c11.634,6.982,24.861,10.911,38.445,11.462v45.429c0,15.05,12.244,27.294,27.294,27.294
	h113.387c15.05,0,27.294-12.244,27.294-27.294v-45.438c43.271-1.745,77.94-37.475,77.94-81.166v-34.29
	c0-15.159-4.593-29.737-13.282-42.159c-6.917-9.889-10.573-21.494-10.573-33.562v-56.83c0-12.066,3.656-23.672,10.573-33.561
	c8.689-12.421,13.282-26.999,13.282-42.158V97.597C417.927,93.454,414.569,90.097,410.427,90.097z M324.986,484.706
	c0,6.779-5.515,12.294-12.294,12.294H199.306c-6.779,0-12.294-5.515-12.294-12.294v-5.862h37.863c6.035,0,11.552-3.412,14.055-8.693
	c1.587-3.352,8.406-6.818,17.069-6.818s15.482,3.467,17.07,6.819c2.502,5.28,8.019,8.692,14.054,8.692h37.863V484.706z
	 M324.986,463.844h-37.863c-0.283,0-0.482-0.115-0.498-0.115c-4.431-9.352-16.452-15.396-30.626-15.396s-26.195,6.044-30.597,15.351
	c-0.041,0.043-0.24,0.161-0.527,0.161h-37.863v-24.492h137.975v24.491H324.986z M379.149,0h-246.3
	c-21.382,0-38.777,17.396-38.777,38.777v76.764c0,15.159,4.593,29.737,13.282,42.159c6.917,9.889,10.573,21.493,10.573,33.561v56.83
	c0,12.067-3.656,23.673-10.573,33.562c-8.689,12.422-13.282,27-13.282,42.159v34.29c0,15.506,4.386,30.585,12.683,43.607
	c1.43,2.244,3.854,3.471,6.332,3.471c1.379,0,2.774-0.38,4.023-1.176c3.493-2.226,4.521-6.862,2.295-10.355
	c-6.76-10.609-10.333-22.901-10.333-35.547v-34.29c0-12.067,3.656-23.673,10.573-33.561c8.69-12.422,13.282-27,13.282-42.159v-56.83
	c0-15.158-4.593-29.736-13.282-42.159c-6.917-9.888-10.573-21.493-10.573-33.561V38.777C109.071,25.666,119.737,15,132.849,15h246.3
	c13.111,0,23.777,10.666,23.777,23.777v23.696c0,4.143,3.357,7.5,7.5,7.5s7.5-3.357,7.5-7.5V38.777
	C417.927,17.396,400.531,0,379.149,0z M216.341,180.821h79.316c7.828,0,14.197-6.369,14.197-14.197v-18.176
	c0-7.828-6.369-14.197-14.197-14.197h-79.316c-7.828,0-14.197,6.369-14.197,14.197v18.176
	C202.144,174.452,208.513,180.821,216.341,180.821z M217.144,149.251h77.711v16.57h-77.711L217.144,149.251L217.144,149.251z
	 M208.139,371.376h95.721c13.563,0,24.705-10.186,25.916-23.695l19.637-219.022c0.478-5.325-1.317-10.643-4.926-14.589
	c-3.607-3.945-8.743-6.209-14.091-6.209h-15.339c-1,0-1.823-0.768-2.003-1.868c-4.579-28.07-28.575-48.443-57.055-48.443
	s-52.476,20.373-57.055,48.443c-0.18,1.1-1.003,1.867-2.003,1.867h-15.339c-5.348,0-10.483,2.264-14.091,6.209
	c-3.608,3.946-5.403,9.264-4.926,14.589l19.637,219.022C183.434,361.19,194.575,371.376,208.139,371.376z M178.581,124.191
	c0.455-0.497,1.452-1.331,3.021-1.331h15.339c8.374,0,15.442-6.079,16.808-14.454c3.389-20.776,21.158-35.856,42.25-35.856
	s38.861,15.08,42.25,35.855c1.365,8.376,8.434,14.455,16.808,14.455h15.339c1.569,0,2.566,0.834,3.021,1.331
	c0.454,0.497,1.195,1.564,1.056,3.127L314.836,346.34c-0.514,5.721-5.232,10.035-10.977,10.035h-95.72
	c-5.744,0-10.463-4.315-10.977-10.035l-19.637-219.022C177.386,125.756,178.127,124.688,178.581,124.191z M231.263,124.655
	c4.143,0,7.5-3.357,7.5-7.5c0-9.504,7.732-17.236,17.236-17.236s17.236,7.732,17.236,17.236c0,4.143,3.358,7.5,7.5,7.5
	c4.143,0,7.5-3.357,7.5-7.5c0-17.775-14.461-32.236-32.236-32.236s-32.236,14.461-32.236,32.236
	C223.763,121.298,227.12,124.655,231.263,124.655z M268.892,214.372c0.496-2.86,0.773-5.719,0.773-8.436c0-4.143-3.357-7.5-7.5-7.5
	s-7.5,3.357-7.5,7.5c0,2.932-0.473,6.205-1.304,9.337c-0.553-0.064-1.105-0.129-1.656-0.233c-2.452-0.462-4.968-0.696-7.478-0.696
	h-0.148c-22.17,0.076-40.171,18.178-40.127,40.351c0.044,22.16,18.109,40.189,40.27,40.189c2.221,0,4.451-0.184,6.628-0.546
	c3.417-0.566,6.882-0.566,10.297,0c2.179,0.362,4.409,0.546,6.63,0.546c22.161,0,40.227-18.029,40.27-40.19
	C308.088,232.847,290.61,214.968,268.892,214.372z M267.776,279.883c-1.398,0-2.802-0.115-4.173-0.343
	c-2.523-0.419-5.063-0.628-7.603-0.628c-2.541,0-5.084,0.209-7.607,0.628c-1.369,0.228-2.773,0.343-4.171,0.343
	c-13.906,0-25.242-11.313-25.27-25.218c-0.027-13.914,11.268-25.273,25.181-25.321c1.616-0.029,3.226,0.141,4.795,0.437
	c4.689,0.885,9.447,0.885,14.143,0c1.569-0.296,3.166-0.442,4.793-0.437c0,0,0.001,0,0.002,0
	c13.912,0.047,25.208,11.405,25.181,25.319C293.019,268.569,281.683,279.883,267.776,279.883z"/>
<g>
</g>
<g>
</g>
<g>
</g>
<g>
</g>
<g>
</g>
<g>
</g>
<g>
</g>
<g>
</g>
<g>
</g>
<g>
</g>
<g>
</g>
<g>
</g>
<g>
</g>
<g>
</g>
<g>
</g>
</svg>
