<?xml version="1.0" encoding="UTF-8"?>
<svg xmlns="http://www.w3.org/2000/svg" xmlns:xlink="http://www.w3.org/1999/xlink" version="1.1" id="Capa_1" x="0px" y="0px" viewBox="0 0 512 512" style="enable-background:new 0 0 512 512;" xml:space="preserve" width="512" height="512">
<g>
	<g>
		<path style="fill:#A46A5A;" d="M481.65,116.04c-12.62-12.62-33.081-12.62-45.702,0L116.04,435.948&#10;&#9;&#9;&#9;c-12.619,12.62-33.081,12.62-45.701,0l22.851,22.851c12.619,12.62,33.081,12.62,45.7,0l319.908-319.908&#10;&#9;&#9;&#9;c12.62-12.62,33.082-12.62,45.701,0L481.65,116.04z"/>
		<path style="fill:#A46A5A;" d="M418.81,53.201c-12.62-12.62-33.081-12.62-45.702,0L53.201,373.109&#10;&#9;&#9;&#9;c-12.619,12.62-33.081,12.62-45.701,0l22.851,22.851c12.619,12.62,33.081,12.62,45.7,0L395.959,76.052&#10;&#9;&#9;&#9;c12.62-12.62,33.082-12.62,45.701,0L418.81,53.201z"/>
		<path style="fill:#FFE077;" d="M219.293,343.298c24.085-24.085,36.576-54.642,36.764-83.202&#10;&#9;&#9;&#9;c-28.56,0.188-59.117,12.679-83.202,36.764c-21.434,21.434-33.686,47.995-36.255,73.712c-0.516,5.16,3.822,9.498,8.982,8.982&#10;&#9;&#9;&#9;C171.299,376.984,197.859,364.733,219.293,343.298z"/>
		<path style="fill:#FFE077;" d="M265.82,169.66c-7.846-29.28-24.722-53.171-45.709-68.254c-4.211-3.027-10.136-1.439-12.27,3.288&#10;&#9;&#9;&#9;c-10.633,23.556-13.303,52.684-5.458,81.964c8.816,32.901,29.033,58.996,53.673,73.439&#10;&#9;&#9;&#9;C270.174,235.268,274.635,202.56,265.82,169.66z"/>
		<path style="fill:#FFE077;" d="M346.494,250.334c29.28,7.846,53.171,24.722,68.254,45.709c3.027,4.211,1.439,10.136-3.288,12.27&#10;&#9;&#9;&#9;c-23.556,10.633-52.684,13.303-81.964,5.458c-32.901-8.816-58.996-29.033-73.439-53.673&#10;&#9;&#9;&#9;C280.885,245.979,313.593,241.518,346.494,250.334z"/>
		<path style="fill:#FFEFAC;" d="M339.259,223.333c21.434-21.434,33.686-47.995,36.256-73.712c0.516-5.16-3.822-9.498-8.982-8.982&#10;&#9;&#9;&#9;c-25.717,2.569-52.277,14.821-73.712,36.256c-24.085,24.085-36.575,54.642-36.764,83.202&#10;&#9;&#9;&#9;C284.617,259.908,315.174,247.418,339.259,223.333z"/>
		<path style="fill:#FFEFAC;" d="M309.73,333.536c-8.816-32.901-29.034-58.997-53.673-73.439&#10;&#9;&#9;&#9;c-14.117,24.827-18.578,57.536-9.763,90.437c7.846,29.28,24.722,53.17,45.708,68.254c4.211,3.027,10.136,1.439,12.27-3.288&#10;&#9;&#9;&#9;C314.906,391.943,317.576,362.815,309.73,333.536z"/>
		<path style="fill:#FFEFAC;" d="M182.618,206.423c32.901,8.816,58.997,29.034,73.439,53.673&#10;&#9;&#9;&#9;c-24.827,14.117-57.536,18.578-90.437,9.763c-29.28-7.846-53.17-24.722-68.254-45.708c-3.027-4.211-1.439-10.136,3.288-12.27&#10;&#9;&#9;&#9;C124.21,201.248,153.338,198.578,182.618,206.423z"/>
		<path style="fill:#FFEFAC;" d="M285.334,282.339c4.36-0.775,8.678-2.722,12.726-5.639c3.121-2.249,4.253-6.474,2.675-9.982&#10;&#9;&#9;&#9;c-2.046-4.55-4.813-8.395-8.201-11.246c-2.851-2.4-3.844-6.105-2.575-9.609c1.509-4.164,1.982-8.877,1.479-13.84&#10;&#9;&#9;&#9;c-0.388-3.827-3.48-6.919-7.307-7.307c-4.964-0.503-9.676-0.029-13.84,1.479c-3.504,1.27-7.209,0.277-9.609-2.575&#10;&#9;&#9;&#9;c-2.852-3.388-6.696-6.155-11.246-8.201c-3.508-1.578-7.733-0.446-9.982,2.675c-2.917,4.047-4.863,8.365-5.639,12.726&#10;&#9;&#9;&#9;c-0.653,3.669-3.365,6.382-7.034,7.034c-4.36,0.775-8.678,2.722-12.726,5.639c-3.121,2.249-4.253,6.474-2.675,9.982&#10;&#9;&#9;&#9;c2.046,4.55,4.813,8.394,8.201,11.246c2.851,2.4,3.844,6.105,2.575,9.609c-1.509,4.164-1.982,8.877-1.479,13.84&#10;&#9;&#9;&#9;c0.388,3.827,3.48,6.919,7.307,7.307c4.964,0.503,9.677,0.029,13.84-1.479c3.504-1.27,7.209-0.277,9.609,2.575&#10;&#9;&#9;&#9;c2.852,3.388,6.696,6.155,11.246,8.201c3.508,1.578,7.733,0.446,9.982-2.675c2.917-4.047,4.863-8.365,5.639-12.726&#10;&#9;&#9;&#9;C278.952,285.704,281.664,282.992,285.334,282.339z"/>
	</g>
	<g>
		<path style="fill:none;stroke:#000000;stroke-width:15;stroke-linecap:round;stroke-linejoin:round;stroke-miterlimit:10;" d="&#10;&#9;&#9;&#9;M293.365,252.921c16.384-6.065,32.167-15.976,45.837-29.645c23.956-23.956,36.368-54.403,36.764-83.202&#10;&#9;&#9;&#9;c-28.799,0.395-59.246,12.808-83.202,36.764c-13.147,13.147-22.817,28.248-28.932,43.96"/>
		<path style="fill:none;stroke:#000000;stroke-width:15;stroke-linecap:round;stroke-linejoin:round;stroke-miterlimit:10;" d="&#10;&#9;&#9;&#9;M202.057,274.747c-10.38,5.712-20.276,13.072-29.259,22.055c-23.956,23.956-36.368,54.403-36.764,83.202&#10;&#9;&#9;&#9;c28.799-0.395,59.246-12.808,83.202-36.764c8.983-8.983,16.343-18.88,22.055-29.259"/>
		<path style="fill:none;stroke:#000000;stroke-width:15;stroke-linecap:round;stroke-linejoin:round;stroke-miterlimit:10;" d="&#10;&#9;&#9;&#9;M270.229,206.171c0.264-11.908-1.16-24.228-4.467-36.569c-8.768-32.724-28.93-58.697-53.673-73.439&#10;&#9;&#9;&#9;c-14.057,25.138-18.531,57.713-9.763,90.437c3.282,12.247,8.159,23.549,14.275,33.67"/>
		<path style="fill:none;stroke:#000000;stroke-width:15;stroke-linecap:round;stroke-linejoin:round;stroke-miterlimit:10;" d="&#10;&#9;&#9;&#9;M243.808,294.135c-3.309,17.726-2.751,37.008,2.429,56.341c8.768,32.724,28.93,58.697,53.673,73.439&#10;&#9;&#9;&#9;c14.057-25.138,18.531-57.713,9.763-90.437c-4.989-18.621-13.668-35.056-24.78-48.48"/>
		<path style="fill:none;stroke:#000000;stroke-width:15;stroke-linecap:round;stroke-linejoin:round;stroke-miterlimit:10;" d="&#10;&#9;&#9;&#9;M310.198,245.803c11.805-0.23,24.012,1.197,36.239,4.473c32.724,8.768,58.697,28.93,73.439,53.673&#10;&#9;&#9;&#9;c-25.138,14.057-57.713,18.531-90.437,9.763c-12.271-3.288-23.594-8.178-33.73-14.312"/>
		<path style="fill:none;stroke:#000000;stroke-width:15;stroke-linecap:round;stroke-linejoin:round;stroke-miterlimit:10;" d="&#10;&#9;&#9;&#9;M220.796,272.433c-17.42,3.083-36.302,2.442-55.233-2.631c-32.724-8.768-58.697-28.93-73.439-53.673&#10;&#9;&#9;&#9;c25.138-14.057,57.713-18.531,90.437-9.763c19.24,5.155,36.146,14.249,49.809,25.897"/>
		<path style="fill:none;stroke:#000000;stroke-width:15;stroke-linecap:round;stroke-linejoin:round;stroke-miterlimit:10;" d="&#10;&#9;&#9;&#9;M278.475,282.514c8.377,0.956,17.04-2.831,24.347-9.929c-2.779-9.8-8.387-17.411-16.12-20.772&#10;&#9;&#9;&#9;c5.017-6.777,6.069-16.173,3.574-26.049c-9.877-2.494-19.272-1.442-26.049,3.574c-3.361-7.733-10.972-13.342-20.772-16.12&#10;&#9;&#9;&#9;c-7.098,7.307-10.885,15.969-9.929,24.347c-8.377-0.956-17.04,2.831-24.347,9.929c2.779,9.8,8.387,17.411,16.12,20.772&#10;&#9;&#9;&#9;c-5.017,6.777-6.069,16.173-3.574,26.049c9.877,2.494,19.272,1.442,26.049-3.574c3.361,7.733,10.972,13.342,20.772,16.12&#10;&#9;&#9;&#9;C275.644,299.554,279.431,290.892,278.475,282.514z"/>
		
			<line style="fill:none;stroke:#000000;stroke-width:15;stroke-linecap:round;stroke-linejoin:round;stroke-miterlimit:10;" x1="290.276" y1="225.763" x2="330.264" y2="185.775"/>
		
			<line style="fill:none;stroke:#000000;stroke-width:15;stroke-linecap:round;stroke-linejoin:round;stroke-miterlimit:10;" x1="181.735" y1="334.304" x2="221.724" y2="294.315"/>
		
			<line style="fill:none;stroke:#000000;stroke-width:15;stroke-linecap:round;stroke-linejoin:round;stroke-miterlimit:10;" x1="302.821" y1="272.585" x2="357.447" y2="287.222"/>
		
			<line style="fill:none;stroke:#000000;stroke-width:15;stroke-linecap:round;stroke-linejoin:round;stroke-miterlimit:10;" x1="154.553" y1="232.857" x2="209.178" y2="247.493"/>
		
			<line style="fill:none;stroke:#000000;stroke-width:15;stroke-linecap:round;stroke-linejoin:round;stroke-miterlimit:10;" x1="243.454" y1="213.218" x2="228.817" y2="158.592"/>
		
			<line style="fill:none;stroke:#000000;stroke-width:15;stroke-linecap:round;stroke-linejoin:round;stroke-miterlimit:10;" x1="283.182" y1="361.486" x2="268.546" y2="306.861"/>
		
			<line style="fill:none;stroke:#000000;stroke-width:15;stroke-linecap:round;stroke-linejoin:round;stroke-miterlimit:10;" x1="256" y1="260.039" x2="256.057" y2="260.096"/>
		<path style="fill:none;stroke:#000000;stroke-width:15;stroke-linecap:round;stroke-linejoin:round;stroke-miterlimit:10;" d="&#10;&#9;&#9;&#9;M372.276,225.413l86.522-86.522c12.62-12.62,33.081-12.62,45.701,0l0,0l-22.851-22.851c-12.62-12.62-33.081-12.62-45.701,0&#10;&#9;&#9;&#9;l-31.688,31.688"/>
		<path style="fill:none;stroke:#000000;stroke-width:15;stroke-linecap:round;stroke-linejoin:round;stroke-miterlimit:10;" d="&#10;&#9;&#9;&#9;M141.495,410.493l-25.455,25.455c-12.62,12.62-33.081,12.62-45.701,0h0l22.851,22.851c12.62,12.62,33.081,12.62,45.701,0&#10;&#9;&#9;&#9;l81.605-81.605"/>
		<path style="fill:none;stroke:#000000;stroke-width:15;stroke-linecap:round;stroke-linejoin:round;stroke-miterlimit:10;" d="&#10;&#9;&#9;&#9;M362.517,109.494l33.443-33.443c12.62-12.62,33.081-12.62,45.701,0l0,0L418.81,53.201c-12.62-12.62-33.081-12.62-45.701,0&#10;&#9;&#9;&#9;l-85.206,85.206"/>
		<path style="fill:none;stroke:#000000;stroke-width:15;stroke-linecap:round;stroke-linejoin:round;stroke-miterlimit:10;" d="&#10;&#9;&#9;&#9;M134.806,291.504l-81.605,81.605c-12.62,12.62-33.081,12.62-45.701,0l0,0l22.851,22.851c12.62,12.62,33.081,12.62,45.701,0&#10;&#9;&#9;&#9;l32.035-32.035"/>
	</g>
</g>















</svg>
