<svg id="icons" height="512" viewBox="0 0 64 64" width="512" xmlns="http://www.w3.org/2000/svg"><path d="m42.5 59v2.55a1.451 1.451 0 0 1 -1.45 1.45h-18.1a1.451 1.451 0 0 1 -1.45-1.45v-2.55z" fill="#a05454"/><circle cx="29" cy="40.5" fill="#b18fff" r="2.5"/><circle cx="29" cy="48.5" fill="#b18fff" r="2.5"/><path d="m21.5 32h21v27h-21zm7.5 14a2.5 2.5 0 1 0 2.5 2.5 2.50091 2.50091 0 0 0 -2.5-2.5zm0-3a2.5 2.5 0 1 0 -2.5-2.5 2.50091 2.50091 0 0 0 2.5 2.5zm9.5 1.5a2.5 2.5 0 1 0 -2.5 2.5 2.50091 2.50091 0 0 0 2.5-2.5z" fill="#e6ecf4"/><circle cx="36" cy="44.5" fill="#b18fff" r="2.5"/><path d="m38.5 6.56v2.88a.55908.55908 0 0 1 -.56.56h-11.88a.55908.55908 0 0 1 -.56-.56v-2.88a.55908.55908 0 0 1 .56-.56h11.88a.55908.55908 0 0 1 .56.56z" fill="#636a74"/><path d="m36.5 1v5h-9v-4c3-.33 6-.67 9-1z" fill="#4d5662"/><path d="m27.5 16.44v-6.44h9v6.44a10.9619 10.9619 0 0 0 1 4.56h-11a10.9619 10.9619 0 0 0 1-4.56z" fill="#4d5662"/><path d="m42.5 31.23v.77h-21v-.77a9.692 9.692 0 0 1 2.13-6l1.39-1.79a12.32134 12.32134 0 0 0 1.48-2.44h11a12.32134 12.32134 0 0 0 1.48 2.44l1.39 1.79a9.692 9.692 0 0 1 2.13 6z" fill="#a05454"/><path d="m41.05371 64h-18.10742a2.44939 2.44939 0 0 1 -2.44629-2.44629v-30.32617a10.69659 10.69659 0 0 1 2.33789-6.61719l1.39453-1.78808a10.33935 10.33935 0 0 0 2.26758-6.38575v-6.43652a.99943.99943 0 0 1 1-1h9a.99943.99943 0 0 1 1 1v6.43652a10.33456 10.33456 0 0 0 2.26855 6.38575l1.39356 1.78808a10.69659 10.69659 0 0 1 2.33789 6.61719v30.32617a2.44939 2.44939 0 0 1 -2.44629 2.44629zm-12.55371-53v5.43652a12.32434 12.32434 0 0 1 -2.69043 7.61621l-1.39551 1.78809a8.71847 8.71847 0 0 0 -1.91406 5.38672v30.32617a.44679.44679 0 0 0 .44629.44629h18.10742a.44679.44679 0 0 0 .44629-.44629v-30.32617a8.71847 8.71847 0 0 0 -1.91406-5.38672l-1.39453-1.78809a12.31948 12.31948 0 0 1 -2.69141-7.61621v-5.43652z"/><path d="m37.94238 11h-11.88476a1.56 1.56 0 0 1 -1.55762-1.55762v-2.88476a1.56 1.56 0 0 1 1.55762-1.55762h11.88476a1.56 1.56 0 0 1 1.55762 1.55762v2.88476a1.56 1.56 0 0 1 -1.55762 1.55762zm-11.44238-2h11v-2h-11z"/><path d="m36.5 7a.99943.99943 0 0 1 -1-1v-3.88281l-7 .77832v3.10449a1 1 0 0 1 -2 0v-4a1.0001 1.0001 0 0 1 .88965-.99414l9-1a1.016 1.016 0 0 1 .77734.249 1 1 0 0 1 .33301.74514v5a.99943.99943 0 0 1 -1 1z"/><path d="m42.5 33h-21a1 1 0 0 1 0-2h21a1 1 0 0 1 0 2z"/><path d="m42.5 60h-21a1 1 0 0 1 0-2h21a1 1 0 0 1 0 2z"/><path d="m29 52a3.5 3.5 0 1 1 3.5-3.5 3.50424 3.50424 0 0 1 -3.5 3.5zm0-5a1.5 1.5 0 1 0 1.5 1.5 1.50164 1.50164 0 0 0 -1.5-1.5z"/><path d="m36 48a3.5 3.5 0 1 1 3.5-3.5 3.50424 3.50424 0 0 1 -3.5 3.5zm0-5a1.5 1.5 0 1 0 1.5 1.5 1.50164 1.50164 0 0 0 -1.5-1.5z"/><path d="m29 44a3.5 3.5 0 1 1 3.5-3.5 3.50424 3.50424 0 0 1 -3.5 3.5zm0-5a1.5 1.5 0 1 0 1.5 1.5 1.50164 1.50164 0 0 0 -1.5-1.5z"/><path d="m34.5 40a1 1 0 0 1 -.76074-1.64941 3.60993 3.60993 0 0 0 .78418-3.13379 1.00034 1.00034 0 0 1 1.95312-.4336 5.60962 5.60962 0 0 1 -1.21582 4.86621.99894.99894 0 0 1 -.76074.35059z"/><path d="m37.5 56h-11a1 1 0 0 1 0-2h11a1 1 0 0 1 0 2z"/><path d="m30.5 18a.99943.99943 0 0 1 -1-1v-3a1 1 0 0 1 2 0v3a.99943.99943 0 0 1 -1 1z"/><path d="m37.5 22h-11a1 1 0 0 1 0-2h11a1 1 0 0 1 0 2z"/></svg>