<?xml version="1.0" encoding="UTF-8" standalone="no"?>
<!-- Created with Inkscape (http://www.inkscape.org/) -->

<svg
   version="1.1"
   id="svg4959"
   xml:space="preserve"
   width="682.66669"
   height="682.66669"
   viewBox="0 0 682.66669 682.66669"
   xmlns="http://www.w3.org/2000/svg"
   xmlns:svg="http://www.w3.org/2000/svg"><defs
     id="defs4963"><clipPath
       clipPathUnits="userSpaceOnUse"
       id="clipPath4973"><path
         d="M 0,512 H 512 V 0 H 0 Z"
         id="path4971" /></clipPath></defs><g
     id="g4965"
     transform="matrix(1.3333333,0,0,-1.3333333,0,682.66667)"><g
       id="g4967"><g
         id="g4969"
         clip-path="url(#clipPath4973)"><g
           id="g4975"
           transform="translate(448.5967,228.1182)"><path
             d="m 0,0 38.745,-30.247 c -2.533,-6.149 -5.499,-12.482 -8.964,-18.805 -20.763,-37.944 -59.422,-75.888 -131.012,-75.888 -53.675,94.065 -53.675,209.478 0,303.544 C 41.95,178.604 53.403,26.826 53.403,26.826 H 9.234 C -5.034,26.826 -11.248,8.791 0,0"
             style="fill:#5c90ae;fill-opacity:1;fill-rule:nonzero;stroke:none"
             id="path4977" /></g><g
           id="g4979"
           transform="translate(448.5967,228.1182)"><path
             d="m 0,0 38.745,-30.247 c -2.533,-6.149 -5.499,-12.482 -8.964,-18.805 -20.763,-37.944 -59.422,-75.888 -131.012,-75.888 -53.675,94.065 -53.675,209.478 0,303.544 C 41.95,178.604 53.403,26.826 53.403,26.826 H 9.234 C -5.034,26.826 -11.248,8.791 0,0 Z"
             style="fill:none;stroke:#000000;stroke-width:20;stroke-linecap:round;stroke-linejoin:round;stroke-miterlimit:10;stroke-dasharray:none;stroke-opacity:1"
             id="path4981" /></g><g
           id="g4983"
           transform="translate(316.0947,406.7187)"><path
             d="m 0,0 c -30.555,0 -60.685,-7.155 -87.977,-20.894 l -84.006,-42.287 c -32.565,-16.392 -53.112,-49.737 -53.112,-86.195 v -4.786 c 0,-36.458 20.547,-69.804 53.112,-86.196 l 84.006,-42.288 c 27.292,-13.738 57.422,-20.893 87.976,-20.893 h 31.27 c -53.675,94.061 -53.675,209.478 0,303.539 z"
             style="fill:#ffce62;fill-opacity:1;fill-rule:nonzero;stroke:none"
             id="path4985" /></g><g
           id="g4987"
           transform="translate(235.5342,120.5557)"><path
             d="m 0,0 c 25.29,-11.427 52.745,-17.376 80.56,-17.376 h 31.269 c -53.676,94.062 -53.676,209.479 0,303.539 H 80.56 c -30.554,0 -60.684,-7.155 -87.976,-20.893 l -84.007,-42.288 c -32.564,-16.392 -53.111,-49.738 -53.111,-86.195 v -4.786 c 0,-36.458 20.547,-69.804 53.111,-86.196 l 12.815,-6.451"
             style="fill:none;stroke:#000000;stroke-width:20;stroke-linecap:round;stroke-linejoin:round;stroke-miterlimit:10;stroke-dasharray:none;stroke-opacity:1"
             id="path4989" /></g><g
           id="g4991"
           transform="translate(434.0459,316.7187)"><path
             d="m 0,0 c 0,-13.022 -10.557,-23.579 -23.578,-23.579 -13.023,0 -23.578,10.557 -23.578,23.579 0,13.021 10.555,23.578 23.578,23.578 C -10.557,23.578 0,13.021 0,0"
             style="fill:#5c90ae;fill-opacity:1;fill-rule:nonzero;stroke:none"
             id="path4993" /></g><g
           id="g4995"
           transform="translate(434.0459,316.7187)"><path
             d="m 0,0 c 0,-13.022 -10.557,-23.579 -23.578,-23.579 -13.023,0 -23.578,10.557 -23.578,23.579 0,13.021 10.555,23.578 23.578,23.578 C -10.557,23.578 0,13.021 0,0"
             style="fill:#e0e7ef;fill-opacity:1;fill-rule:nonzero;stroke:none"
             id="path4997" /></g><g
           id="g4999"
           transform="translate(434.0459,316.7187)"><path
             d="m 0,0 c 0,-13.022 -10.557,-23.579 -23.578,-23.579 -13.023,0 -23.578,10.557 -23.578,23.579 0,13.021 10.555,23.578 23.578,23.578 C -10.557,23.578 0,13.021 0,0 Z"
             style="fill:none;stroke:#000000;stroke-width:20;stroke-linecap:round;stroke-linejoin:round;stroke-miterlimit:10;stroke-dasharray:none;stroke-opacity:1"
             id="path5001" /></g><g
           id="g5003"
           transform="translate(307.127,257.4043)"><path
             d="m 0,0 h -25.924 c -20.634,0 -39.52,-11.584 -48.875,-29.976 l -13.559,-26.657 h 45.581 c 23.616,0 42.763,19.141 42.772,42.757 z"
             style="fill:#e0e7ef;fill-opacity:1;fill-rule:nonzero;stroke:none"
             id="path5005" /></g><g
           id="g5007"
           transform="translate(347.3545,406.7217)"><path
             d="m 0,0 h -31.266 c -30.549,0 -60.677,-7.156 -87.969,-20.894 l -41.138,-20.71 c -13.208,0.661 -26.015,5.511 -36.439,14.074 l -16.911,13.879 c 28.808,16.227 99.294,53.89 122.862,60.136 34.512,9.16 70.724,-7.187 87.007,-38.962 z"
             style="fill:#5c90ae;fill-opacity:1;fill-rule:nonzero;stroke:none"
             id="path5009" /></g><g
           id="g5011"
           transform="translate(307.127,257.4043)"><path
             d="m 0,0 h -25.924 c -20.634,0 -39.52,-11.584 -48.875,-29.976 l -13.559,-26.657 h 45.581 c 23.616,0 42.763,19.141 42.772,42.757 z"
             style="fill:none;stroke:#000000;stroke-width:20;stroke-linecap:round;stroke-linejoin:round;stroke-miterlimit:10;stroke-dasharray:none;stroke-opacity:1"
             id="path5013" /></g><g
           id="g5015"
           transform="translate(347.3545,406.7217)"><path
             d="m 0,0 h -31.266 c -30.549,0 -60.677,-7.156 -87.969,-20.894 l -41.138,-20.71 c -13.208,0.661 -26.015,5.511 -36.439,14.074 l -16.911,13.879 c 28.808,16.227 99.294,53.89 122.862,60.136 34.512,9.16 70.724,-7.187 87.007,-38.962 z"
             style="fill:none;stroke:#000000;stroke-width:20;stroke-linecap:round;stroke-linejoin:round;stroke-miterlimit:10;stroke-dasharray:none;stroke-opacity:1"
             id="path5017" /></g><g
           id="g5019"
           transform="translate(347.3633,103.1797)"><path
             d="m 0,0 v 0 h -32.799 c -19.42,0 -36.833,-11.965 -43.796,-30.095 l -6.461,-16.82 h 36.141 C -21.005,-46.915 0,-25.91 0,0"
             style="fill:#e0e7ef;fill-opacity:1;fill-rule:nonzero;stroke:none"
             id="path5021" /></g><g
           id="g5023"
           transform="translate(347.3633,103.1797)"><path
             d="m 0,0 v 0 h -32.799 c -19.42,0 -36.833,-11.965 -43.796,-30.095 l -6.461,-16.82 h 36.141 C -21.005,-46.915 0,-25.91 0,0 Z"
             style="fill:none;stroke:#000000;stroke-width:20;stroke-linecap:round;stroke-linejoin:round;stroke-miterlimit:10;stroke-dasharray:none;stroke-opacity:1"
             id="path5025" /></g><g
           id="g5027"
           transform="translate(105.3398,201.9297)"><path
             d="m 0,0 c 3.03,-4.92 6.5,-9.561 10.38,-13.87 l -67.25,-26.561 c -3.45,-1.359 -6.95,-2 -10.37,-2 -14.869,0 -28.1,12.021 -28.1,28.16 0,5.8 1.79,11.451 5.12,16.181 l 20.51,29.18 c 9.57,13.61 9.57,31.769 0,45.38 l -20.56,29.25 c -3.3,4.69 -5.07,10.28 -5.07,16.02 0,19.789 20.061,33.27 38.38,25.8 L 10.49,120.029 C -5.22,102.6 -14.34,79.689 -14.34,55.41 V 50.63 C -14.34,32.399 -9.2,14.95 0,0"
             style="fill:#5c90ae;fill-opacity:1;fill-rule:nonzero;stroke:none"
             id="path5029" /></g><g
           id="g5031"
           transform="translate(105.3398,201.9297)"><path
             d="m 0,0 c 3.03,-4.92 6.5,-9.561 10.38,-13.87 l -67.25,-26.561 c -3.45,-1.359 -6.95,-2 -10.37,-2 -14.869,0 -28.1,12.021 -28.1,28.16 0,5.8 1.79,11.451 5.12,16.181 l 20.51,29.18 c 9.57,13.61 9.57,31.769 0,45.38 l -20.56,29.25 c -3.3,4.69 -5.07,10.28 -5.07,16.02 0,19.789 20.061,33.27 38.38,25.8 L 10.49,120.029 C -5.22,102.6 -14.34,79.689 -14.34,55.41 V 50.63 C -14.34,32.399 -9.2,14.95 0,0 Z"
             style="fill:none;stroke:#000000;stroke-width:20;stroke-linecap:round;stroke-linejoin:round;stroke-miterlimit:10;stroke-dasharray:none;stroke-opacity:1"
             id="path5033" /></g><g
           id="g5035"
           transform="translate(196.501,139.9893)"><path
             d="M 0,0 V 0"
             style="fill:none;stroke:#000000;stroke-width:20;stroke-linecap:round;stroke-linejoin:round;stroke-miterlimit:10;stroke-dasharray:none;stroke-opacity:1"
             id="path5037" /></g></g></g></g></svg>
