<svg id="Capa_1" enable-background="new 0 0 512 512" viewBox="0 0 512 512" xmlns="http://www.w3.org/2000/svg"><g><g><path d="m449.853 33.407h-129.048c-14.119 0-26.927 5.611-36.316 14.724l-.003-.003-250.62 250.62 1.127.939c7.909-4.834 17.205-7.622 27.154-7.622h129.048c28.8 0 52.147 23.347 52.147 52.147v82.234c0 13.614-5.221 26.005-13.765 35.291l.005.004 257.145-257.08c9.437-9.437 15.274-22.473 15.274-36.873v-82.234c-.001-28.8-23.348-52.147-52.148-52.147z" fill="#ff9eb1"/><path d="m502 85.554c0-28.8-23.347-52.147-52.147-52.147h-129.048c-14.119 0-26.927 5.611-36.316 14.724l-.003-.003-250.62 250.62 1.127.939c7.909-4.834 17.205-7.622 27.154-7.622h129.048c28.8 0 52.147 23.347 52.147 52.147v.115l258.658-258.658z" fill="#ff9eb1"/><g fill="#ffdfe5"><path d="m229.576 461.738.005.004 257.145-257.08c9.437-9.437 15.274-22.473 15.274-36.873v-82.12l-258.658 258.659v82.119c0 13.613-5.222 26.004-13.766 35.291z"/><path d="m62.147 478.593h129.048c28.8 0 52.147-23.347 52.147-52.147v-82.234c0-28.8-23.347-52.147-52.147-52.147h-129.048c-28.8 0-52.147 23.347-52.147 52.147v82.234c0 28.8 23.347 52.147 52.147 52.147z"/></g></g><g><path d="m198.396 302.065c-2.653 0-5.301-1.049-7.268-3.129-3.795-4.013-3.618-10.342.395-14.137l124.29-117.535c4.014-3.796 10.341-3.618 14.137.395 3.795 4.013 3.618 10.342-.395 14.137l-124.29 117.535c-1.932 1.828-4.403 2.734-6.869 2.734z" fill="#ffdfe5"/></g><g><path d="m374.047 135.96c-2.653 0-5.301-1.049-7.268-3.129-3.795-4.013-3.618-10.342.395-14.136l94.301-89.175c4.014-3.796 10.342-3.619 14.137.395 3.795 4.013 3.618 10.342-.395 14.136l-94.301 89.175c-1.934 1.828-4.403 2.734-6.869 2.734z" fill="#ffdfe5"/></g><g><path d="m116.884 302.065c-2.653 0-5.301-1.049-7.268-3.129-3.795-4.013-3.618-10.342.395-14.137l77.81-73.581c4.014-3.795 10.343-3.617 14.137.395 3.795 4.013 3.618 10.342-.395 14.137l-77.81 73.581c-1.933 1.828-4.403 2.734-6.869 2.734z" fill="#ffdfe5"/></g><g><path d="m226.013 198.867c-2.653 0-5.301-1.049-7.268-3.129-3.795-4.013-3.618-10.342.395-14.137l164.394-155.46c4.012-3.796 10.341-3.618 14.137.395 3.795 4.013 3.618 10.342-.395 14.137l-164.394 155.46c-1.933 1.828-4.403 2.734-6.869 2.734z" fill="#ffdfe5"/></g><g><g><path d="m123.924 446.82h-17.984c-20.96 0-38.013-17.053-38.013-38.013s17.052-38.013 38.013-38.013h17.984c5.523 0 10 4.477 10 10s-4.477 10-10 10h-17.984c-9.932 0-18.013 8.081-18.013 18.013 0 9.933 8.081 18.013 18.013 18.013h17.984c5.523 0 10 4.477 10 10s-4.477 10-10 10z" fill="#ff9eb1"/></g><g><path d="m123.924 446.82c-5.523 0-10-4.477-10-10s4.477-10 10-10c22.877 0 41.49-18.612 41.49-41.49s-18.612-41.49-41.49-41.49h-45.997c-5.523 0-10-4.477-10-10s4.477-10 10-10h45.997c33.906 0 61.49 27.584 61.49 61.49s-27.584 61.49-61.49 61.49z" fill="#ff9eb1"/></g></g><path d="m449.854 23.407h-129.049c-16.145 0-31.42 6.151-43.05 17.326-.115.105-.229.213-.34.325 0 0-259.501 259.528-259.689 259.751-10.955 11.21-17.726 26.527-17.726 43.403v82.234c0 34.268 27.879 62.147 62.147 62.147h129.048c17.75 0 33.774-7.492 45.109-19.466.116-.105 257.494-257.395 257.494-257.395 11.738-11.738 18.202-27.344 18.202-43.944v-82.234c0-34.268-27.879-62.147-62.146-62.147zm-387.707 445.187c-23.24 0-42.147-18.907-42.147-42.147v-82.234c0-23.24 18.907-42.147 42.147-42.147h129.048c23.24 0 42.147 18.907 42.147 42.147v82.234c0 23.24-18.907 42.147-42.147 42.147zm429.853-300.806c0 11.257-4.384 21.842-12.344 29.802l-226.314 226.257v-79.635c0-34.268-27.879-62.147-62.147-62.147h-126.503l226.66-226.661c.034-.032.068-.065.102-.098 7.905-7.674 18.329-11.9 29.351-11.9h129.049c23.239 0 42.146 18.907 42.146 42.147z" fill="#ff5d7d"/></g><g/><g/><g/><g/><g/><g/><g/><g/><g/><g/><g/><g/><g/><g/><g/></svg>