<svg id="Layer_1" enable-background="new 0 0 512.027 512.027" height="512" viewBox="0 0 512.027 512.027" width="512" xmlns="http://www.w3.org/2000/svg"><g><path d="m454.004 159.843-294.16 294.16c-12.49 12.5-32.75 12.5-45.25 0l-56.57-56.57c-12.5-12.5-12.5-32.76 0-45.25l294.16-294.16c12.49-12.5 32.75-12.5 45.25 0l56.57 56.57c12.5 12.5 12.5 32.76 0 45.25z" fill="#aa7569"/><path d="m454.004 114.593-56.57-56.57c-10.076-10.076-25.193-12.024-37.22-5.855l54.743 54.743c12.5 12.5 12.5 32.76 0 45.25-314.017 314.017-295.609 296.639-302.19 300.015l1.828 1.828c12.5 12.5 32.76 12.5 45.25 0l294.16-294.16c12.499-12.491 12.499-32.751-.001-45.251z" fill="#9a6758"/><path d="m108.934 448.343c-38.774 38.774-46.739 46.742-46.84 46.84-5.79 5.5-13.535 8.83-22.08 8.83-28.343 0-43.148-34.665-22.08-55.17l45.75-45.75z" fill="#d9b3af"/><path d="m63.684 403.093-16 16 19.476 19.476c6.248 6.248 6.248 16.379 0 22.627-25.968 25.968-17.919 17.962-19.526 19.526-10.082 9.577-24.628 11.294-36.291 5.5 9.566 19.258 35.064 23.86 50.75 8.959 2.05-1.995-9.128 9.128 46.84-46.84-9.617-9.616-35.641-35.64-45.249-45.248z" fill="#c4928a"/><path d="m403.095 63.683 45.25 45.25 45.75-45.75c21.07-20.5 6.258-55.17-22.08-55.17-8.545 0-16.29 3.329-22.08 8.83-.101.098-7.685 7.684-46.84 46.84z" fill="#d9b3af"/><path d="m472.014 8.013c-5.834 0-11.297 1.567-16 4.293 17.881 10.351 21.498 34.704 7.17 49.787-2.19 2.251 8.116-8.116-30.84 30.84l16 16 45.75-45.75c21.071-20.5 6.259-55.17-22.08-55.17z" fill="#c4928a"/><path d="m464.184 464.183c-53.037 53.037-138.878 53.035-191.92.41-.106-.099 2.953 2.963-61.51-61.5l192.33-192.33c35.144 35.144 46.108 46.099 61.51 61.5 52.616 53.032 52.635 138.875-.41 191.92z" fill="#f1cc76"/><path d="m503.714 359.043c-2.112-32.215-15.422-63.084-39.95-87.61l-60.68-60.67-192.33 192.33 16 16 161.022-161.022c6.248-6.248 16.378-6.248 22.626-.001l13.365 13.363c79.123 79.117 34.968 214.74-75.739 231.102 86.04 12.7 161.386-57.128 155.686-143.492z" fill="#ebb15d"/><path d="m301.264 108.943-192.33 192.33c-63.356-63.366-61.404-61.407-61.5-61.51-52.616-53.032-52.635-138.875.41-191.92 53.036-53.037 138.879-53.035 191.92-.41z" fill="#f1cc76"/><path d="m239.764 47.433c-29.683-29.45-70.234-42.931-110.36-38.627 29.601 3.182 58.36 16.056 81.11 38.627l50.188 50.196c6.247 6.249 6.247 16.378-.001 22.626l-166.39 166.392 14.624 14.626 192.33-192.33z" fill="#ebb15d"/><path d="m470.252 266.606c-30.766-30.766-24.062-24.058-55.853-55.844l45.26-45.26c15.629-15.616 15.65-40.919 0-56.569 44.514-44.514 41.104-41.102 41.326-41.33 7.009-7.375 11.03-17.127 11.03-27.59 0-35.542-43.436-53.782-68.863-27.7-41.088 41.088-39.959 40.153-40.06 40.053-15.629-15.628-40.933-15.643-56.564 0l-45.262 45.262c-43.438-43.445-55.669-55.681-55.772-55.78-23.461-23.461-56.042-39.162-91.982-41.518-86.732-5.722-158.919 66.213-153.181 153.177 2.319 35.378 17.611 68.16 41.847 92.323 1.678 1.685-11.199-11.21 55.443 55.442l-45.251 45.252c-15.629 15.617-15.65 40.918.001 56.569-43.651 43.651-41.124 41.121-41.327 41.33-6.994 7.363-11.03 17.105-11.03 27.59 0 35.548 43.439 53.78 68.864 27.699 40.979-40.979 39.959-40.153 40.059-40.052 15.629 15.628 40.932 15.643 56.563 0l45.254-45.254c35.248 35.243 55.848 55.844 55.95 55.94 26.755 26.505 63.043 41.662 101.312 41.662 83.319 0 149.157-70.494 143.681-153.489-2.269-34.62-16.98-67.254-41.445-91.913zm-15.75-243.016c5.239-5.239 11.08-7.577 17.513-7.577 21.172 0 32.437 25.944 16.503 41.434-1.671 1.655 7.658-7.659-40.173 40.172l-33.937-33.936zm-400.58 211.347c-22.943-22.943-35.634-52.112-37.625-82.481-4.877-73.902 53.776-136.438 127.718-136.438 33.438 0 65.897 13.068 90.092 37.072l55.844 55.853-49.936 49.936v-30.866c0-4.418-3.582-8-8-8s-8 3.582-8 8v46.866l-18.91 18.91-31.433-31.433c-3.124-3.125-8.189-3.125-11.313 0-3.125 3.124-3.125 8.189 0 11.313l31.433 31.433-18.91 18.91h-46.866c-4.418 0-8 3.582-8 8s3.582 8 8 8h30.866l-49.946 49.946zm3.606 253.5c-5.157 5.108-10.85 7.577-17.513 7.577-21.151 0-32.44-25.928-16.503-41.434 1.762-1.714-9.597 9.598 40.173-40.172 10.786 10.786 23.15 23.15 33.937 33.936zm96.657-40.088c-9.372 9.379-24.55 9.381-33.934-.002l-56.57-56.57c-9.378-9.378-9.387-24.556 0-33.936 61.911-61.911 230.45-230.45 294.163-294.162 9.372-9.379 24.551-9.381 33.934.002l56.57 56.57c9.374 9.373 9.391 24.554.003 33.934-.104.076.765-.768-294.166 294.164zm304.342 10.177c-49.045 49.048-129.721 50.909-181.041-.015-1.457-1.472-52.929-52.93-55.417-55.419l49.946-49.946v30.866c0 4.418 3.582 8 8 8s8-3.582 8-8v-46.866l18.91-18.91 31.433 31.433c3.125 3.124 8.189 3.125 11.314 0 3.124-3.124 3.124-8.189 0-11.313l-31.433-31.433 18.91-18.91h46.866c4.418 0 8-3.582 8-8s-3.582-8-8-8h-30.866l49.937-49.937c53.653 53.644 55.447 55.404 55.855 55.846 49.718 50.142 49.241 130.95-.414 180.604z"/><path d="m405.672 117.67c3.124-3.124 3.124-8.19 0-11.314-3.125-3.124-8.189-3.124-11.314 0l-60 60c-3.124 3.124-3.124 8.19 0 11.314 3.125 3.124 8.189 3.124 11.314 0z"/><path d="m314.357 186.356-16 16c-3.124 3.124-3.124 8.189 0 11.313 3.125 3.124 8.189 3.125 11.314 0l16-16c3.124-3.124 3.124-8.189 0-11.313s-8.189-3.124-11.314 0z"/></g></svg>